# Blender 4.5.2 LTS
# www.blender.org
mtllib belomorkanal.mtl
o Cube
v 0.276076 0.001383 -1.000000
v 0.276076 0.001384 1.000000
v -0.276076 0.001384 1.000000
v -0.276076 0.001383 -1.000000
v 0.276076 2.001383 -1.000000
v 0.276075 2.001384 1.000000
v -0.276076 2.001384 0.999999
v -0.276076 2.001383 -1.000000
vn -0.0000 -1.0000 -0.0000
vn -0.0000 1.0000 -0.0000
vn 1.0000 -0.0000 -0.0000
vn -0.0000 -0.0000 1.0000
vn -1.0000 -0.0000 -0.0000
vn -0.0000 -0.0000 -1.0000
vt 0.361530 0.539055
vt 0.106941 0.538070
vt 0.106941 0.442941
vt 0.361530 0.443925
vt 0.366952 0.022349
vt 0.370761 0.110255
vt 0.100543 0.102508
vt 0.107414 0.018904
vt 0.369407 0.546429
vt 0.363963 0.881436
vt 0.077471 0.874591
vt 0.080435 0.540439
vt 0.082984 0.540310
vt 0.080568 0.874820
vt 0.025014 0.871602
vt 0.026065 0.538706
vt 0.091926 0.440662
vt 0.098288 0.104922
vt 0.374852 0.111929
vt 0.369061 0.449666
vt 0.372783 0.882690
vt 0.372783 0.547645
vt 0.441814 0.550745
vt 0.439997 0.881654
s 1
usemtl Material.002
f 1/1/1 2/2/1 3/3/1 4/4/1
f 5/5/2 8/6/2 7/7/2 6/8/2
f 1/9/3 5/10/3 6/11/3 2/12/3
f 2/13/4 6/14/4 7/15/4 3/16/4
f 3/17/5 7/18/5 8/19/5 4/20/5
f 5/21/6 1/22/6 4/23/6 8/24/6
o Cube.001
v -3.051157 0.552541 0.788209
v -1.211959 0.552541 0.002492
v -1.211959 0.000390 0.002492
v -3.051158 0.000390 0.788209
v -2.265440 0.552541 2.627407
v -0.426242 0.552541 1.841690
v -0.426243 0.000390 1.841690
v -2.265440 0.000390 2.627407
vn -0.3929 -0.0000 -0.9196
vn 0.3929 -0.0000 0.9196
vn -0.0000 1.0000 -0.0000
vn 0.9196 -0.0000 -0.3929
vn -0.0000 -1.0000 -0.0000
vn -0.9196 -0.0000 0.3929
vt 0.361530 0.539055
vt 0.106941 0.538070
vt 0.106941 0.442941
vt 0.361530 0.443925
vt 0.366952 0.022349
vt 0.370761 0.110255
vt 0.100543 0.102508
vt 0.107414 0.018904
vt 0.369407 0.546429
vt 0.363963 0.881436
vt 0.077471 0.874591
vt 0.080435 0.540439
vt 0.082984 0.540310
vt 0.080568 0.874820
vt 0.025014 0.871602
vt 0.026065 0.538706
vt 0.091926 0.440662
vt 0.098288 0.104922
vt 0.374852 0.111929
vt 0.369061 0.449666
vt 0.372783 0.882690
vt 0.372783 0.547645
vt 0.441814 0.550745
vt 0.439997 0.881654
s 1
usemtl Material.003
f 9/25/7 10/26/7 11/27/7 12/28/7
f 13/29/8 16/30/8 15/31/8 14/32/8
f 9/33/9 13/34/9 14/35/9 10/36/9
f 10/37/10 14/38/10 15/39/10 11/40/10
f 11/41/11 15/42/11 16/43/11 12/44/11
f 13/45/12 9/46/12 12/47/12 16/48/12
o Cube.002
v -2.048331 1.098892 -0.064952
v -0.358798 1.098892 1.005318
v -0.358799 0.546740 1.005318
v -2.048332 0.546741 -0.064952
v -3.118601 1.098892 1.624582
v -1.429068 1.098891 2.694851
v -1.429069 0.546740 2.694851
v -3.118601 0.546741 1.624581
vn 0.5351 -0.0000 -0.8448
vn -0.5351 -0.0000 0.8448
vn -0.0000 1.0000 -0.0000
vn 0.8448 -0.0000 0.5351
vn -0.0000 -1.0000 -0.0000
vn -0.8448 -0.0000 -0.5351
vt 0.361530 0.539055
vt 0.106941 0.538070
vt 0.106941 0.442941
vt 0.361530 0.443925
vt 0.366952 0.022349
vt 0.370761 0.110255
vt 0.100543 0.102508
vt 0.107414 0.018904
vt 0.369407 0.546429
vt 0.363963 0.881436
vt 0.077471 0.874591
vt 0.080435 0.540439
vt 0.082984 0.540310
vt 0.080568 0.874820
vt 0.025014 0.871602
vt 0.026065 0.538706
vt 0.091926 0.440662
vt 0.098288 0.104922
vt 0.374852 0.111929
vt 0.369061 0.449666
vt 0.372783 0.882690
vt 0.372783 0.547645
vt 0.441814 0.550745
vt 0.439997 0.881654
s 1
usemtl Material.004
f 17/49/13 18/50/13 19/51/13 20/52/13
f 21/53/14 24/54/14 23/55/14 22/56/14
f 17/57/15 21/58/15 22/59/15 18/60/15
f 18/61/16 22/62/16 23/63/16 19/64/16
f 19/65/17 23/66/17 24/67/17 20/68/17
f 21/69/18 17/70/18 20/71/18 24/72/18
