# Blender 4.4.3
# www.blender.org
o Plane
v -0.740693 -1.088620 -3.599845
v -1.428276 -2.000000 -3.661937
v -1.341915 -1.088620 -3.599845
vn -0.0000 0.0680 -0.9977
vt 0.000000 0.000000
s 0
f 1/1/1 2/1/1 3/1/1
o Plane.001
v 0.611714 1.013526 -3.473335
v 1.111714 1.813526 -3.473335
v 0.844571 1.813526 -3.473335
vn -0.0000 -0.0000 1.0000
vt 0.000000 0.000000
s 0
f 4/2/2 5/2/2 6/2/2
o Plane.002
v 0.611714 -0.986474 -3.473335
v 1.111714 -1.786474 -3.473335
v 0.844571 -1.786474 -3.473335
vn -0.0000 -0.0000 -1.0000
vt 0.000000 0.000000
s 0
f 7/3/3 8/3/3 9/3/3
o Plane.003
v -0.740693 1.088622 -3.599845
v -1.428276 2.000000 -3.661937
v -1.341915 1.088622 -3.599845
vn -0.0000 0.0680 0.9977
vt 0.000000 0.000000
s 0
f 10/4/4 11/4/4 12/4/4
o Plane.004
v -2.921866 -0.010055 -3.784850
v -0.766526 -1.300950 -3.731886
v -1.161821 1.067121 -3.624832
vn -0.0572 -0.0546 0.9969
vt 0.000000 0.000000
s 0
f 13/5/5 14/5/5 15/5/5
o Plane.005
v 2.971411 -0.010055 -3.784850
v 0.816068 -1.300950 -3.731886
v 1.211361 1.067121 -3.624832
vn -0.0572 0.0546 -0.9969
vt 0.000000 0.000000
s 0
f 16/6/6 17/6/6 18/6/6
