{
  "asset": {
    "version": "2.0",
    "generator": "THREE.GLTFExporter r169"
  },
  "scenes": [
    {
      "name": "Scene",
      "nodes": [
        5
      ]
    }
  ],
  "scene": 0,
  "nodes": [
    {
      "matrix": [
        -0.33789779023278843,
        0.42862209999407336,
        -0.8379189571506718,
        0,
        -0.8999161802268096,
        -0.4078649919265467,
        0.15426281770649264,
        0,
        -0.27563735581699916,
        0.8061818924767715,
        0.5235406424727542,
        0,
        0,
        0,
        0,
        1
      ],
      "name": "mesh_0",
      "extras": {
        "name": "mesh_0"
      },
      "mesh": 0
    },
    {
      "name": "duckobjcleanermaterialmergergles",
      "extras": {
        "name": "duck.obj.cleaner.materialmerger.gles"
      },
      "children": [
        0
      ]
    },
    {
      "name": "RootNode_(model_correction_matrix)",
      "extras": {
        "name": "RootNode (model correction matrix)"
      },
      "children": [
        1
      ]
    },
    {
      "matrix": [
        1,
        0,
        0,
        0,
        0,
        2.220446049250313e-16,
        -1,
        0,
        0,
        1,
        2.220446049250313e-16,
        0,
        0,
        0,
        0,
        1
      ],
      "name": "RootNode_(gltf_orientation_matrix)",
      "extras": {
        "name": "RootNode (gltf orientation matrix)"
      },
      "children": [
        2
      ]
    },
    {
      "matrix": [
        0.37514154534765837,
        -0.33845341401835305,
        0.8629705136871665,
        0,
        -0.7145156853592852,
        0.4875040720089276,
        0.5018038612349104,
        0,
        -0.5905388694486773,
        -0.8048534439971264,
        -0.05894724214280833,
        0,
        0,
        0,
        0,
        1
      ],
      "name": "scenegltf",
      "extras": {
        "name": "scene.gltf"
      },
      "children": [
        3
      ]
    },
    {
      "name": "scene.gltf",
      "children": [
        4
      ]
    }
  ],
  "bufferViews": [
    {
      "buffer": 0,
      "byteOffset": 0,
      "byteLength": 68112,
      "target": 34962,
      "byteStride": 12
    },
    {
      "buffer": 0,
      "byteOffset": 68112,
      "byteLength": 68112,
      "target": 34962,
      "byteStride": 12
    },
    {
      "buffer": 0,
      "byteOffset": 136224,
      "byteLength": 90816,
      "target": 34962,
      "byteStride": 16
    },
    {
      "buffer": 0,
      "byteOffset": 227040,
      "byteLength": 45408,
      "target": 34962,
      "byteStride": 8
    },
    {
      "buffer": 0,
      "byteOffset": 272448,
      "byteLength": 132864,
      "target": 34963
    }
  ],
  "buffers": [
    {
      "byteLength": 405312,
      "uri": "data:application/octet-stream;base64,"
    }
  ],
  "accessors": [
    {
      "bufferView": 0,
      "componentType": 5126,
      "count": 5676,
      "max": [
        0.9999474287033081,
        0.9999734163284302,
        0.9999920129776001
      ],
      "min": [
        -0.9999474287033081,
        -0.9998416304588318,
        -1
      ],
      "type": "VEC3"
    },
    {
      "bufferView": 1,
      "componentType": 5126,
      "count": 5676,
      "max": [
        0.3625209927558899,
        0.5130379796028137,
        1.0525829792022705
      ],
      "min": [
        -0.3625209927558899,
        -0.48232200741767883,
        0.00014600000577047467
      ],
      "type": "VEC3"
    },
    {
      "bufferView": 2,
      "componentType": 5126,
      "count": 5676,
      "max": [
        0.999850332736969,
        0.9997075796127319,
        0.9982545375823975,
        1
      ],
      "min": [
        -1,
        -0.9997091889381409,
        -0.9982549548149109,
        -1
      ],
      "type": "VEC4"
    },
    {
      "bufferView": 3,
      "componentType": 5126,
      "count": 5676,
      "max": [
        0.9983140230178833,
        0.878055989742279
      ],
      "min": [
        0.00010900000052060932,
        0.00010900000052060932
      ],
      "type": "VEC2"
    },
    {
      "bufferView": 4,
      "componentType": 5125,
      "count": 33216,
      "max": [
        5675
      ],
      "min": [
        0
      ],
      "type": "SCALAR"
    }
  ],
  "materials": [
    {
      "pbrMetallicRoughness": {
        "metallicFactor": 0,
        "roughnessFactor": 0.843491542,
        "baseColorTexture": {
          "index": 0,
          "texCoord": 0
        }
      },
      "doubleSided": true,
      "name": "Duck"
    }
  ],
  "textures": [
    {
      "sampler": 0,
      "source": 0,
      "name": "textures/Duck_baseColor.png"
    }
  ],
  "samplers": [
    {
      "magFilter": 9729,
      "minFilter": 9987,
      "wrapS": 10497,
      "wrapT": 10497
    }
  ],
  "images": [
    {
      "mimeType": "image/png",
      "uri": "data:image/png;base64,"
    }
  ],
  "meshes": [
    {
      "primitives": [
        {
          "mode": 4,
          "attributes": {
            "NORMAL": 0,
            "POSITION": 1,
            "TANGENT": 2,
            "TEXCOORD_0": 3
          },
          "indices": 4,
          "material": 0
        }
      ]
    }
  ]
}