# Blender 4.4.3
# www.blender.org
o Torus.001
v 0.680799 -1.048338 -5.000000
v 0.755119 -0.960137 -5.058684
v 0.773042 -0.839389 -5.101644
v 0.729764 -0.718449 -5.117368
v 0.636882 -0.629722 -5.101644
v 0.519284 -0.596983 -5.058684
v 0.408479 -0.629003 -5.000000
v 0.334159 -0.717204 -4.941316
v 0.316235 -0.837952 -4.898356
v 0.359513 -0.958893 -4.882632
v 0.452395 -1.047620 -4.898356
v 0.569994 -1.080359 -4.941316
v 0.610734 -1.081088 -5.144060
v 0.686932 -0.992009 -5.198884
v 0.709984 -0.868864 -5.231297
v 0.673713 -0.744648 -5.232615
v 0.587837 -0.652646 -5.202486
v 0.475367 -0.617510 -5.148980
v 0.366440 -0.648653 -5.086436
v 0.290242 -0.737732 -5.031612
v 0.267190 -0.860876 -4.999198
v 0.303462 -0.985092 -4.997880
v 0.389337 -1.077095 -5.028010
v 0.501806 -1.112231 -5.081516
v 0.530219 -1.095339 -5.285655
v 0.608575 -1.005879 -5.336684
v 0.637521 -0.881691 -5.358733
v 0.609301 -0.756050 -5.345891
v 0.531477 -0.662623 -5.301602
v 0.424902 -0.626443 -5.237731
v 0.318131 -0.657204 -5.171393
v 0.239776 -0.746665 -5.120363
v 0.210830 -0.870853 -5.098315
v 0.239050 -0.996494 -5.111156
v 0.316874 -1.089921 -5.155446
v 0.423449 -1.126101 -5.219316
v 0.440632 -1.090850 -5.422362
v 0.521388 -1.001510 -5.469728
v 0.556892 -0.877650 -5.481769
v 0.537632 -0.752459 -5.455257
v 0.468766 -0.659480 -5.397297
v 0.368749 -0.623628 -5.323418
v 0.264380 -0.654510 -5.253417
v 0.183623 -0.743850 -5.206050
v 0.148120 -0.867711 -5.194010
v 0.167380 -0.992902 -5.220521
v 0.236246 -1.085880 -5.278482
v 0.336262 -1.121732 -5.352361
v 0.343506 -1.067696 -5.551842
v 0.426865 -0.978975 -5.595740
v 0.469479 -0.856811 -5.598302
v 0.459930 -0.733934 -5.558842
v 0.400778 -0.643272 -5.487933
v 0.307870 -0.609115 -5.404576
v 0.206103 -0.640617 -5.331105
v 0.122745 -0.729337 -5.287208
v 0.080130 -0.851502 -5.284646
v 0.089679 -0.974378 -5.324106
v 0.148832 -1.065042 -5.395015
v 0.241739 -1.099197 -5.478372
v 0.240503 -1.026273 -5.671880
v 0.326621 -0.938662 -5.712562
v 0.376776 -0.819531 -5.706336
v 0.377528 -0.700796 -5.654872
v 0.328675 -0.614276 -5.571960
v 0.243308 -0.583151 -5.479815
v 0.144302 -0.615764 -5.403128
v 0.058183 -0.703373 -5.362447
v 0.008029 -0.822506 -5.368673
v 0.007276 -0.941240 -5.420136
v 0.056130 -1.027761 -5.503049
v 0.141496 -1.058884 -5.595193
v 0.133384 -0.967289 -5.780423
v 0.222373 -0.881260 -5.818195
v 0.280368 -0.766446 -5.804024
v 0.291832 -0.653610 -5.741706
v 0.253692 -0.572987 -5.647940
v 0.176167 -0.546182 -5.547849
v 0.080030 -0.580374 -5.468254
v -0.008958 -0.666404 -5.430481
v -0.066955 -0.781217 -5.444653
v -0.078418 -0.894054 -5.506970
v -0.040278 -0.974676 -5.600737
v 0.037247 -1.001482 -5.700828
v 0.023983 -0.891756 -5.875612
v 0.115903 -0.807751 -5.910834
v 0.181908 -0.698466 -5.889694
v 0.204312 -0.593184 -5.817857
v 0.177111 -0.520114 -5.714572
v 0.107595 -0.498838 -5.607513
v 0.014389 -0.535054 -5.525367
v -0.077530 -0.619060 -5.490145
v -0.143535 -0.728344 -5.511285
v -0.165939 -0.833628 -5.583121
v -0.138739 -0.906696 -5.686407
v -0.069222 -0.927972 -5.793466
v -0.085828 -0.800965 -5.955819
v 0.009034 -0.719392 -5.988892
v 0.083078 -0.616753 -5.961881
v 0.116463 -0.520550 -5.882023
v 0.100243 -0.456560 -5.770717
v 0.038766 -0.441930 -5.657786
v -0.051497 -0.480579 -5.573491
v -0.146360 -0.562152 -5.540419
v -0.220403 -0.664790 -5.567430
v -0.253788 -0.760994 -5.647287
v -0.237569 -0.824984 -5.758594
v -0.176092 -0.839614 -5.871524
v -0.194171 -0.696469 -6.019671
v -0.096405 -0.617696 -6.051033
v -0.014430 -0.522706 -6.019348
v 0.029789 -0.436953 -5.933105
v 0.024404 -0.383412 -5.815413
v -0.029143 -0.376432 -5.697809
v -0.116502 -0.417881 -5.611803
v -0.214268 -0.496654 -5.580441
v -0.296243 -0.591643 -5.612126
v -0.340462 -0.677397 -5.698370
v -0.335078 -0.730937 -5.816061
v -0.281531 -0.737918 -5.933665
v -0.299191 -0.580055 -6.066077
v -0.198612 -0.504401 -6.096196
v -0.108949 -0.417934 -6.061113
v -0.054228 -0.343822 -5.970230
v -0.049111 -0.301924 -5.847898
v -0.094969 -0.303465 -5.726896
v -0.179515 -0.348033 -5.639647
v -0.280095 -0.423687 -5.609528
v -0.369757 -0.510154 -5.644610
v -0.424479 -0.584266 -5.735494
v -0.429596 -0.626165 -5.857826
v -0.383737 -0.624623 -5.978828
v -0.399093 -0.453717 -6.094242
v -0.295837 -0.381449 -6.123606
v -0.198860 -0.304230 -6.086462
v -0.134149 -0.242752 -5.992762
v -0.119041 -0.213486 -5.867613
v -0.157587 -0.224277 -5.744549
v -0.239455 -0.272230 -5.656546
v -0.342713 -0.344498 -5.627182
v -0.439689 -0.421717 -5.664326
v -0.504400 -0.483195 -5.758026
v -0.519507 -0.512461 -5.883174
v -0.480962 -0.501671 -6.006238
v -0.492165 -0.319616 -6.103684
v -0.386415 -0.250941 -6.132795
v -0.282626 -0.183539 -6.094960
v -0.208607 -0.135471 -6.000316
v -0.184193 -0.119616 -5.874223
v -0.215924 -0.140223 -5.750468
v -0.295300 -0.191770 -5.662210
v -0.401049 -0.260444 -5.633100
v -0.504839 -0.327846 -5.670936
v -0.578857 -0.375914 -5.765580
v -0.603272 -0.391769 -5.891673
v -0.571541 -0.371163 -6.015428
v -0.576817 -0.180046 -6.094242
v -0.468799 -0.115111 -6.123606
v -0.358812 -0.057926 -6.086462
v -0.276328 -0.023815 -5.992762
v -0.243448 -0.021916 -5.867613
v -0.268984 -0.052741 -5.744549
v -0.346090 -0.108027 -5.656546
v -0.454109 -0.172963 -5.627182
v -0.564096 -0.230147 -5.664326
v -0.646579 -0.264259 -5.758026
v -0.679459 -0.266157 -5.883174
v -0.653924 -0.235333 -6.006238
v -0.651599 -0.037395 -6.066077
v -0.541576 0.023718 -6.096196
v -0.426115 0.070459 -6.061113
v -0.336154 0.090305 -5.970230
v -0.295796 0.077938 -5.847898
v -0.315856 0.036672 -5.726896
v -0.390959 -0.022438 -5.639647
v -0.500982 -0.083550 -5.609528
v -0.616443 -0.130292 -5.644610
v -0.706405 -0.150139 -5.735494
v -0.746762 -0.137772 -5.857826
v -0.726702 -0.096504 -5.978828
v -0.715232 0.105895 -6.019671
v -0.603505 0.163169 -6.051033
v -0.483385 0.199421 -6.019348
v -0.387060 0.204939 -5.933105
v -0.340339 0.178242 -5.815413
v -0.355741 0.126485 -5.697809
v -0.429139 0.063538 -5.611803
v -0.540866 0.006263 -5.580441
v -0.660986 -0.029989 -5.612126
v -0.757311 -0.035505 -5.698370
v -0.804032 -0.008810 -5.816061
v -0.788630 0.042947 -5.933666
v -0.766627 0.247373 -5.955819
v -0.653523 0.300856 -5.988892
v -0.529641 0.326752 -5.961881
v -0.428176 0.318121 -5.882023
v -0.376316 0.277277 -5.770717
v -0.387955 0.215163 -5.657786
v -0.459977 0.148424 -5.573492
v -0.573081 0.094942 -5.540419
v -0.696962 0.069046 -5.567430
v -0.798427 0.077677 -5.647287
v -0.850288 0.118521 -5.758594
v -0.838648 0.180634 -5.871524
v -0.804905 0.384620 -5.875612
v -0.690775 0.434424 -5.910834
v -0.564091 0.450273 -5.889694
v -0.458798 0.427917 -5.817857
v -0.403110 0.373349 -5.714572
v -0.411948 0.301189 -5.607513
v -0.482944 0.230771 -5.525367
v -0.597073 0.180967 -5.490145
v -0.723757 0.165118 -5.511285
v -0.829050 0.187473 -5.583121
v -0.884739 0.242042 -5.686407
v -0.875901 0.314202 -5.793466
v -0.829411 0.515285 -5.780423
v -0.714624 0.561588 -5.818195
v -0.586146 0.567871 -5.804024
v -0.478404 0.532449 -5.741706
v -0.420265 0.464815 -5.647939
v -0.427308 0.383089 -5.547849
v -0.497647 0.309170 -5.468254
v -0.612434 0.262867 -5.430481
v -0.740911 0.256584 -5.444652
v -0.848654 0.292006 -5.506970
v -0.906793 0.359641 -5.600737
v -0.899750 0.441366 -5.700828
v -0.839725 0.637133 -5.671881
v -0.724662 0.680172 -5.712562
v -0.595429 0.677534 -5.706336
v -0.486654 0.629928 -5.654872
v -0.427484 0.550108 -5.571960
v -0.433773 0.459462 -5.479815
v -0.503835 0.382280 -5.403128
v -0.618898 0.339240 -5.362447
v -0.748131 0.341878 -5.368673
v -0.856906 0.389484 -5.420136
v -0.916076 0.469304 -5.503049
v -0.909787 0.559950 -5.595194
v -0.835672 0.748080 -5.551843
v -0.720717 0.788145 -5.595740
v -0.591781 0.777386 -5.598302
v -0.483412 0.718685 -5.558842
v -0.424647 0.627771 -5.487933
v -0.431232 0.529003 -5.404576
v -0.501403 0.448847 -5.331106
v -0.616358 0.408781 -5.287208
v -0.745294 0.419540 -5.284646
v -0.853663 0.478241 -5.324106
v -0.912428 0.569155 -5.395015
v -0.905843 0.667923 -5.478372
v -0.817320 0.846226 -5.422362
v -0.702857 0.883662 -5.469728
v -0.575265 0.865718 -5.481769
v -0.468731 0.797203 -5.455257
v -0.411801 0.696474 -5.397297
v -0.419729 0.590522 -5.323418
v -0.490392 0.507736 -5.253417
v -0.604855 0.470300 -5.206050
v -0.732447 0.488244 -5.194010
v -0.838982 0.556759 -5.220521
v -0.895911 0.657488 -5.278482
v -0.887983 0.763440 -5.352361
v -0.784983 0.929894 -5.285655
v -0.671387 0.965089 -5.336684
v -0.546162 0.941020 -5.358733
v -0.442861 0.864137 -5.345891
v -0.389165 0.755041 -5.301602
v -0.399461 0.642964 -5.237731
v -0.470990 0.557936 -5.171392
v -0.584586 0.522742 -5.120363
v -0.709811 0.546811 -5.098315
v -0.813112 0.623693 -5.111156
v -0.866808 0.732790 -5.155446
v -0.856513 0.844867 -5.219316
v -0.739215 0.997651 -5.144060
v -0.626845 1.031030 -5.198884
v -0.504970 1.002001 -5.231297
v -0.406246 0.918343 -5.232616
v -0.357127 0.802471 -5.202486
v -0.370774 0.685434 -5.148980
v -0.443530 0.598591 -5.086436
v -0.555900 0.565212 -5.031612
v -0.677774 0.594240 -4.999198
v -0.776498 0.677899 -4.997880
v -0.825617 0.793770 -5.028010
v -0.811971 0.910808 -5.081516
v -0.680799 1.048338 -5.000000
v -0.569995 1.080358 -5.058684
v -0.452396 1.047620 -5.101644
v -0.359514 0.958892 -5.117368
v -0.316236 0.837952 -5.101644
v -0.334159 0.717204 -5.058684
v -0.408480 0.629003 -5.000000
v -0.519284 0.596982 -4.941316
v -0.636883 0.629721 -4.898356
v -0.729765 0.718448 -4.882632
v -0.773043 0.839389 -4.898356
v -0.755120 0.960136 -4.941316
v -0.610734 1.081087 -4.855940
v -0.501807 1.112231 -4.918484
v -0.389337 1.077094 -4.971990
v -0.303462 0.985092 -5.002120
v -0.267191 0.860876 -5.000802
v -0.290242 0.737732 -4.968388
v -0.366441 0.648653 -4.913564
v -0.475368 0.617509 -4.851020
v -0.587837 0.652646 -4.797514
v -0.673714 0.744648 -4.767384
v -0.709984 0.868863 -4.768703
v -0.686933 0.992009 -4.801116
v -0.530220 1.095339 -4.714345
v -0.423450 1.126101 -4.780684
v -0.316875 1.089921 -4.844554
v -0.239051 0.996494 -4.888844
v -0.210831 0.870852 -4.901685
v -0.239777 0.746664 -4.879637
v -0.318132 0.657203 -4.828608
v -0.424902 0.626442 -4.762269
v -0.531477 0.662622 -4.698398
v -0.609302 0.756050 -4.654109
v -0.637521 0.881691 -4.641267
v -0.608575 1.005879 -4.663316
v -0.440633 1.090850 -4.577639
v -0.336264 1.121732 -4.647640
v -0.236247 1.085880 -4.721519
v -0.167381 0.992902 -4.779479
v -0.148120 0.867710 -4.805991
v -0.183624 0.743850 -4.793950
v -0.264380 0.654510 -4.746583
v -0.368750 0.623628 -4.676582
v -0.468767 0.659480 -4.602704
v -0.537632 0.752458 -4.544743
v -0.556894 0.877650 -4.518231
v -0.521389 1.001510 -4.530272
v -0.343507 1.067695 -4.448158
v -0.241740 1.099198 -4.521628
v -0.148833 1.065041 -4.604986
v -0.089680 0.974379 -4.675894
v -0.080131 0.851502 -4.715354
v -0.122746 0.729336 -4.712792
v -0.206104 0.640617 -4.668895
v -0.307871 0.609114 -4.595424
v -0.400778 0.643271 -4.512067
v -0.459931 0.733935 -4.441158
v -0.469480 0.856811 -4.401699
v -0.426866 0.978976 -4.404261
v -0.240504 1.026272 -4.328119
v -0.141496 1.058884 -4.404806
v -0.056130 1.027759 -4.496951
v -0.007277 0.941239 -4.579864
v -0.008029 0.822505 -4.631327
v -0.058183 0.703373 -4.637553
v -0.144302 0.615763 -4.596872
v -0.243309 0.583151 -4.520185
v -0.328676 0.614275 -4.428040
v -0.377528 0.700795 -4.345128
v -0.376776 0.819529 -4.293664
v -0.326622 0.938662 -4.287438
v -0.133385 0.967290 -4.219577
v -0.037248 1.001482 -4.299172
v 0.040277 0.974675 -4.399263
v 0.078417 0.894053 -4.493030
v 0.066953 0.781218 -4.555348
v 0.008958 0.666403 -4.569519
v -0.080031 0.580373 -4.531746
v -0.176168 0.546181 -4.452151
v -0.253693 0.572988 -4.352061
v -0.291833 0.653610 -4.258294
v -0.280370 0.766445 -4.195976
v -0.222373 0.881260 -4.181805
v -0.023984 0.891756 -4.124389
v 0.069221 0.927973 -4.206534
v 0.138738 0.906696 -4.313593
v 0.165938 0.833627 -4.416879
v 0.143534 0.728345 -4.488716
v 0.077530 0.619059 -4.509855
v -0.014390 0.535054 -4.474633
v -0.107596 0.498837 -4.392488
v -0.177112 0.520114 -4.285429
v -0.204313 0.593183 -4.182143
v -0.181909 0.698465 -4.110306
v -0.115905 0.807751 -4.089167
v 0.085828 0.800964 -4.044181
v 0.176091 0.839613 -4.128476
v 0.237568 0.824983 -4.241406
v 0.253787 0.760993 -4.352713
v 0.220402 0.664790 -4.432570
v 0.146359 0.562151 -4.459581
v 0.051497 0.480579 -4.426508
v -0.038767 0.441929 -4.342214
v -0.100244 0.456560 -4.229283
v -0.116464 0.520549 -4.117977
v -0.083079 0.616752 -4.038119
v -0.009035 0.719392 -4.011108
v 0.194171 0.696468 -3.980329
v 0.281530 0.737917 -4.066334
v 0.335077 0.730937 -4.183939
v 0.340461 0.677397 -4.301630
v 0.296243 0.591643 -4.387874
v 0.214268 0.496653 -4.419559
v 0.116502 0.417881 -4.388197
v 0.029142 0.376431 -4.302191
v -0.024405 0.383412 -4.184587
v -0.029790 0.436953 -4.066895
v 0.014430 0.522706 -3.980652
v 0.096405 0.617695 -3.948967
v 0.299190 0.580055 -3.933923
v 0.383737 0.624623 -4.021172
v 0.429595 0.626165 -4.142174
v 0.424479 0.584266 -4.264506
v 0.369757 0.510154 -4.355390
v 0.280094 0.423686 -4.390472
v 0.179514 0.348033 -4.360353
v 0.094968 0.303464 -4.273104
v 0.049110 0.301924 -4.152102
v 0.054227 0.343822 -4.029770
v 0.108948 0.417934 -3.938887
v 0.198611 0.504401 -3.903804
v 0.399092 0.453717 -3.905758
v 0.480961 0.501671 -3.993762
v 0.519506 0.512461 -4.116826
v 0.504399 0.483196 -4.241974
v 0.439687 0.421717 -4.335674
v 0.342712 0.344499 -4.372818
v 0.239455 0.272230 -4.343455
v 0.157586 0.224277 -4.255451
v 0.119040 0.213487 -4.132387
v 0.134147 0.242752 -4.007238
v 0.198859 0.304231 -3.913538
v 0.295835 0.381450 -3.876394
v 0.492164 0.319615 -3.896316
v 0.571540 0.371163 -3.984573
v 0.603271 0.391769 -4.108327
v 0.578857 0.375914 -4.234420
v 0.504838 0.327846 -4.329064
v 0.401049 0.260444 -4.366900
v 0.295299 0.191769 -4.337790
v 0.215924 0.140223 -4.249532
v 0.184192 0.119616 -4.125777
v 0.208606 0.135471 -3.999684
v 0.282625 0.183539 -3.905040
v 0.386415 0.250941 -3.867205
v 0.576816 0.180045 -3.905758
v 0.653924 0.235332 -3.993762
v 0.679458 0.266156 -4.116826
v 0.646578 0.264258 -4.241974
v 0.564094 0.230147 -4.335674
v 0.454108 0.172963 -4.372818
v 0.346089 0.108027 -4.343454
v 0.268983 0.052741 -4.255451
v 0.243447 0.021917 -4.132387
v 0.276327 0.023814 -4.007238
v 0.358811 0.057926 -3.913538
v 0.468798 0.115110 -3.876394
v 0.651598 0.037395 -3.933922
v 0.726701 0.096505 -4.021172
v 0.746762 0.137771 -4.142174
v 0.706404 0.150138 -4.264506
v 0.616442 0.130292 -4.355390
v 0.500981 0.083550 -4.390472
v 0.390959 0.022437 -4.360353
v 0.315856 -0.036672 -4.273104
v 0.295795 -0.077938 -4.152102
v 0.336153 -0.090306 -4.029770
v 0.426115 -0.070460 -3.938887
v 0.541575 -0.023717 -3.903804
v 0.715232 -0.105896 -3.980329
v 0.788630 -0.042947 -4.066335
v 0.804032 0.008809 -4.183939
v 0.757311 0.035505 -4.301630
v 0.660985 0.029988 -4.387874
v 0.540866 -0.006264 -4.419559
v 0.429139 -0.063538 -4.388197
v 0.355740 -0.126486 -4.302191
v 0.340338 -0.178242 -4.184587
v 0.387060 -0.204939 -4.066895
v 0.483385 -0.199421 -3.980652
v 0.603504 -0.163169 -3.948967
v 0.766627 -0.247374 -4.044181
v 0.838648 -0.180634 -4.128476
v 0.850287 -0.118521 -4.241406
v 0.798426 -0.077677 -4.352713
v 0.696962 -0.069047 -4.432570
v 0.573080 -0.094942 -4.459581
v 0.459976 -0.148424 -4.426509
v 0.387955 -0.215164 -4.342214
v 0.376315 -0.277277 -4.229283
v 0.428175 -0.318121 -4.117977
v 0.529640 -0.326752 -4.038119
v 0.653522 -0.300856 -4.011108
v 0.804905 -0.384620 -4.124388
v 0.875900 -0.314203 -4.206534
v 0.884737 -0.242042 -4.313593
v 0.829049 -0.187474 -4.416878
v 0.723757 -0.165118 -4.488715
v 0.597073 -0.180967 -4.509855
v 0.482943 -0.230772 -4.474633
v 0.411947 -0.301189 -4.392487
v 0.403110 -0.373349 -4.285428
v 0.458798 -0.427918 -4.182143
v 0.564090 -0.450273 -4.110306
v 0.690775 -0.434425 -4.089166
v 0.829410 -0.515284 -4.219577
v 0.899749 -0.441366 -4.299172
v 0.906793 -0.359641 -4.399262
v 0.848654 -0.292005 -4.493029
v 0.740911 -0.256584 -4.555347
v 0.612432 -0.262866 -4.569519
v 0.497646 -0.309171 -4.531746
v 0.427307 -0.383088 -4.452151
v 0.420264 -0.464814 -4.352060
v 0.478403 -0.532449 -4.258294
v 0.586146 -0.567871 -4.195975
v 0.714623 -0.561588 -4.181804
v 0.839725 -0.637133 -4.328120
v 0.909787 -0.559950 -4.404807
v 0.916076 -0.469305 -4.496951
v 0.856905 -0.389484 -4.579864
v 0.748130 -0.341878 -4.631327
v 0.618898 -0.339241 -4.637553
v 0.503835 -0.382280 -4.596872
v 0.433772 -0.459463 -4.520185
v 0.427484 -0.550108 -4.428040
v 0.486654 -0.629928 -4.345128
v 0.595429 -0.677535 -4.293664
v 0.724661 -0.680172 -4.287438
v 0.835672 -0.748080 -4.448158
v 0.905842 -0.667924 -4.521628
v 0.912428 -0.569157 -4.604985
v 0.853663 -0.478241 -4.675894
v 0.745293 -0.419540 -4.715354
v 0.616357 -0.408782 -4.712792
v 0.501403 -0.448848 -4.668895
v 0.431232 -0.529003 -4.595424
v 0.424646 -0.627771 -4.512067
v 0.483411 -0.718685 -4.441158
v 0.591781 -0.777387 -4.401698
v 0.720716 -0.788146 -4.404260
v 0.817319 -0.846226 -4.577638
v 0.887982 -0.763441 -4.647639
v 0.895910 -0.657489 -4.721518
v 0.838981 -0.556759 -4.779478
v 0.732447 -0.488243 -4.805990
v 0.604854 -0.470300 -4.793950
v 0.490391 -0.507737 -4.746583
v 0.419729 -0.590522 -4.676581
v 0.411800 -0.696473 -4.602703
v 0.468729 -0.797203 -4.544743
v 0.575264 -0.865719 -4.518230
v 0.702856 -0.883663 -4.530271
v 0.784982 -0.929894 -4.714346
v 0.856512 -0.844867 -4.780684
v 0.866808 -0.732790 -4.844555
v 0.813112 -0.623694 -4.888844
v 0.709811 -0.546811 -4.901686
v 0.584586 -0.522743 -4.879637
v 0.470989 -0.557936 -4.828608
v 0.399460 -0.642965 -4.762269
v 0.389164 -0.755041 -4.698399
v 0.442860 -0.864138 -4.654109
v 0.546161 -0.941021 -4.641268
v 0.671386 -0.965089 -4.663316
v 0.739215 -0.997651 -4.855940
v 0.811970 -0.910809 -4.918484
v 0.825617 -0.793772 -4.971990
v 0.776497 -0.677899 -5.002120
v 0.677773 -0.594241 -5.000802
v 0.555899 -0.565212 -4.968388
v 0.443529 -0.598591 -4.913564
v 0.370773 -0.685434 -4.851020
v 0.357127 -0.802471 -4.797514
v 0.406246 -0.918343 -4.767385
v 0.504970 -1.002002 -4.768703
v 0.626845 -1.031031 -4.801116
s 1
f 1 13 14 2
f 2 14 15 3
f 3 15 16 4
f 4 16 17 5
f 5 17 18 6
f 6 18 19 7
f 7 19 20 8
f 8 20 21 9
f 9 21 22 10
f 10 22 23 11
f 11 23 24 12
f 12 24 13 1
f 13 25 26 14
f 14 26 27 15
f 15 27 28 16
f 16 28 29 17
f 17 29 30 18
f 18 30 31 19
f 19 31 32 20
f 20 32 33 21
f 21 33 34 22
f 22 34 35 23
f 23 35 36 24
f 24 36 25 13
f 25 37 38 26
f 26 38 39 27
f 27 39 40 28
f 28 40 41 29
f 29 41 42 30
f 30 42 43 31
f 31 43 44 32
f 32 44 45 33
f 33 45 46 34
f 34 46 47 35
f 35 47 48 36
f 36 48 37 25
f 37 49 50 38
f 38 50 51 39
f 39 51 52 40
f 40 52 53 41
f 41 53 54 42
f 42 54 55 43
f 43 55 56 44
f 44 56 57 45
f 45 57 58 46
f 46 58 59 47
f 47 59 60 48
f 48 60 49 37
f 49 61 62 50
f 50 62 63 51
f 51 63 64 52
f 52 64 65 53
f 53 65 66 54
f 54 66 67 55
f 55 67 68 56
f 56 68 69 57
f 57 69 70 58
f 58 70 71 59
f 59 71 72 60
f 60 72 61 49
f 61 73 74 62
f 62 74 75 63
f 63 75 76 64
f 64 76 77 65
f 65 77 78 66
f 66 78 79 67
f 67 79 80 68
f 68 80 81 69
f 69 81 82 70
f 70 82 83 71
f 71 83 84 72
f 72 84 73 61
f 73 85 86 74
f 74 86 87 75
f 75 87 88 76
f 76 88 89 77
f 77 89 90 78
f 78 90 91 79
f 79 91 92 80
f 80 92 93 81
f 81 93 94 82
f 82 94 95 83
f 83 95 96 84
f 84 96 85 73
f 85 97 98 86
f 86 98 99 87
f 87 99 100 88
f 88 100 101 89
f 89 101 102 90
f 90 102 103 91
f 91 103 104 92
f 92 104 105 93
f 93 105 106 94
f 94 106 107 95
f 95 107 108 96
f 96 108 97 85
f 97 109 110 98
f 98 110 111 99
f 99 111 112 100
f 100 112 113 101
f 101 113 114 102
f 102 114 115 103
f 103 115 116 104
f 104 116 117 105
f 105 117 118 106
f 106 118 119 107
f 107 119 120 108
f 108 120 109 97
f 109 121 122 110
f 110 122 123 111
f 111 123 124 112
f 112 124 125 113
f 113 125 126 114
f 114 126 127 115
f 115 127 128 116
f 116 128 129 117
f 117 129 130 118
f 118 130 131 119
f 119 131 132 120
f 120 132 121 109
f 121 133 134 122
f 122 134 135 123
f 123 135 136 124
f 124 136 137 125
f 125 137 138 126
f 126 138 139 127
f 127 139 140 128
f 128 140 141 129
f 129 141 142 130
f 130 142 143 131
f 131 143 144 132
f 132 144 133 121
f 133 145 146 134
f 134 146 147 135
f 135 147 148 136
f 136 148 149 137
f 137 149 150 138
f 138 150 151 139
f 139 151 152 140
f 140 152 153 141
f 141 153 154 142
f 142 154 155 143
f 143 155 156 144
f 144 156 145 133
f 145 157 158 146
f 146 158 159 147
f 147 159 160 148
f 148 160 161 149
f 149 161 162 150
f 150 162 163 151
f 151 163 164 152
f 152 164 165 153
f 153 165 166 154
f 154 166 167 155
f 155 167 168 156
f 156 168 157 145
f 157 169 170 158
f 158 170 171 159
f 159 171 172 160
f 160 172 173 161
f 161 173 174 162
f 162 174 175 163
f 163 175 176 164
f 164 176 177 165
f 165 177 178 166
f 166 178 179 167
f 167 179 180 168
f 168 180 169 157
f 169 181 182 170
f 170 182 183 171
f 171 183 184 172
f 172 184 185 173
f 173 185 186 174
f 174 186 187 175
f 175 187 188 176
f 176 188 189 177
f 177 189 190 178
f 178 190 191 179
f 179 191 192 180
f 180 192 181 169
f 181 193 194 182
f 182 194 195 183
f 183 195 196 184
f 184 196 197 185
f 185 197 198 186
f 186 198 199 187
f 187 199 200 188
f 188 200 201 189
f 189 201 202 190
f 190 202 203 191
f 191 203 204 192
f 192 204 193 181
f 193 205 206 194
f 194 206 207 195
f 195 207 208 196
f 196 208 209 197
f 197 209 210 198
f 198 210 211 199
f 199 211 212 200
f 200 212 213 201
f 201 213 214 202
f 202 214 215 203
f 203 215 216 204
f 204 216 205 193
f 205 217 218 206
f 206 218 219 207
f 207 219 220 208
f 208 220 221 209
f 209 221 222 210
f 210 222 223 211
f 211 223 224 212
f 212 224 225 213
f 213 225 226 214
f 214 226 227 215
f 215 227 228 216
f 216 228 217 205
f 217 229 230 218
f 218 230 231 219
f 219 231 232 220
f 220 232 233 221
f 221 233 234 222
f 222 234 235 223
f 223 235 236 224
f 224 236 237 225
f 225 237 238 226
f 226 238 239 227
f 227 239 240 228
f 228 240 229 217
f 229 241 242 230
f 230 242 243 231
f 231 243 244 232
f 232 244 245 233
f 233 245 246 234
f 234 246 247 235
f 235 247 248 236
f 236 248 249 237
f 237 249 250 238
f 238 250 251 239
f 239 251 252 240
f 240 252 241 229
f 241 253 254 242
f 242 254 255 243
f 243 255 256 244
f 244 256 257 245
f 245 257 258 246
f 246 258 259 247
f 247 259 260 248
f 248 260 261 249
f 249 261 262 250
f 250 262 263 251
f 251 263 264 252
f 252 264 253 241
f 253 265 266 254
f 254 266 267 255
f 255 267 268 256
f 256 268 269 257
f 257 269 270 258
f 258 270 271 259
f 259 271 272 260
f 260 272 273 261
f 261 273 274 262
f 262 274 275 263
f 263 275 276 264
f 264 276 265 253
f 265 277 278 266
f 266 278 279 267
f 267 279 280 268
f 268 280 281 269
f 269 281 282 270
f 270 282 283 271
f 271 283 284 272
f 272 284 285 273
f 273 285 286 274
f 274 286 287 275
f 275 287 288 276
f 276 288 277 265
f 277 289 290 278
f 278 290 291 279
f 279 291 292 280
f 280 292 293 281
f 281 293 294 282
f 282 294 295 283
f 283 295 296 284
f 284 296 297 285
f 285 297 298 286
f 286 298 299 287
f 287 299 300 288
f 288 300 289 277
f 289 301 302 290
f 290 302 303 291
f 291 303 304 292
f 292 304 305 293
f 293 305 306 294
f 294 306 307 295
f 295 307 308 296
f 296 308 309 297
f 297 309 310 298
f 298 310 311 299
f 299 311 312 300
f 300 312 301 289
f 301 313 314 302
f 302 314 315 303
f 303 315 316 304
f 304 316 317 305
f 305 317 318 306
f 306 318 319 307
f 307 319 320 308
f 308 320 321 309
f 309 321 322 310
f 310 322 323 311
f 311 323 324 312
f 312 324 313 301
f 313 325 326 314
f 314 326 327 315
f 315 327 328 316
f 316 328 329 317
f 317 329 330 318
f 318 330 331 319
f 319 331 332 320
f 320 332 333 321
f 321 333 334 322
f 322 334 335 323
f 323 335 336 324
f 324 336 325 313
f 325 337 338 326
f 326 338 339 327
f 327 339 340 328
f 328 340 341 329
f 329 341 342 330
f 330 342 343 331
f 331 343 344 332
f 332 344 345 333
f 333 345 346 334
f 334 346 347 335
f 335 347 348 336
f 336 348 337 325
f 337 349 350 338
f 338 350 351 339
f 339 351 352 340
f 340 352 353 341
f 341 353 354 342
f 342 354 355 343
f 343 355 356 344
f 344 356 357 345
f 345 357 358 346
f 346 358 359 347
f 347 359 360 348
f 348 360 349 337
f 349 361 362 350
f 350 362 363 351
f 351 363 364 352
f 352 364 365 353
f 353 365 366 354
f 354 366 367 355
f 355 367 368 356
f 356 368 369 357
f 357 369 370 358
f 358 370 371 359
f 359 371 372 360
f 360 372 361 349
f 361 373 374 362
f 362 374 375 363
f 363 375 376 364
f 364 376 377 365
f 365 377 378 366
f 366 378 379 367
f 367 379 380 368
f 368 380 381 369
f 369 381 382 370
f 370 382 383 371
f 371 383 384 372
f 372 384 373 361
f 373 385 386 374
f 374 386 387 375
f 375 387 388 376
f 376 388 389 377
f 377 389 390 378
f 378 390 391 379
f 379 391 392 380
f 380 392 393 381
f 381 393 394 382
f 382 394 395 383
f 383 395 396 384
f 384 396 385 373
f 385 397 398 386
f 386 398 399 387
f 387 399 400 388
f 388 400 401 389
f 389 401 402 390
f 390 402 403 391
f 391 403 404 392
f 392 404 405 393
f 393 405 406 394
f 394 406 407 395
f 395 407 408 396
f 396 408 397 385
f 397 409 410 398
f 398 410 411 399
f 399 411 412 400
f 400 412 413 401
f 401 413 414 402
f 402 414 415 403
f 403 415 416 404
f 404 416 417 405
f 405 417 418 406
f 406 418 419 407
f 407 419 420 408
f 408 420 409 397
f 409 421 422 410
f 410 422 423 411
f 411 423 424 412
f 412 424 425 413
f 413 425 426 414
f 414 426 427 415
f 415 427 428 416
f 416 428 429 417
f 417 429 430 418
f 418 430 431 419
f 419 431 432 420
f 420 432 421 409
f 421 433 434 422
f 422 434 435 423
f 423 435 436 424
f 424 436 437 425
f 425 437 438 426
f 426 438 439 427
f 427 439 440 428
f 428 440 441 429
f 429 441 442 430
f 430 442 443 431
f 431 443 444 432
f 432 444 433 421
f 433 445 446 434
f 434 446 447 435
f 435 447 448 436
f 436 448 449 437
f 437 449 450 438
f 438 450 451 439
f 439 451 452 440
f 440 452 453 441
f 441 453 454 442
f 442 454 455 443
f 443 455 456 444
f 444 456 445 433
f 445 457 458 446
f 446 458 459 447
f 447 459 460 448
f 448 460 461 449
f 449 461 462 450
f 450 462 463 451
f 451 463 464 452
f 452 464 465 453
f 453 465 466 454
f 454 466 467 455
f 455 467 468 456
f 456 468 457 445
f 457 469 470 458
f 458 470 471 459
f 459 471 472 460
f 460 472 473 461
f 461 473 474 462
f 462 474 475 463
f 463 475 476 464
f 464 476 477 465
f 465 477 478 466
f 466 478 479 467
f 467 479 480 468
f 468 480 469 457
f 469 481 482 470
f 470 482 483 471
f 471 483 484 472
f 472 484 485 473
f 473 485 486 474
f 474 486 487 475
f 475 487 488 476
f 476 488 489 477
f 477 489 490 478
f 478 490 491 479
f 479 491 492 480
f 480 492 481 469
f 481 493 494 482
f 482 494 495 483
f 483 495 496 484
f 484 496 497 485
f 485 497 498 486
f 486 498 499 487
f 487 499 500 488
f 488 500 501 489
f 489 501 502 490
f 490 502 503 491
f 491 503 504 492
f 492 504 493 481
f 493 505 506 494
f 494 506 507 495
f 495 507 508 496
f 496 508 509 497
f 497 509 510 498
f 498 510 511 499
f 499 511 512 500
f 500 512 513 501
f 501 513 514 502
f 502 514 515 503
f 503 515 516 504
f 504 516 505 493
f 505 517 518 506
f 506 518 519 507
f 507 519 520 508
f 508 520 521 509
f 509 521 522 510
f 510 522 523 511
f 511 523 524 512
f 512 524 525 513
f 513 525 526 514
f 514 526 527 515
f 515 527 528 516
f 516 528 517 505
f 517 529 530 518
f 518 530 531 519
f 519 531 532 520
f 520 532 533 521
f 521 533 534 522
f 522 534 535 523
f 523 535 536 524
f 524 536 537 525
f 525 537 538 526
f 526 538 539 527
f 527 539 540 528
f 528 540 529 517
f 529 541 542 530
f 530 542 543 531
f 531 543 544 532
f 532 544 545 533
f 533 545 546 534
f 534 546 547 535
f 535 547 548 536
f 536 548 549 537
f 537 549 550 538
f 538 550 551 539
f 539 551 552 540
f 540 552 541 529
f 541 553 554 542
f 542 554 555 543
f 543 555 556 544
f 544 556 557 545
f 545 557 558 546
f 546 558 559 547
f 547 559 560 548
f 548 560 561 549
f 549 561 562 550
f 550 562 563 551
f 551 563 564 552
f 552 564 553 541
f 553 565 566 554
f 554 566 567 555
f 555 567 568 556
f 556 568 569 557
f 557 569 570 558
f 558 570 571 559
f 559 571 572 560
f 560 572 573 561
f 561 573 574 562
f 562 574 575 563
f 563 575 576 564
f 564 576 565 553
f 565 1 2 566
f 566 2 3 567
f 567 3 4 568
f 568 4 5 569
f 569 5 6 570
f 570 6 7 571
f 571 7 8 572
f 572 8 9 573
f 573 9 10 574
f 574 10 11 575
f 575 11 12 576
f 576 12 1 565
