# Blender 4.4.3
# www.blender.org
o Suzanne
v 0.854658 0.164062 -4.802863
v 0.246831 0.164062 -4.173441
v 0.841875 0.093750 -4.902092
v 0.147217 0.093750 -4.182753
v 0.795760 0.054688 -5.011789
v 0.035977 0.054688 -4.225012
v 0.688183 -0.023438 -4.844158
v 0.199752 -0.023438 -4.338373
v 0.761241 0.031250 -4.773607
v 0.272810 0.031250 -4.267821
v 0.806200 0.132812 -4.730191
v 0.317768 0.132812 -4.224405
v 0.763170 0.164062 -4.663138
v 0.383278 0.164062 -4.269750
v 0.674987 0.093750 -4.650549
v 0.392783 0.093750 -4.358317
v 0.574987 0.054688 -4.681954
v 0.357907 0.054688 -4.457160
v 0.526337 0.242188 -4.620329
v 0.417797 0.242188 -4.507932
v 0.631571 0.242188 -4.605590
v 0.436199 0.242188 -4.403276
v 0.741461 0.242188 -4.640659
v 0.404986 0.242188 -4.292229
v 0.763170 0.328125 -4.663138
v 0.383278 0.328125 -4.269750
v 0.674987 0.390625 -4.650549
v 0.392783 0.390625 -4.358317
v 0.574987 0.437500 -4.681954
v 0.357907 0.437500 -4.457160
v 0.688183 0.515625 -4.844158
v 0.199752 0.515625 -4.338373
v 0.761241 0.453125 -4.773607
v 0.272810 0.453125 -4.267821
v 0.806200 0.359375 -4.730191
v 0.317768 0.359375 -4.224405
v 0.854658 0.328125 -4.802863
v 0.246831 0.328125 -4.173441
v 0.841875 0.390625 -4.902092
v 0.147217 0.390625 -4.182753
v 0.795760 0.437500 -5.011789
v 0.035977 0.437500 -4.225012
v 0.838790 0.242188 -5.078842
v -0.029533 0.242188 -4.179667
v 0.874052 0.242188 -4.957905
v 0.092561 0.242188 -4.148648
v 0.870746 0.242188 -4.830770
v 0.219504 0.242188 -4.156389
v 0.887412 0.242188 -4.825535
v 0.225316 0.242188 -4.139915
v 0.871324 0.335938 -4.797629
v 0.252644 0.335938 -4.156967
v 0.823060 0.375000 -4.713910
v 0.334628 0.375000 -4.208124
v 0.774602 0.335938 -4.641238
v 0.405565 0.335938 -4.259089
v 0.747467 0.242188 -4.613138
v 0.432700 0.242188 -4.287188
v 0.774602 0.156250 -4.641238
v 0.405565 0.156250 -4.259089
v 0.839919 0.242188 -4.697629
v 0.351487 0.242188 -4.191843
v 0.823060 0.117188 -4.713910
v 0.334628 0.117188 -4.208124
v 0.871324 0.156250 -4.797629
v 0.252644 0.156250 -4.156967
v 0.533885 0.429688 -4.504433
v 0.590083 0.351562 -4.450163
v 0.528265 -0.679688 -4.509860
v 0.561984 -0.320312 -4.477298
v 0.573224 -0.187500 -4.466444
v 0.517025 -0.773438 -4.520714
v 0.432728 0.406250 -4.602119
v 0.410248 0.570312 -4.623827
v -0.393389 0.898438 -5.399891
v -0.612563 0.562500 -5.611545
v -0.595703 0.070312 -5.595264
v -0.252893 -0.382812 -5.264216
v 0.545731 -0.187500 -4.775371
v 0.263526 -0.187500 -4.483139
v 0.627329 -0.437500 -4.848621
v 0.193168 -0.437500 -4.399034
v 0.654464 -0.695312 -4.876720
v 0.166033 -0.695312 -4.370934
v 0.637219 -0.890625 -4.915095
v 0.127079 -0.890625 -4.386830
v 0.604464 -0.945312 -4.892423
v 0.148595 -0.945312 -4.420356
v 0.523830 -0.968750 -4.763938
v 0.274187 -0.968750 -4.505425
v 0.415868 -0.984375 -4.618401
v 0.686062 -0.140625 -4.965674
v 0.078236 -0.140625 -4.336252
v 0.827358 -0.039062 -5.100743
v -0.051819 -0.039062 -4.190329
v 0.895595 0.148438 -5.306363
v -0.254933 0.148438 -4.114957
v 1.024080 0.429688 -5.225729
v -0.169864 0.429688 -3.989364
v 0.943446 0.484375 -5.097244
v -0.044271 0.484375 -4.074433
v 0.836448 0.601562 -4.896472
v 0.152644 0.601562 -4.188372
v 0.750773 0.757812 -4.740274
v 0.305757 0.757812 -4.279447
v 0.653665 0.718750 -4.605976
v 0.436584 0.718750 -4.381182
v 0.582921 0.492188 -4.543965
v 0.496089 0.492188 -4.454047
v 0.670332 0.414062 -4.600742
v 0.442397 0.414062 -4.364708
v 0.637577 0.304688 -4.578070
v 0.463912 0.304688 -4.398235
v 0.674987 0.093750 -4.650549
v 0.392783 0.093750 -4.358317
v 0.766283 0.015625 -4.801321
v 0.245289 0.015625 -4.261816
v 0.825209 0.062500 -4.907326
v 0.141404 0.062500 -4.199226
v 0.900608 0.187500 -5.019145
v 0.032285 0.187500 -4.119970
v 0.911462 0.296875 -5.030385
v 0.021431 0.296875 -4.108730
v 0.895567 0.375000 -4.991431
v 0.059806 0.375000 -4.125976
v 0.815511 0.437500 -4.829805
v 0.218539 0.437500 -4.211623
v 0.718789 0.468750 -4.673414
v 0.371460 0.468750 -4.313744
v 0.528265 -0.765625 -4.509860
v 0.604243 -0.718750 -4.588538
v 0.452287 -0.718750 -4.431182
v 0.592811 -0.835938 -4.610439
v 0.430000 -0.835938 -4.441844
v 0.543582 -0.882812 -4.581954
v 0.456750 -0.882812 -4.492037
v 0.494546 -0.890625 -4.542422
v 0.539505 -0.195312 -4.499006
v 0.533885 -0.140625 -4.504433
v 0.604436 -0.148438 -4.577491
v 0.463334 -0.148438 -4.431376
v 0.626337 -0.226562 -4.588923
v 0.452673 -0.226562 -4.409089
v 0.593582 -0.289062 -4.566251
v 0.474188 -0.289062 -4.442615
v 0.760084 -0.046875 -4.839888
v 0.206528 -0.046875 -4.266665
v 0.878322 0.054688 -5.029806
v 0.020853 0.054688 -4.141871
v 0.937441 0.203125 -5.124765
v -0.071985 0.203125 -4.079474
v 0.987633 0.375000 -5.098015
v -0.043500 0.375000 -4.030245
v 1.000223 0.414062 -5.009833
v 0.045068 0.414062 -4.020741
v 0.877137 0.546875 -4.781155
v 0.269311 0.546875 -4.151733
v 0.818404 0.640625 -4.664103
v 0.384242 0.640625 -4.214515
v 0.753665 0.617188 -4.574571
v 0.471460 0.617188 -4.282339
v 0.677494 0.429688 -4.506940
v 0.536392 0.429688 -4.360824
v 0.671296 -0.101562 -4.545507
v 0.497631 -0.101562 -4.365673
v 0.657935 -0.445312 -4.677877
v 0.364876 -0.445312 -4.374405
v 0.668211 -0.703125 -4.722257
v 0.320882 -0.703125 -4.362587
v 0.662205 -0.820312 -4.749778
v 0.293168 -0.820312 -4.367629
v 0.618018 -0.914062 -4.749007
v 0.292397 -0.914062 -4.411816
v 0.569175 -0.929688 -4.698428
v 0.341240 -0.929688 -4.462395
v 0.460827 -0.945312 -4.574985
v 0.522645 0.046875 -4.515287
v 0.550745 0.210938 -4.488152
v 0.761820 0.476562 -4.740467
v 0.305950 0.476562 -4.268400
v 0.653472 0.140625 -4.617023
v 0.425537 0.140625 -4.380990
v 0.637384 0.210938 -4.589117
v 0.452865 0.210938 -4.398042
v 0.609670 -0.687500 -4.594158
v 0.446860 -0.687500 -4.425562
v 0.593775 -0.445312 -4.555204
v 0.485235 -0.445312 -4.442808
v 0.539505 -0.445312 -4.499006
v 0.533885 -0.328125 -4.504433
v 0.627108 -0.273438 -4.544736
v 0.496860 -0.273438 -4.409860
v 0.665483 -0.226562 -4.561981
v 0.480965 -0.226562 -4.370907
v 0.637962 -0.132812 -4.555976
v 0.486006 -0.132812 -4.398620
v 0.589119 -0.125000 -4.505397
v 0.534849 -0.125000 -4.449199
v 0.595703 -0.203125 -4.444736
v 0.617026 -0.148438 -4.489309
v 0.551901 -0.148438 -4.421871
v 0.649588 -0.156250 -4.523028
v 0.519339 -0.156250 -4.388152
v 0.671682 -0.226562 -4.523414
v 0.519725 -0.226562 -4.366058
v 0.633114 -0.250000 -4.517216
v 0.524574 -0.250000 -4.404819
v 0.578844 -0.289062 -4.461017
v 0.578100 -0.312500 -4.820137
v 0.219917 -0.312500 -4.449227
v 0.625373 -0.242188 -4.644158
v 0.397438 -0.242188 -4.408124
v 0.636227 -0.312500 -4.655397
v 0.386584 -0.312500 -4.396885
v 0.561819 -0.250000 -4.803277
v 0.236198 -0.250000 -4.466086
v 0.494546 -0.875000 -4.542422
v 0.527108 -0.867188 -4.576141
v 0.461984 -0.867188 -4.508703
v 0.576530 -0.820312 -4.593579
v 0.446281 -0.820312 -4.458703
v 0.587770 -0.742188 -4.582726
v 0.457521 -0.742188 -4.447849
v 0.472067 -0.781250 -4.564130
v 0.542811 -0.750000 -4.626142
v 0.412562 -0.750000 -4.491265
v 0.525951 -0.812500 -4.642423
v 0.395703 -0.812500 -4.507546
v 0.487769 -0.851562 -4.614130
v 0.422645 -0.851562 -4.546692
v 0.455207 -0.859375 -4.580411
v 0.681379 0.218750 -4.600935
v 0.442590 0.218750 -4.353662
v 0.686613 0.156250 -4.617601
v 0.426116 0.156250 -4.347849
v 0.778486 0.429688 -4.735232
v 0.311763 0.429688 -4.251926
v 0.746310 0.421875 -4.679420
v 0.366419 0.421875 -4.286031
v 0.849423 0.398438 -4.786197
v 0.263305 0.398438 -4.179254
v 0.890911 0.351562 -4.941624
v 0.109421 0.351562 -4.132367
v 0.901573 0.289062 -4.963911
v 0.087520 0.289062 -4.120934
v 0.890526 0.195312 -4.963717
v 0.087327 0.195312 -4.131981
v 0.848074 0.101562 -4.863524
v 0.185977 0.101562 -4.177904
v 0.794382 0.062500 -4.774186
v 0.273388 0.062500 -4.234681
v 0.719368 0.109375 -4.640274
v 0.404601 0.109375 -4.314322
v 0.686806 0.296875 -4.606555
v 0.437163 0.296875 -4.348042
v 0.708514 0.375000 -4.629034
v 0.415455 0.375000 -4.325562
v 0.707935 0.359375 -4.662174
v 0.382314 0.359375 -4.324984
v 0.680800 0.296875 -4.634075
v 0.409449 0.296875 -4.353083
v 0.713362 0.125000 -4.667794
v 0.376887 0.125000 -4.319364
v 0.783142 0.085938 -4.785039
v 0.262148 0.085938 -4.245535
v 0.825980 0.117188 -4.863139
v 0.185592 0.117188 -4.199997
v 0.863198 0.210938 -4.946665
v 0.103415 0.210938 -4.159887
v 0.868625 0.281250 -4.952285
v 0.097988 0.281250 -4.154267
v 0.857964 0.335938 -4.929998
v 0.119889 0.335938 -4.165700
v 0.827137 0.390625 -4.796858
v 0.251873 0.390625 -4.201155
v 0.746117 0.398438 -4.690466
v 0.355372 0.398438 -4.285838
v 0.772867 0.406250 -4.740659
v 0.306143 0.406250 -4.257353
v 0.680607 0.171875 -4.645122
v 0.398402 0.171875 -4.352890
v 0.675180 0.226562 -4.639502
v 0.403829 0.226562 -4.358510
v 0.514326 0.460938 -4.675370
v 0.362369 0.460938 -4.518015
v 0.579643 0.664062 -4.731761
v 0.308292 0.664062 -4.450769
v 0.660470 0.687500 -4.849200
v 0.193746 0.687500 -4.365893
v 0.735484 0.554688 -4.983112
v 0.062534 0.554688 -4.286252
v 0.826201 0.453125 -5.167024
v -0.118101 0.453125 -4.189172
v 0.885127 0.406250 -5.273030
v -0.221985 0.406250 -4.126582
v 0.807027 0.164062 -5.315867
v -0.267522 0.164062 -4.203139
v 0.715732 0.000000 -5.165096
v -0.120029 0.000000 -4.299640
v 0.641104 -0.093750 -5.009090
v 0.033277 -0.093750 -4.379668
v 0.207934 0.898438 -4.819201
v -0.056198 0.984375 -5.074270
v -0.483306 -0.195312 -5.486723
v 0.134876 -0.460938 -4.889751
v 0.331571 -0.976562 -4.699806
v 0.247273 -0.804688 -4.781211
v 0.230414 -0.570312 -4.797492
v 0.202314 -0.484375 -4.824627
v 0.630884 0.234375 -5.594573
v -0.552206 0.234375 -4.369448
v 0.563253 0.320312 -5.670745
v -0.630691 0.320312 -4.434380
v 0.222564 0.265625 -5.880278
v -0.851986 0.265625 -4.767549
v -0.185592 0.437500 -5.840003
v -0.825980 0.437500 -5.176861
v 0.560718 -0.046875 -5.499422
v -0.459561 -0.046875 -4.442892
v 0.294437 -0.125000 -5.561075
v -0.530470 -0.125000 -4.706860
v 0.135924 -0.007812 -5.779313
v -0.754107 -0.007812 -4.857659
v -0.244325 0.054688 -5.722950
v -0.711048 0.054688 -5.239644
v 0.455042 -0.351562 -4.906390
v 0.129421 -0.351562 -4.569200
v 0.310276 -0.414062 -4.970165
v 0.060633 -0.414062 -4.711652
v 0.476172 -0.710938 -4.962010
v 0.074573 -0.710938 -4.546142
v 0.454657 -0.500000 -4.928484
v 0.107327 -0.500000 -4.568814
v 0.514547 -0.914062 -4.979255
v 0.058677 -0.914062 -4.507189
v 0.361819 -0.757812 -4.866087
v 0.166446 -0.757812 -4.663773
v 0.345345 -0.539062 -4.860275
v 0.171680 -0.539062 -4.680439
v 0.428679 -0.945312 -4.834104
v 0.200744 -0.945312 -4.598070
v 0.461048 -0.281250 -4.878870
v 0.157135 -0.281250 -4.564158
v 0.483720 -0.226562 -4.846115
v 0.190661 -0.226562 -4.542643
v 0.500772 -0.171875 -4.818787
v 0.218567 -0.171875 -4.526555
v 0.264546 -0.390625 -5.057768
v -0.028513 -0.390625 -4.754297
v 0.015152 -0.312500 -5.418073
v -0.397301 -0.312500 -4.990964
v -0.148980 -0.148438 -5.641737
v -0.626558 -0.148438 -5.147191
v 0.039395 0.867188 -5.611875
v -0.590139 0.867188 -4.959973
v 0.264189 0.929688 -5.394794
v -0.365346 0.929688 -4.742892
v 0.483362 0.851562 -5.183140
v -0.146172 0.851562 -4.531239
v 0.629285 0.523438 -5.053085
v -0.011103 0.523438 -4.389943
v 0.746366 0.406250 -5.309283
v -0.263060 0.406250 -4.263993
v 0.641903 0.453125 -5.279835
v -0.237274 0.453125 -4.369420
v 0.484354 0.703125 -5.442838
v -0.405677 0.703125 -4.521184
v 0.643473 0.562500 -5.506392
v -0.463638 0.562500 -4.359944
v 0.469258 0.617188 -5.674629
v -0.637854 0.617188 -4.528182
v 0.304520 0.750000 -5.616503
v -0.585512 0.750000 -4.694849
v 0.124685 0.679688 -5.790167
v -0.765347 0.679688 -4.868513
v 0.295043 0.539062 -5.842867
v -0.812069 0.539062 -4.696419
v 0.007246 0.328125 -5.870994
v -0.850223 0.328125 -4.983059
v -0.056914 0.023438 -5.748322
v -0.729864 0.023438 -5.051461
v 0.423721 0.328125 -5.751186
v -0.715953 0.328125 -4.571019
v 0.388982 -0.171875 -5.209118
v -0.175428 -0.171875 -4.624655
v 0.146750 -0.195312 -5.475621
v -0.450222 -0.195312 -4.857438
v 0.450085 0.406250 -5.823472
v -0.787275 0.406250 -4.542149
v 0.447357 -0.140625 -5.663197
v -0.627192 -0.140625 -4.550468
v 0.485760 -0.101562 -5.995374
v -0.957827 -0.101562 -4.500496
v 0.580940 0.054688 -6.240140
v -1.199122 0.054688 -4.396832
v 0.635403 0.320312 -6.285292
v -1.242346 0.320312 -4.340826
v 0.553998 0.507812 -6.200994
v -1.160940 0.507812 -4.425124
v 0.486146 0.476562 -5.973280
v -0.935733 0.476562 -4.500881
v 0.497578 0.414062 -5.951379
v -0.913447 0.414062 -4.490220
v 0.543915 0.437500 -6.145567
v -1.105899 0.437500 -4.437135
v 0.586945 0.289062 -6.212619
v -1.171409 0.289062 -4.391790
v 0.548956 0.078125 -6.173281
v -1.133420 0.078125 -4.431129
v 0.497193 -0.039062 -5.973473
v -0.935540 -0.039062 -4.489835
v 0.479727 -0.070312 -5.707963
v -0.670801 -0.070312 -4.516556
v 0.483033 0.359375 -5.835098
v -0.797744 0.359375 -4.508815
v 0.448735 0.304688 -5.900801
v -0.864603 0.304688 -4.540799
v 0.461517 -0.023438 -5.801572
v -0.764989 -0.023438 -4.531487
v 0.457661 0.000000 -6.022509
v -0.985926 0.000000 -4.527631
v 0.504576 0.093750 -6.183556
v -1.145238 0.093750 -4.475124
v 0.537138 0.250000 -6.217275
v -1.177800 0.250000 -4.441405
v 0.499342 0.359375 -6.166889
v -1.128764 0.359375 -4.480937
v 0.452427 0.343750 -6.005842
v -0.969452 0.343750 -4.533443
v 0.434382 0.289062 -5.773472
v -0.737854 0.289062 -4.559587
v 0.383996 0.171875 -5.811269
v -0.777385 0.171875 -4.608623
v 0.329726 0.093750 -5.755070
v -0.723115 0.093750 -4.664821
v 0.373142 0.085938 -5.800029
v -0.766531 0.085938 -4.619862
v 0.389424 0.015625 -5.816889
v -0.782813 0.015625 -4.603003
v 0.367715 -0.015625 -5.794409
v -0.761104 -0.015625 -4.625482
v 0.454134 0.000000 -5.591488
v -0.555291 0.000000 -4.546198
v 0.375649 -0.023438 -5.656420
v -0.622922 -0.023438 -4.622369
v 0.364410 0.039062 -5.667274
v -0.634162 0.039062 -4.633223
v 0.401820 0.203125 -5.739753
v -0.705292 0.203125 -4.593306
v 0.427606 0.242188 -5.845181
v -0.809755 0.242188 -4.563857
v 0.388267 0.234375 -5.883170
v -0.849094 0.234375 -4.601846
v 0.333996 -0.015625 -5.826972
v -0.794824 -0.015625 -4.658044
v 0.361132 0.015625 -5.855071
v -0.821959 0.015625 -4.629945
v 0.344850 0.078125 -5.838211
v -0.805678 0.078125 -4.646804
v 0.301434 0.093750 -5.793252
v -0.762261 0.093750 -4.691763
v 0.355705 0.171875 -5.849451
v -0.816532 0.171875 -4.635565
v 0.423942 0.328125 -6.055071
v -1.019645 0.328125 -4.560193
v 0.476477 0.343750 -6.210691
v -1.173337 0.343750 -4.502259
v 0.519700 0.242188 -6.266697
v -1.227800 0.242188 -4.457108
v 0.492758 0.085938 -6.227551
v -1.189618 0.085938 -4.485400
v 0.423749 0.000000 -6.066118
v -1.030692 0.000000 -4.560000
v 0.422179 -0.015625 -5.839561
v -0.804328 -0.015625 -4.569477
v 0.414823 0.289062 -5.944409
v -0.909369 0.289062 -4.573168
v 0.382647 0.109375 -5.888597
v -0.854713 0.109375 -4.607273
v 0.409589 0.062500 -5.927743
v -0.892895 0.062500 -4.578981
v 0.430526 0.125000 -5.994410
v -0.958791 0.125000 -4.555730
v 0.414630 0.171875 -5.955456
v -0.920416 0.171875 -4.572975
v 0.435760 0.234375 -6.011076
v -0.975265 0.234375 -4.549917
v 0.457275 0.187500 -6.044602
v -1.008020 0.187500 -4.527245
v 0.489645 0.210938 -6.089368
v -1.051629 0.210938 -4.493333
v 0.473364 0.273438 -6.072509
v -1.035348 0.273438 -4.510193
v 0.362509 0.437500 -6.092674
v -1.059370 0.437500 -4.620276
v 0.474934 0.468750 -6.299066
v -1.261712 0.468750 -4.500717
v 0.590058 0.296875 -6.350801
v -1.309398 0.296875 -4.383857
v 0.529590 0.054688 -6.333171
v -1.293888 0.054688 -4.444904
v 0.367743 -0.085938 -6.109341
v -1.075844 -0.085938 -4.614463
v 0.312096 -0.125000 -5.815539
v -0.784162 -0.125000 -4.680331
v 0.321600 0.382812 -5.904107
v -0.872344 0.382812 -4.667741
s 0
f 47 1 3 45
f 4 2 48 46
f 45 3 5 43
f 6 4 46 44
f 3 9 7 5
f 8 10 4 6
f 1 11 9 3
f 10 12 2 4
f 11 13 15 9
f 16 14 12 10
f 9 15 17 7
f 18 16 10 8
f 15 21 19 17
f 20 22 16 18
f 13 23 21 15
f 22 24 14 16
f 23 25 27 21
f 28 26 24 22
f 21 27 29 19
f 30 28 22 20
f 27 33 31 29
f 32 34 28 30
f 25 35 33 27
f 34 36 26 28
f 35 37 39 33
f 40 38 36 34
f 33 39 41 31
f 42 40 34 32
f 39 45 43 41
f 44 46 40 42
f 37 47 45 39
f 46 48 38 40
f 47 37 51 49
f 52 38 48 50
f 37 35 53 51
f 54 36 38 52
f 35 25 55 53
f 56 26 36 54
f 25 23 57 55
f 58 24 26 56
f 23 13 59 57
f 60 14 24 58
f 13 11 63 59
f 64 12 14 60
f 11 1 65 63
f 66 2 12 64
f 1 47 49 65
f 50 48 2 66
f 61 65 49
f 50 66 62
f 63 65 61
f 62 66 64
f 61 59 63
f 64 60 62
f 61 57 59
f 60 58 62
f 61 55 57
f 58 56 62
f 61 53 55
f 56 54 62
f 61 51 53
f 54 52 62
f 61 49 51
f 52 50 62
f 89 174 176 91
f 176 175 90 91
f 87 172 174 89
f 175 173 88 90
f 85 170 172 87
f 173 171 86 88
f 83 168 170 85
f 171 169 84 86
f 81 166 168 83
f 169 167 82 84
f 79 92 146 164
f 147 93 80 165
f 92 94 148 146
f 149 95 93 147
f 94 96 150 148
f 151 97 95 149
f 96 98 152 150
f 153 99 97 151
f 98 100 154 152
f 155 101 99 153
f 100 102 156 154
f 157 103 101 155
f 102 104 158 156
f 159 105 103 157
f 104 106 160 158
f 161 107 105 159
f 106 108 162 160
f 163 109 107 161
f 108 67 68 162
f 68 67 109 163
f 110 128 160 162
f 161 129 111 163
f 128 179 158 160
f 159 180 129 161
f 126 156 158 179
f 159 157 127 180
f 124 154 156 126
f 157 155 125 127
f 122 152 154 124
f 155 153 123 125
f 120 150 152 122
f 153 151 121 123
f 118 148 150 120
f 151 149 119 121
f 116 146 148 118
f 149 147 117 119
f 114 164 146 116
f 147 165 115 117
f 114 181 177 164
f 177 182 115 165
f 110 162 68 112
f 68 163 111 113
f 112 68 178 183
f 178 68 113 184
f 177 181 183 178
f 184 182 177 178
f 135 137 176 174
f 176 137 136 175
f 133 135 174 172
f 175 136 134 173
f 131 133 172 170
f 173 134 132 171
f 166 187 185 168
f 186 188 167 169
f 131 170 168 185
f 169 171 132 186
f 144 190 189 187
f 189 190 145 188
f 185 187 189 69
f 189 188 186 69
f 130 131 185 69
f 186 132 130 69
f 142 193 191 144
f 192 194 143 145
f 140 195 193 142
f 194 196 141 143
f 139 197 195 140
f 196 198 139 141
f 138 71 197 139
f 198 71 138 139
f 190 144 191 70
f 192 145 190 70
f 70 191 206 208
f 207 192 70 208
f 71 199 200 197
f 201 199 71 198
f 197 200 202 195
f 203 201 198 196
f 195 202 204 193
f 205 203 196 194
f 193 204 206 191
f 207 205 194 192
f 199 204 202 200
f 203 205 199 201
f 199 208 206 204
f 207 208 199 205
f 139 140 164 177
f 165 141 139 177
f 140 142 211 164
f 212 143 141 165
f 142 144 213 211
f 214 145 143 212
f 144 187 166 213
f 167 188 145 214
f 81 209 213 166
f 214 210 82 167
f 209 215 211 213
f 212 216 210 214
f 79 164 211 215
f 212 165 80 216
f 131 130 72 222
f 72 130 132 223
f 133 131 222 220
f 223 132 134 221
f 135 133 220 218
f 221 134 136 219
f 137 135 218 217
f 219 136 137 217
f 217 218 229 231
f 230 219 217 231
f 218 220 227 229
f 228 221 219 230
f 220 222 225 227
f 226 223 221 228
f 222 72 224 225
f 224 72 223 226
f 224 231 229 225
f 230 231 224 226
f 225 229 227
f 228 230 226
f 183 181 234 232
f 235 182 184 233
f 112 183 232 254
f 233 184 113 255
f 110 112 254 256
f 255 113 111 257
f 181 114 252 234
f 253 115 182 235
f 114 116 250 252
f 251 117 115 253
f 116 118 248 250
f 249 119 117 251
f 118 120 246 248
f 247 121 119 249
f 120 122 244 246
f 245 123 121 247
f 122 124 242 244
f 243 125 123 245
f 124 126 240 242
f 241 127 125 243
f 126 179 236 240
f 237 180 127 241
f 179 128 238 236
f 239 129 180 237
f 128 110 256 238
f 257 111 129 239
f 238 256 258 276
f 259 257 239 277
f 236 238 276 278
f 277 239 237 279
f 240 236 278 274
f 279 237 241 275
f 242 240 274 272
f 275 241 243 273
f 244 242 272 270
f 273 243 245 271
f 246 244 270 268
f 271 245 247 269
f 248 246 268 266
f 269 247 249 267
f 250 248 266 264
f 267 249 251 265
f 252 250 264 262
f 265 251 253 263
f 234 252 262 280
f 263 253 235 281
f 256 254 260 258
f 261 255 257 259
f 254 232 282 260
f 283 233 255 261
f 232 234 280 282
f 281 235 233 283
f 67 108 284 73
f 285 109 67 73
f 108 106 286 284
f 287 107 109 285
f 106 104 288 286
f 289 105 107 287
f 104 102 290 288
f 291 103 105 289
f 102 100 292 290
f 293 101 103 291
f 100 98 294 292
f 295 99 101 293
f 98 96 296 294
f 297 97 99 295
f 96 94 298 296
f 299 95 97 297
f 94 92 300 298
f 301 93 95 299
f 308 309 328 338
f 329 309 308 339
f 307 308 338 336
f 339 308 307 337
f 306 307 336 340
f 337 307 306 341
f 89 91 306 340
f 306 91 90 341
f 87 89 340 334
f 341 90 88 335
f 85 87 334 330
f 335 88 86 331
f 83 85 330 332
f 331 86 84 333
f 330 336 338 332
f 339 337 331 333
f 330 334 340 336
f 341 335 331 337
f 326 332 338 328
f 339 333 327 329
f 81 83 332 326
f 333 84 82 327
f 209 342 344 215
f 345 343 210 216
f 81 326 342 209
f 343 327 82 210
f 79 215 344 346
f 345 216 80 347
f 79 346 300 92
f 301 347 80 93
f 77 324 352 304
f 353 325 77 304
f 304 352 350 78
f 351 353 304 78
f 78 350 348 305
f 349 351 78 305
f 305 348 328 309
f 329 349 305 309
f 326 328 348 342
f 349 329 327 343
f 296 298 318 310
f 319 299 297 311
f 76 316 324 77
f 325 317 76 77
f 302 358 356 303
f 357 359 302 303
f 303 356 354 75
f 355 357 303 75
f 75 354 316 76
f 317 355 75 76
f 292 294 362 364
f 363 295 293 365
f 364 362 368 366
f 369 363 365 367
f 366 368 370 372
f 371 369 367 373
f 372 370 376 374
f 377 371 373 375
f 314 378 374 376
f 375 379 315 377
f 316 354 374 378
f 375 355 317 379
f 354 356 372 374
f 373 357 355 375
f 356 358 366 372
f 367 359 357 373
f 358 360 364 366
f 365 361 359 367
f 290 292 364 360
f 365 293 291 361
f 74 360 358 302
f 359 361 74 302
f 284 286 288 290
f 289 287 285 291
f 284 290 360 74
f 361 291 285 74
f 73 284 74
f 74 285 73
f 294 296 310 362
f 311 297 295 363
f 310 312 368 362
f 369 313 311 363
f 312 382 370 368
f 371 383 313 369
f 314 376 370 382
f 371 377 315 383
f 348 350 386 384
f 387 351 349 385
f 318 384 386 320
f 387 385 319 321
f 298 300 384 318
f 385 301 299 319
f 300 344 342 384
f 343 345 301 385
f 342 348 384
f 385 349 343
f 300 346 344
f 345 347 301
f 314 322 380 378
f 381 323 315 379
f 316 378 380 324
f 381 379 317 325
f 320 386 380 322
f 381 387 321 323
f 350 352 380 386
f 381 353 351 387
f 324 380 352
f 353 381 325
f 400 388 414 402
f 415 389 401 403
f 400 402 404 398
f 405 403 401 399
f 398 404 406 396
f 407 405 399 397
f 396 406 408 394
f 409 407 397 395
f 394 408 410 392
f 411 409 395 393
f 392 410 412 390
f 413 411 393 391
f 410 420 418 412
f 419 421 411 413
f 408 422 420 410
f 421 423 409 411
f 406 424 422 408
f 423 425 407 409
f 404 426 424 406
f 425 427 405 407
f 402 428 426 404
f 427 429 403 405
f 402 414 416 428
f 417 415 403 429
f 318 320 444 442
f 445 321 319 443
f 320 390 412 444
f 413 391 321 445
f 310 318 442 312
f 443 319 311 313
f 382 430 414 388
f 415 431 383 389
f 412 418 440 444
f 441 419 413 445
f 438 446 444 440
f 445 447 439 441
f 434 446 438 436
f 439 447 435 437
f 432 448 446 434
f 447 449 433 435
f 430 448 432 450
f 433 449 431 451
f 414 430 450 416
f 451 431 415 417
f 312 448 430 382
f 431 449 313 383
f 312 442 446 448
f 447 443 313 449
f 442 444 446
f 447 445 443
f 416 450 452 476
f 453 451 417 477
f 450 432 462 452
f 463 433 451 453
f 432 434 460 462
f 461 435 433 463
f 434 436 458 460
f 459 437 435 461
f 436 438 456 458
f 457 439 437 459
f 438 440 454 456
f 455 441 439 457
f 440 418 474 454
f 475 419 441 455
f 428 416 476 464
f 477 417 429 465
f 426 428 464 466
f 465 429 427 467
f 424 426 466 468
f 467 427 425 469
f 422 424 468 470
f 469 425 423 471
f 420 422 470 472
f 471 423 421 473
f 418 420 472 474
f 473 421 419 475
f 458 456 480 478
f 481 457 459 479
f 478 480 482 484
f 483 481 479 485
f 484 482 488 486
f 489 483 485 487
f 486 488 490 492
f 491 489 487 493
f 464 476 486 492
f 487 477 465 493
f 452 484 486 476
f 487 485 453 477
f 452 462 478 484
f 479 463 453 485
f 458 478 462 460
f 463 479 459 461
f 454 474 480 456
f 481 475 455 457
f 472 482 480 474
f 481 483 473 475
f 470 488 482 472
f 483 489 471 473
f 468 490 488 470
f 489 491 469 471
f 466 492 490 468
f 491 493 467 469
f 464 492 466
f 467 493 465
f 392 390 504 502
f 505 391 393 503
f 394 392 502 500
f 503 393 395 501
f 396 394 500 498
f 501 395 397 499
f 398 396 498 496
f 499 397 399 497
f 400 398 496 494
f 497 399 401 495
f 388 400 494 506
f 495 401 389 507
f 494 502 504 506
f 505 503 495 507
f 494 496 500 502
f 501 497 495 503
f 496 498 500
f 501 499 497
f 314 382 388 506
f 389 383 315 507
f 314 506 504 322
f 505 507 315 323
f 320 322 504 390
f 505 323 321 391
