# Blender 4.5.2 LTS
# www.blender.org
mtllib condensed_milk.mtl
o condensed_milk.ogf_00
v 0.024678 0.107160 0.045848
v 0.011971 0.107160 0.050673
v 0.024678 0.103982 0.045848
v -0.042954 0.002603 0.023121
v -0.035506 0.002603 0.033450
v -0.044244 0.000349 0.023815
v -0.011552 0.000349 -0.048900
v -0.011216 0.002603 -0.047475
v -0.023815 0.000349 -0.044244
v 0.050224 0.000349 0.001498
v 0.048760 0.002603 0.001454
v 0.048900 0.000349 -0.011552
v -0.025639 0.002603 0.041500
v -0.036573 0.000349 0.034455
v -0.023121 0.002603 -0.042954
v 0.047475 0.002603 -0.011216
v 0.044244 0.000349 -0.023815
v -0.014024 0.002603 0.046722
v -0.026409 0.000349 0.042747
v -0.033450 0.002603 -0.035506
v 0.042954 0.002603 -0.023121
v 0.036573 0.000349 -0.034455
v -0.041500 0.002603 -0.025639
v 0.035506 0.002603 -0.033450
v -0.001498 0.000349 0.050224
v -0.001454 0.002603 0.048760
v 0.011552 0.000349 0.048900
v 0.023121 0.002603 0.042954
v -0.048760 0.002603 -0.001454
v 0.014024 0.002603 -0.046722
v 0.011216 0.002603 0.047475
v 0.023815 0.000349 0.044244
v 0.033450 0.002603 0.035506
v -0.047475 0.002603 0.011216
v -0.050224 0.000349 -0.001498
v 0.001454 0.002603 -0.048760
v 0.014445 0.000349 -0.048125
v 0.046722 0.002603 0.014024
v -0.048900 0.000349 0.011552
v 0.001498 0.000349 -0.050224
v 0.041500 0.002603 0.025639
v 0.025639 0.002603 -0.041500
v -0.046722 0.002603 -0.014024
v 0.034455 0.000349 0.036573
v 0.035704 0.000349 0.037898
v 0.042747 0.000349 0.026409
v 0.044296 0.000349 0.027366
v 0.048125 0.000349 0.014445
v 0.049869 0.000349 0.014969
v 0.052044 0.000349 0.001552
v 0.050673 0.000349 -0.011971
v 0.045848 0.000349 -0.024678
v 0.026409 0.000349 -0.042747
v 0.027366 0.000349 -0.044296
v 0.014969 0.000349 -0.049869
v 0.001552 0.000349 -0.052044
v -0.011971 0.000349 -0.050673
v -0.034455 0.000349 -0.036573
v -0.035704 0.000349 -0.037898
v -0.042747 0.000349 -0.026409
v -0.044296 0.000349 -0.027366
v -0.048125 0.000349 -0.014445
v -0.049869 0.000349 -0.014969
v -0.052044 0.000349 -0.001552
v -0.045848 0.000349 0.024678
v -0.037898 0.000349 0.035704
v -0.027366 0.000349 0.044296
v -0.014446 0.000349 0.048125
v -0.014969 0.000349 0.049869
v -0.001552 0.000349 0.052044
v 0.011971 0.000349 0.050673
v -0.050673 0.000349 0.011971
v -0.024678 0.000349 -0.045848
v 0.037898 0.000349 -0.035704
v 0.024678 0.000349 0.045848
v -0.033619 0.105056 -0.035686
v -0.034419 0.107160 -0.036535
v -0.041710 0.105056 -0.025769
v 0.034419 0.107160 0.036535
v -0.048075 0.107160 -0.014430
v 0.042702 0.107160 0.026381
v 0.033619 0.105056 0.035686
v -0.049006 0.105056 -0.001461
v 0.048075 0.107160 0.014430
v 0.041710 0.105056 0.025769
v -0.048849 0.107160 0.011540
v 0.049006 0.105056 0.001461
v -0.043171 0.105056 0.023238
v 0.050172 0.107160 0.001496
v 0.047715 0.105056 -0.011272
v 0.023790 0.107160 0.044198
v 0.035704 0.107160 0.037898
v 0.044296 0.107160 0.027366
v 0.049869 0.107160 0.014969
v 0.052044 0.107160 0.001552
v 0.048849 0.107160 -0.011540
v 0.050673 0.107160 -0.011971
v 0.044198 0.107160 -0.023790
v 0.045848 0.107160 -0.024678
v 0.036535 0.107160 -0.034419
v 0.037898 0.107160 -0.035704
v 0.026381 0.107160 -0.042702
v 0.014969 0.107160 -0.049869
v 0.001552 0.107160 -0.052044
v 0.014430 0.107160 -0.048075
v 0.001496 0.107160 -0.050172
v -0.011540 0.107160 -0.048849
v -0.011971 0.107160 -0.050673
v -0.023790 0.107160 -0.044198
v -0.035704 0.107160 -0.037898
v -0.042702 0.107160 -0.026381
v -0.044296 0.107160 -0.027366
v -0.052044 0.107160 -0.001552
v -0.050673 0.107160 0.011971
v -0.050172 0.107160 -0.001496
v -0.044198 0.107160 0.023790
v -0.045848 0.107160 0.024678
v -0.036535 0.107160 0.034419
v -0.037898 0.107160 0.035704
v -0.026381 0.107160 0.042702
v -0.027366 0.107160 0.044296
v -0.014430 0.107160 0.048075
v -0.014969 0.107160 0.049869
v -0.001496 0.107160 0.050172
v -0.001552 0.107160 0.052044
v 0.011540 0.107160 0.048849
v -0.011272 0.105056 -0.047714
v 0.023238 0.105056 0.043171
v 0.014095 0.105056 -0.046958
v -0.001461 0.105056 0.049006
v -0.014095 0.105056 0.046958
v 0.035686 0.105056 -0.033619
v 0.025769 0.105056 -0.041710
v -0.025769 0.105056 0.041710
v 0.043171 0.105056 -0.023238
v -0.035686 0.105056 0.033619
v 0.035704 0.103982 0.037898
v 0.045848 0.103982 -0.024678
v -0.011971 0.103982 -0.050673
v -0.024678 0.107160 -0.045848
v -0.052044 0.103982 -0.001552
v -0.014969 0.103982 0.049869
v 0.050673 0.103982 -0.011971
v 0.014969 0.103982 -0.049869
v -0.049869 0.107160 -0.014969
v -0.049869 0.103982 -0.014969
v -0.037898 0.103982 0.035704
v 0.044296 0.103982 0.027366
v 0.027366 0.107160 -0.044296
v 0.027366 0.103982 -0.044296
v -0.024678 0.103982 -0.045848
v -0.045848 0.103982 0.024678
v 0.001552 0.103982 -0.052044
v 0.011971 0.103982 0.050673
v -0.027366 0.103982 0.044296
v 0.049869 0.103982 0.014969
v -0.035704 0.103982 -0.037898
v -0.047714 0.105056 0.011272
v -0.046958 0.105056 -0.014095
v -0.023238 0.105056 -0.043171
v 0.001461 0.105056 -0.049006
v 0.046958 0.105056 0.014095
v 0.011272 0.105056 0.047715
v 0.011971 0.003357 0.050673
v -0.001552 0.003357 0.052044
v -0.014969 0.003357 0.049869
v -0.027366 0.003357 0.044296
v -0.037898 0.003357 0.035704
v -0.045848 0.003357 0.024678
v -0.050673 0.003357 0.011971
v -0.052044 0.003357 -0.001552
v -0.049869 0.003357 -0.014969
v -0.044296 0.003357 -0.027366
v -0.035704 0.003357 -0.037898
v -0.024678 0.003357 -0.045848
v -0.011971 0.003357 -0.050673
v 0.001552 0.003357 -0.052044
v 0.027366 0.003357 -0.044296
v 0.037898 0.003357 -0.035704
v 0.045848 0.003357 -0.024678
v 0.050673 0.003357 -0.011971
v 0.052044 0.003357 0.001552
v 0.049869 0.003357 0.014969
v 0.044296 0.003357 0.027366
v 0.035704 0.003357 0.037898
v -0.001552 0.103982 0.052044
v 0.037898 0.103982 -0.035704
v 0.052044 0.103982 0.001552
v -0.050673 0.103982 0.011971
v 0.024678 0.003357 0.045848
v -0.044296 0.103982 -0.027366
v 0.014969 0.003357 -0.049869
vn -0.8093 -0.5447 -0.2199
vn -0.7461 -0.6645 -0.0420
vn -0.6883 -0.7237 -0.0508
vn 0.6364 -0.0000 0.7713
vn 0.4740 -0.0000 0.8805
vn 0.6769 -0.0000 0.7360
vn 0.0954 -0.0000 -0.9954
vn 0.2990 -0.0000 -0.9543
vn 0.0418 -0.0000 -0.9991
vn 0.3801 0.9020 -0.2046
vn 0.6749 0.4841 -0.5569
vn 0.3982 0.8277 -0.3955
vn -0.2762 0.9528 0.1260
vn -0.7608 0.6171 0.2010
vn -0.6828 0.6171 0.3911
vn 0.5078 0.4841 -0.7126
vn 0.2823 0.8277 -0.4850
vn -0.5906 0.6433 0.4873
vn -0.5584 0.6171 0.5545
vn 0.3061 0.4840 -0.8198
vn 0.1841 0.7122 -0.6774
vn 0.0835 0.4841 -0.8710
vn 0.0010 0.9574 -0.2888
vn -0.2658 0.8626 0.4303
vn -0.3061 0.4840 0.8198
vn -0.1841 0.7122 0.6774
vn 0.1843 0.5980 0.7800
vn -0.0260 0.4849 0.8742
vn 0.1759 0.6441 0.7444
vn -0.3626 0.6441 -0.6735
vn 0.0847 0.9296 0.3588
vn 0.0696 0.9806 0.1833
vn -0.1843 0.5981 -0.7800
vn -0.0032 0.3741 0.9274
vn 0.0848 0.9296 0.3588
vn 0.0441 0.6171 -0.7856
vn -0.2733 0.5576 0.7838
vn 0.2460 0.6171 -0.7475
vn -0.4668 0.5576 0.6864
vn 0.4310 0.6171 -0.6583
vn -0.6286 0.5576 0.5422
vn 0.5867 0.6171 -0.5243
vn -0.1833 0.9806 0.0696
vn 0.2909 0.9438 -0.1566
vn -0.8966 0.3741 0.2369
vn -0.0000 1.0000 -0.0000
vn -0.9437 0.2445 0.2230
vn 0.2811 0.9438 0.1736
vn -0.5422 0.5576 -0.6286
vn -0.8016 0.3741 -0.4665
vn 0.3625 0.6441 0.6736
vn -0.6191 0.3185 -0.7178
vn 0.0611 0.5576 -0.8278
vn -0.1553 0.5576 -0.8154
vn -0.1988 0.7972 0.5701
vn 0.0698 0.3185 -0.9454
vn -0.0228 0.6441 0.7646
vn -0.3484 0.7488 0.5638
vn 0.3121 0.3185 -0.8951
vn -0.5584 0.6171 0.5544
vn 0.7475 0.5576 -0.3610
vn 0.6580 0.3741 -0.6535
vn -0.6829 0.6171 0.3910
vn 0.1951 0.9806 -0.0198
vn 0.9274 0.3741 0.0032
vn -0.3302 0.9438 -0.0098
vn 0.7838 0.5576 0.2733
vn -0.3165 0.9438 -0.0950
vn 0.6864 0.5576 0.4668
vn -0.2811 0.9438 -0.1736
vn 0.5422 0.5576 0.6286
vn -0.2266 0.9438 -0.2405
vn -0.6545 0.7481 0.1098
vn -0.3302 0.9438 -0.0099
vn 0.5313 0.7974 -0.2860
vn 0.4923 0.8626 -0.1163
vn -0.6606 0.7481 -0.0633
vn -0.3164 0.9438 -0.0950
vn -0.4947 0.7122 -0.4981
vn -0.1891 0.9698 -0.1542
vn -0.2857 0.9438 -0.1663
vn -0.2046 0.9020 -0.3801
vn -0.1427 0.9698 -0.1979
vn 0.4873 0.6433 0.5906
vn 0.3457 0.6841 0.6423
vn 0.3468 0.8626 0.3682
vn 0.6719 -0.0000 0.7407
vn 0.4609 -0.3740 0.8048
vn 0.6535 -0.3740 0.6581
vn 0.8407 -0.0000 0.5415
vn 0.6535 -0.3740 0.6580
vn 0.8016 -0.3740 0.4665
vn 0.9522 -0.0000 0.3055
vn 0.7838 -0.5577 0.2733
vn 0.9787 -0.1976 0.0551
vn 0.9630 -0.0000 0.2694
vn 0.9695 -0.0000 0.2452
vn 0.9596 -0.1976 -0.2001
vn 0.9999 -0.0000 0.0109
vn 0.9787 -0.1977 0.0550
vn 0.8751 -0.1976 -0.4417
vn 0.9651 -0.0000 -0.2619
vn 0.9596 -0.1977 -0.2002
vn 0.7457 -0.0000 -0.6663
vn 0.8589 -0.0000 -0.5121
vn 0.8751 -0.1977 -0.4418
vn 0.5479 -0.0000 -0.8366
vn 0.7148 -0.0000 -0.6993
vn 0.7456 -0.0000 -0.6663
vn 0.3127 -0.0000 -0.9499
vn 0.4973 -0.0000 -0.8676
vn 0.5478 0.0001 -0.8366
vn 0.0487 -0.0000 -0.9988
vn 0.2431 -0.3740 -0.8950
vn 0.0032 -0.3740 -0.9274
vn -0.1870 -0.0000 -0.9824
vn -0.2369 -0.3740 -0.8966
vn -0.4447 -0.0000 -0.8957
vn -0.2370 -0.3741 -0.8966
vn -0.4609 -0.3740 -0.8048
vn -0.6532 -0.0000 -0.7572
vn -0.6535 -0.3740 -0.6581
vn -0.8198 -0.0000 -0.5727
vn -0.6535 -0.3740 -0.6580
vn -0.8015 -0.3740 -0.4665
vn -0.9401 -0.0000 -0.3410
vn -0.8016 -0.3740 -0.4665
vn -0.8950 -0.3740 -0.2432
vn -0.9980 -0.0000 -0.0627
vn -0.8950 -0.3740 -0.2431
vn -0.9274 -0.3740 -0.0032
vn -0.9774 -0.0000 0.2115
vn -0.9274 -0.3741 -0.0032
vn -0.8967 -0.3740 0.2369
vn -0.9005 -0.0000 0.4349
vn -0.8048 -0.3740 0.4609
vn -0.7501 -0.0000 0.6614
vn -0.6581 -0.3740 0.6535
vn -0.5415 -0.0000 0.8407
vn -0.6580 -0.3740 0.6535
vn -0.4665 -0.3740 0.8015
vn -0.3055 -0.0000 0.9522
vn -0.4665 -0.3740 0.8016
vn -0.2733 -0.5577 0.7838
vn -0.0551 -0.1976 0.9787
vn -0.2694 -0.0000 0.9630
vn -0.2452 -0.0000 0.9695
vn 0.2001 -0.1976 0.9596
vn -0.0109 -0.0000 0.9999
vn -0.0550 -0.1977 0.9787
vn 0.4506 -0.0000 0.8927
vn 0.2482 -0.0000 0.9687
vn 0.2002 -0.1977 0.9596
vn -0.0000 -1.0000 -0.0000
vn -0.0610 -0.5576 0.8279
vn -0.2732 -0.5576 0.7838
vn -0.2582 -0.3185 -0.9121
vn 0.0233 -0.9730 0.2297
vn 0.2431 -0.3741 -0.8950
vn 0.4668 -0.5576 -0.6864
vn 0.8751 -0.1977 -0.4417
vn -0.6883 -0.7237 -0.0507
vn -0.6691 -0.7237 -0.1693
vn 0.8279 -0.5576 0.0610
vn 0.7838 -0.5576 0.2732
vn -0.0113 -0.9258 0.3778
vn 0.1354 -0.7486 0.6490
vn 0.2571 -0.9645 -0.0608
vn 0.5692 -0.7801 -0.2597
vn 0.3328 -0.9258 -0.1791
vn -0.2106 -0.9730 -0.0948
vn -0.5861 -0.7801 -0.2189
vn -0.1087 -0.9258 0.3619
vn -0.0597 -0.7801 0.6228
vn -0.0113 -0.9258 0.3777
vn -0.0646 -0.9833 -0.1701
vn -0.1103 -0.9020 -0.4175
vn -0.3295 -0.7487 -0.5752
vn -0.0948 -0.9730 0.2106
vn -0.1478 -0.9063 0.3958
vn -0.1086 -0.9258 0.3620
vn 0.2279 -0.9730 0.0370
vn 0.7226 -0.6878 0.0693
vn 0.3777 -0.9258 0.0113
vn -0.1351 -0.9730 -0.1873
vn -0.1706 -0.9702 -0.1718
vn -0.0233 -0.9730 -0.2297
vn 0.0023 -0.7487 -0.6629
vn 0.0502 -0.9494 -0.3100
vn 0.0896 -0.9502 -0.2984
vn -0.1476 -0.9833 0.1064
vn -0.5752 -0.7487 0.3295
vn -0.3064 -0.9020 0.3043
vn 0.1789 -0.9730 0.1460
vn 0.1706 -0.9702 0.1718
vn 0.5729 -0.7487 0.3334
vn 0.1987 -0.9258 -0.3215
vn 0.1350 -0.9020 -0.4102
vn 0.0947 -0.9730 -0.2106
vn -0.2159 -0.9730 0.0820
vn -0.2637 -0.9621 0.0697
vn 0.1351 -0.9730 0.1873
vn 0.3295 -0.7487 0.5752
vn 0.2751 -0.9258 -0.2591
vn 0.4213 -0.6878 -0.5911
vn 0.1986 -0.9258 -0.3215
vn -0.2297 -0.9730 0.0232
vn -0.6895 -0.7240 -0.0205
vn 0.0646 -0.9833 0.1701
vn 0.1306 -0.8232 0.5526
vn 0.4826 -0.7801 -0.3982
vn 0.1126 0.9487 0.2956
vn 0.2416 -0.0000 0.9704
vn -0.7310 0.1976 0.6532
vn -0.1967 0.9701 0.1419
vn -0.8735 -0.0000 0.4869
vn -0.8178 -0.5440 -0.1879
vn -0.5013 -0.8494 -0.1650
vn -0.8201 0.1976 -0.5370
vn -0.6532 0.1977 -0.7309
vn -0.7093 -0.0000 -0.7049
vn 0.1834 0.8944 -0.4080
vn 0.5094 -0.0000 -0.8605
vn 0.9787 0.1976 0.0550
vn 0.9312 0.1977 0.3064
vn 0.9667 -0.0000 0.2558
vn -0.3065 0.1976 0.9311
vn -0.5370 0.1977 0.8201
vn -0.5094 -0.0000 0.8605
vn -0.9988 -0.0000 -0.0487
vn -0.1936 0.9806 -0.0313
vn -0.8950 0.3740 -0.2432
vn 0.2115 -0.0000 0.9774
vn -0.2002 0.1977 -0.9596
vn 0.0550 0.1976 -0.9787
vn 0.0109 -0.0000 -0.9999
vn 0.8751 0.1976 -0.4417
vn 0.2267 0.9701 -0.0861
vn 0.9687 -0.0000 -0.2482
vn 0.6532 0.1977 0.7310
vn 0.1419 0.9701 0.1967
vn 0.4905 -0.0000 0.8714
vn -0.8874 -0.0000 0.4610
vn -0.6532 0.1976 -0.7310
vn -0.4507 -0.0000 -0.8927
vn -0.5121 -0.0000 -0.8589
vn 0.5415 -0.0000 -0.8407
vn 0.1534 0.9701 -0.1880
vn 0.9311 0.1977 0.3064
vn 0.8201 0.1977 0.5370
vn 0.8605 -0.0000 0.5094
vn -0.7309 0.1977 0.6532
vn -0.6971 -0.0000 0.7170
vn -0.9522 -0.0000 -0.3055
vn -0.8015 0.3741 -0.4665
vn 0.0550 0.1977 -0.9787
vn 0.3126 -0.0000 -0.9499
vn 0.2694 -0.0000 -0.9630
vn 0.9774 -0.0000 -0.2115
vn -0.0550 0.1976 0.9787
vn -0.3064 0.1977 0.9312
vn -0.2558 -0.0000 0.9667
vn -0.9596 0.1976 0.2002
vn -0.3147 0.9487 0.0320
vn -0.9999 -0.0000 -0.0109
vn -0.4506 -0.0000 -0.8927
vn -0.2619 -0.0000 -0.9651
vn 0.7310 0.1976 -0.6532
vn 0.8751 0.1977 -0.4418
vn 0.8644 -0.0000 -0.5027
vn 0.6532 0.1977 0.7309
vn 0.6993 -0.0000 0.7148
vn 0.5868 0.6171 -0.5243
vn -0.1860 0.9781 0.0939
vn -0.5494 0.8277 0.1146
vn -0.8365 0.4841 0.2567
vn 0.4521 0.7481 -0.4858
vn 0.4311 0.6171 -0.6583
vn -0.5234 0.7122 0.4678
vn -0.7416 0.4841 0.4644
vn 0.3109 0.7481 -0.5863
vn 0.2460 0.6171 -0.7474
vn -0.5961 0.4841 0.6406
vn 0.1714 0.6433 -0.7462
vn 0.0442 0.6171 -0.7856
vn -0.0145 0.9155 -0.4020
vn 0.0441 0.6171 -0.7857
vn -0.1842 0.5980 -0.7800
vn -0.1714 0.6433 0.7462
vn -0.2460 0.6171 0.7475
vn -0.0261 0.4848 0.8742
vn -0.2397 0.8626 -0.4454
vn -0.1524 0.7488 -0.6450
vn 0.0444 0.7972 -0.6021
vn -0.0550 0.1977 0.9787
vn 0.1987 0.7972 -0.5701
vn -0.3065 0.1977 0.9311
vn 0.1988 0.7972 -0.5701
vn 0.3395 0.7972 -0.4993
vn 0.3396 0.7972 -0.4992
vn 0.4572 0.7972 -0.3944
vn -0.7310 0.1977 0.6531
vn 0.4572 0.7972 -0.3943
vn -0.1967 0.9702 0.1418
vn -0.9596 0.1977 0.2002
vn 0.3302 0.9438 0.0099
vn -0.1936 0.9806 -0.0314
vn -0.8967 0.3741 0.2368
vn -0.8201 0.1977 -0.5370
vn -0.6531 0.1977 -0.7310
vn 0.3626 0.6441 0.6736
vn 0.1163 0.8626 0.4923
vn -0.0231 0.6441 0.7646
vn -0.2459 0.6171 0.7475
vn 0.2732 0.5576 -0.7838
vn -0.3484 0.7488 0.5639
vn -0.4209 0.7972 0.4329
vn 0.7310 0.1977 -0.6531
vn -0.5186 0.7972 0.3092
vn 0.8751 0.1977 -0.4417
vn -0.5809 0.7972 0.1644
vn 0.2267 0.9702 -0.0861
vn -0.5809 0.7972 0.1645
vn 0.9787 0.1977 0.0550
vn 0.9311 0.1977 0.3065
vn 0.6531 0.1977 0.7310
vn 0.1418 0.9702 0.1967
vn -0.5603 0.8277 -0.0315
vn -0.2428 0.9698 0.0246
vn -0.3969 0.8934 -0.2105
vn -0.2811 0.9438 -0.1737
vn -0.3164 0.9438 -0.0949
vn -0.5605 0.6433 -0.5216
vn -0.2265 0.9438 -0.2405
vn 0.4678 0.7122 0.5234
vn 0.2580 0.9429 0.2105
vn 0.9862 -0.0000 -0.1655
vn 0.9708 -0.0000 -0.2398
vn 0.9991 -0.0000 0.0418
vn 0.5804 -0.0000 -0.8144
vn 0.5169 -0.0000 -0.8560
vn 0.7360 -0.0000 -0.6769
vn -0.9469 -0.0000 -0.3217
vn -0.8313 -0.0000 -0.5558
vn -0.8834 -0.0000 -0.4686
vn -0.9704 -0.0000 0.2416
vn -0.9992 -0.0000 -0.0399
vn -0.9994 -0.0000 0.0359
vn 0.1655 -0.0000 0.9862
vn 0.2182 -0.0000 0.9759
vn -0.0418 -0.0000 0.9991
vn 0.1552 -0.5576 0.8155
vn -0.0611 -0.5576 0.8278
vn 0.0240 -0.9887 -0.1480
vn -0.2567 -0.4504 0.8551
vn -0.4624 -0.3185 0.8275
vn -0.6608 -0.3185 0.6796
vn -0.8142 -0.3185 0.4854
vn 0.1368 -0.9887 0.0615
vn -0.9478 -0.3185 0.0133
vn 0.0820 -0.9730 0.2159
vn -0.0133 -0.3185 -0.9478
vn -0.0948 -0.9887 0.1162
vn 0.2788 -0.2445 -0.9287
vn 0.7475 -0.5576 -0.3610
vn 0.8154 -0.5576 -0.1553
vn 0.8155 -0.5576 -0.1552
vn 0.8278 -0.5576 0.0611
vn -0.5508 -0.8229 -0.1393
vn -0.6901 -0.7237 0.0097
vn 0.9454 -0.3185 0.0697
vn -0.1162 -0.9887 -0.0948
vn -0.5508 -0.8229 -0.1394
vn 0.8551 -0.4504 0.2567
vn -0.0296 -0.8494 0.5270
vn 0.1701 -0.9833 -0.0645
vn 0.3052 -0.9502 -0.0637
vn 0.4712 -0.8494 -0.2379
vn -0.0370 -0.9730 0.2279
vn -0.0974 -0.9502 0.2961
vn 0.3124 -0.9494 -0.0317
vn 0.6619 -0.7487 0.0372
vn -0.1252 -0.9645 -0.2327
vn -0.0869 -0.9258 -0.3678
vn -0.1593 -0.8397 -0.5192
vn 0.0112 -0.9258 -0.3777
vn -0.0261 -0.6878 -0.7254
vn -0.1923 -0.9645 0.1812
vn -0.3328 -0.9258 0.1791
vn -0.6152 -0.6878 0.3853
vn 0.3631 -0.7487 -0.5546
vn -0.3328 -0.9258 0.1792
vn -0.3678 -0.9258 0.0869
vn -0.3620 -0.9256 0.1111
vn 0.1460 -0.9730 -0.1789
vn 0.3936 -0.8494 -0.3517
vn -0.7472 -0.6645 -0.0026
vn 0.1252 -0.9645 0.2327
vn 0.1694 -0.7486 0.6410
vn 0.1873 -0.9730 -0.1351
vn 0.4573 -0.0000 0.8893
vn -0.8805 -0.0000 0.4740
vn -0.9560 -0.0000 0.2934
vn -0.7713 -0.0000 0.6364
vn -0.7178 -0.0000 0.6963
vn -0.7348 -0.0000 0.6783
vn -0.8475 -0.0000 0.5308
vn -0.5358 -0.0000 0.8444
vn -0.5154 -0.0000 0.8570
vn -0.6812 -0.0000 0.7321
vn -0.5803 -0.0000 0.8144
vn 0.3498 -0.0000 -0.9368
vn 0.5256 -0.0000 -0.8507
vn -0.3498 -0.0000 0.9368
vn -0.2778 -0.0000 0.9606
vn -0.2875 -0.0000 0.9578
vn -0.4686 -0.0000 0.8834
vn -0.0954 -0.0000 0.9954
vn -0.9996 -0.0000 -0.0298
vn -0.9746 -0.0000 -0.2239
vn -0.9612 -0.0000 -0.2760
vn -0.1655 -0.0000 -0.9862
vn -0.2398 -0.0000 -0.9708
vn 0.0178 -0.0000 -0.9998
vn -0.2157 -0.0000 -0.9765
vn -0.0359 -0.0000 -0.9994
vn 0.9098 -0.0000 -0.4151
vn 0.9732 -0.0000 -0.2299
vn 0.8757 -0.0000 -0.4829
vn 0.8735 -0.0000 -0.4868
vn 0.7713 -0.0000 -0.6364
vn -0.6364 -0.0000 -0.7713
vn -0.4868 -0.0000 -0.8735
vn -0.6931 -0.0000 -0.7209
vn -0.4650 -0.0000 -0.8853
vn -0.4151 -0.0000 -0.9098
vn -0.6750 -0.0000 -0.7378
vn -0.5308 -0.0000 -0.8475
vn -0.7321 -0.0000 -0.6812
vn -0.2934 -0.0000 -0.9560
vn 0.9368 -0.0000 0.3498
vn 0.8444 -0.0000 0.5358
vn 0.9606 -0.0000 0.2778
vn 0.8570 -0.0000 0.5154
vn 0.6944 -0.0000 0.7196
vn 0.8144 -0.0000 0.5803
vn 0.9578 -0.0000 0.2875
vn 0.8834 -0.0000 0.4686
vn 0.9954 -0.0000 0.0954
vn 0.7321 -0.0000 0.6812
vn -0.5583 0.6171 0.5545
vn -0.2460 0.6171 0.7474
vn -0.2011 0.4849 -0.8512
vn -0.1524 0.7489 -0.6450
vn -0.0261 0.4849 0.8742
vn -0.0098 0.9438 0.3304
vn 0.1677 0.6841 0.7098
vn -0.2860 0.7974 -0.5313
vn -0.1843 0.5980 -0.7800
vn -0.3626 0.6441 -0.6736
vn -0.2266 0.9438 -0.2404
vn 0.4145 0.4849 0.7701
vn 0.1567 0.9438 0.2910
vn 0.2318 0.9703 0.0696
vn -0.1552 0.5576 -0.8155
vn -0.3610 0.5576 -0.7475
vn -0.5421 0.5576 -0.6286
vn -0.3483 0.7488 0.5639
vn 0.2733 0.5576 -0.7838
vn 0.6031 0.7975 0.0180
vn -0.3846 0.9158 -0.1155
vn -0.6348 0.7489 -0.1905
vn 0.7291 0.6841 0.0218
vn 0.3303 0.9438 0.0099
vn 0.3165 0.9438 0.0950
vn 0.6348 0.7489 0.1905
vn 0.4303 0.8626 0.2659
vn 0.3469 0.8626 0.3682
vn 0.2811 0.9438 0.1737
vn 0.2319 0.9703 0.0696
vn 0.2572 -0.9645 -0.0608
vn 0.3778 -0.9258 0.0113
vn 0.4167 -0.9063 -0.0699
vn 0.6286 -0.5576 -0.5421
vn 0.1553 -0.5576 0.8154
vn -0.3215 -0.9258 -0.1986
vn -0.4046 -0.8797 -0.2500
vn -0.1986 -0.9258 0.3215
vn -0.3284 -0.7808 0.5315
vn 0.3620 -0.9258 0.1087
vn 0.0113 -0.9258 -0.3778
vn -0.0697 -0.3185 0.9454
vn 0.1132 -0.9020 -0.4167
vn 0.2248 -0.9645 0.1389
vn -0.9190 -0.3185 -0.2325
vn 0.6413 -0.6878 0.3401
vn 0.1812 -0.9645 0.1924
vn 0.2248 -0.9644 0.1389
vn -0.8275 -0.3185 -0.4624
vn 0.2506 -0.9396 0.2333
vn 0.1812 -0.9644 0.1924
vn -0.6796 -0.3185 -0.6608
vn 0.3853 -0.6878 0.6152
vn -0.1924 -0.9645 0.1812
vn 0.5331 -0.3185 -0.7838
vn -0.3700 -0.8397 0.3975
vn -0.1812 -0.9645 -0.1924
vn 0.8275 -0.3185 0.4624
vn -0.2507 -0.9395 -0.2333
vn -0.1812 -0.9644 -0.1924
vn 0.6796 -0.3185 0.6608
vn -0.3853 -0.6878 -0.6152
vn -0.0035 -0.0000 1.0000
vn -0.0298 -0.0000 0.9996
vn 0.7096 -0.0000 -0.7046
vn 0.7279 -0.0000 -0.6857
vn 1.0000 -0.0000 0.0035
vn 0.9996 -0.0000 0.0298
vn -0.9789 -0.0000 0.2042
vn -0.9732 -0.0000 0.2299
vn -0.8643 -0.0000 -0.5030
vn -0.8507 -0.0000 -0.5256
vn 0.2622 -0.0000 -0.9650
vn 0.2875 -0.0000 -0.9578
vt 0.527644 0.017601
vt 0.584725 0.006420
vt 0.584697 0.017711
vt 0.412583 0.474868
vt 0.355530 0.461361
vt 0.412611 0.461485
vt 0.926138 0.475705
vt 0.869263 0.462277
vt 0.926375 0.462418
vt 0.015351 0.492587
vt 0.070374 0.481804
vt 0.070484 0.491915
vt 0.697953 0.493315
vt 0.640890 0.483115
vt 0.697973 0.483210
vt 0.127201 0.481969
vt 0.127182 0.492074
vt 0.755036 0.493403
vt 0.755055 0.483299
vt 0.184232 0.482134
vt 0.184203 0.492239
vt 0.241307 0.482282
vt 0.241278 0.492387
vt 0.812111 0.493483
vt 0.869164 0.483440
vt 0.869140 0.493539
vt 0.981046 0.494368
vt 0.925990 0.483461
vt 0.981942 0.484262
vt 0.355473 0.482551
vt 0.298417 0.474613
vt 0.355500 0.474744
vt 0.298389 0.482420
vt 0.241335 0.474476
vt 0.184260 0.474329
vt 0.127211 0.474167
vt 0.070252 0.474012
vt 0.013249 0.474493
vt 0.986470 0.980169
vt 0.930655 0.971741
vt 0.987750 0.972301
vt 0.873708 0.979601
vt 0.930525 0.979495
vt 0.816684 0.979663
vt 0.873729 0.971805
vt 0.759627 0.979700
vt 0.702593 0.971914
vt 0.759630 0.971896
vt 0.645789 0.979726
vt 0.702606 0.979715
vt 0.983240 0.476395
vt 0.812129 0.483379
vt 0.869203 0.475642
vt 0.697995 0.475403
vt 0.755076 0.475492
vt 0.640913 0.475308
vt 0.583831 0.475206
vt 0.583807 0.483013
vt 0.526748 0.475099
vt 0.526723 0.482906
vt 0.469665 0.474986
vt 0.469640 0.482793
vt 0.412556 0.482675
vt 0.640869 0.493219
vt 0.985596 0.990275
vt 0.583785 0.493118
vt 0.412531 0.492780
vt 0.469616 0.492898
vt 0.355446 0.492656
vt 0.702619 0.989818
vt 0.413488 0.037636
vt 0.356460 0.024845
vt 0.413513 0.024962
vt 0.470542 0.037751
vt 0.470567 0.025077
vt 0.527596 0.037863
vt 0.527620 0.025189
vt 0.584674 0.025299
vt 0.641728 0.025406
vt 0.584650 0.037973
vt 0.698782 0.025513
vt 0.641704 0.038081
vt 0.755835 0.025618
vt 0.698759 0.038187
vt 0.812883 0.025725
vt 0.755814 0.038291
vt 0.869903 0.025838
vt 0.812870 0.038394
vt 0.927016 0.038512
vt 0.926837 0.025933
vt 0.984183 0.038284
vt 0.983825 0.025357
vt 0.645199 0.534863
vt 0.588337 0.521675
vt 0.645419 0.522289
vt 0.702282 0.534894
vt 0.702319 0.522242
vt 0.759335 0.534861
vt 0.759332 0.522192
vt 0.816384 0.534820
vt 0.816366 0.522154
vt 0.873436 0.534772
vt 0.873377 0.522127
vt 0.930511 0.534661
vt 0.930302 0.522085
vt 0.987668 0.534301
vt 0.987280 0.521376
vt 0.071118 0.036828
vt 0.014286 0.023468
vt 0.071375 0.024253
vt 0.128210 0.037028
vt 0.128283 0.024373
vt 0.185270 0.037159
vt 0.185305 0.024488
vt 0.242354 0.024607
vt 0.299406 0.024726
vt 0.242325 0.037281
vt 0.299380 0.037400
vt 0.356485 0.017257
vt 0.299432 0.017138
vt 0.242379 0.017019
vt 0.185334 0.016901
vt 0.128331 0.016795
vt 0.071537 0.016719
vt 0.015577 0.015810
vt 0.816367 0.514568
vt 0.759338 0.514607
vt 0.702344 0.514665
vt 0.645558 0.514755
vt 0.589604 0.514015
vt 0.926697 0.018364
vt 0.869903 0.018256
vt 0.812902 0.018138
vt 0.755857 0.018030
vt 0.698804 0.017924
vt 0.641751 0.017818
vt 0.470591 0.017489
vt 0.413538 0.017374
vt 0.981494 0.006267
vt 0.982586 0.017634
vt 0.930145 0.514518
vt 0.984905 0.502295
vt 0.986023 0.513658
vt 0.527672 0.006310
vt 0.926541 0.007066
vt 0.299461 0.005848
vt 0.356514 0.005966
vt 0.869911 0.006966
vt 0.873341 0.503258
vt 0.873359 0.514546
vt 0.413567 0.006083
vt 0.242409 0.005728
vt 0.185365 0.005611
vt 0.698831 0.006634
vt 0.755884 0.006739
vt 0.702353 0.503384
vt 0.759337 0.503319
vt 0.641778 0.006528
vt 0.645713 0.503501
vt 0.128373 0.005513
vt 0.590710 0.502721
vt 0.071726 0.005463
vt 0.298448 0.461230
vt 0.012918 0.460865
vt 0.702539 0.958559
vt 0.812152 0.475573
vt 0.812178 0.462192
vt 0.526774 0.461716
vt 0.127199 0.460809
vt 0.873761 0.958442
vt 0.816690 0.971859
vt 0.640936 0.461925
vt 0.988058 0.958689
vt 0.645643 0.971935
vt 0.645444 0.958648
vt 0.469692 0.461603
vt 0.070094 0.460721
vt 0.816685 0.958481
vt 0.184285 0.460950
vt 0.588652 0.972591
vt 0.588279 0.958965
vt 0.698017 0.462020
vt 0.014496 0.482428
vt 0.590809 0.990676
vt 0.589923 0.980521
vt 0.759630 0.989803
vt 0.929963 0.503223
vt 0.016717 0.004518
vt 0.013924 0.036381
vt 0.983579 0.462782
vt 0.588013 0.534587
vt 0.298361 0.492525
vt 0.925851 0.493541
vt 0.645931 0.989834
vt 0.873705 0.989698
vt 0.930408 0.989574
vt 0.526700 0.493011
vt 0.816687 0.989766
vt 0.470619 0.006198
vt 0.812927 0.006847
vt 0.816365 0.503280
vt 0.387087 0.498039
vt 0.432328 0.498039
vt 0.476027 0.509748
vt 0.569817 0.736177
vt 0.547196 0.564358
vt 0.515206 0.532368
vt 0.249598 0.603538
vt 0.272219 0.775356
vt 0.343388 0.829966
vt 0.432328 0.841675
vt 0.515206 0.807346
vt 0.547196 0.775356
vt 0.272219 0.564358
vt 0.304209 0.532368
vt 0.343388 0.509748
vt 0.476027 0.829966
vt 0.387087 0.841675
vt 0.304209 0.807346
vt 0.237889 0.647237
vt 0.237889 0.692478
vt 0.249598 0.736177
vt 0.581526 0.692478
vt 0.581526 0.647237
vt 0.569817 0.603538
vt 0.200029 0.721107
vt 0.232218 0.739692
vt 0.258501 0.765974
vt 0.286705 0.834066
vt 0.277085 0.798163
vt 0.232218 0.965608
vt 0.258501 0.939326
vt 0.277085 0.907137
vt 0.286705 0.871234
vt 0.091056 0.984192
vt 0.164127 0.993812
vt 0.200029 0.984192
vt 0.004380 0.871234
vt 0.014000 0.907137
vt 0.032584 0.939326
vt 0.058867 0.965608
vt 0.058867 0.739692
vt 0.014000 0.798163
vt 0.004380 0.834066
vt 0.164127 0.711487
vt 0.126958 0.711487
vt 0.091056 0.721107
vt 0.032584 0.765974
vt 0.126958 0.993812
vt 0.241367 0.461093
vt 0.755097 0.462109
vt 0.583855 0.461823
vt 0.930863 0.958455
vt 0.356434 0.037519
vt 0.759614 0.958520
vt 0.869932 0.038486
s 1
usemtl item\item_f_condensed_milk
f 48/1/1 11/2/2 10/3/3
f 92/4/4 3/5/5 137/6/6
f 104/7/7 144/8/8 153/9/9
f 88/10/10 118/11/11 136/12/12
f 135/13/13 96/14/14 98/15/15
f 136/12/12 120/16/16 134/17/17
f 132/18/18 98/15/15 100/19/19
f 134/17/17 122/20/20 131/21/21
f 131/21/21 124/22/22 130/23/23
f 133/24/24 105/25/25 129/26/26
f 127/27/27 106/28/28 107/29/29
f 91/30/30 2/31/31 1/32/32
f 126/33/33 125/34/34 2/31/35
f 124/22/36 123/35/37 125/34/34
f 122/20/38 121/36/39 123/35/37
f 120/16/40 119/37/41 121/36/39
f 118/11/42 117/38/43 119/37/41
f 116/39/44 114/40/45 117/41/43
f 115/42/46 114/40/47 86/43/46
f 80/44/46 113/45/46 115/42/46
f 111/46/48 110/47/49 112/48/50
f 109/49/51 110/47/52 77/50/46
f 107/29/29 104/7/53 108/51/54
f 105/25/55 104/7/56 106/28/57
f 102/52/58 103/53/59 105/25/55
f 100/19/60 99/54/61 101/55/62
f 98/15/63 97/56/64 99/54/61
f 96/14/14 95/57/65 97/56/64
f 89/58/66 94/59/67 95/57/65
f 84/60/68 93/61/69 94/59/67
f 81/62/70 92/4/71 93/61/69
f 79/63/72 1/32/32 92/4/71
f 90/64/73 89/58/74 96/14/14
f 88/65/75 86/43/76 116/39/44
f 87/66/77 84/60/78 89/58/74
f 82/67/79 81/62/80 85/68/81
f 128/69/82 79/63/83 82/67/79
f 76/70/84 109/49/85 77/50/86
f 185/71/87 75/72/88 45/73/89
f 184/74/90 45/73/91 47/75/92
f 183/76/93 47/75/92 49/77/94
f 50/78/95 183/76/96 49/77/97
f 51/79/98 182/80/99 50/78/100
f 52/81/101 181/82/102 51/79/103
f 74/83/104 180/84/105 52/81/106
f 54/85/107 179/86/108 74/83/109
f 55/87/110 178/88/111 54/85/112
f 177/89/113 55/87/114 56/90/115
f 176/91/116 56/90/115 57/92/117
f 175/93/118 57/94/119 73/95/120
f 174/96/121 73/95/120 59/97/122
f 173/98/123 59/97/124 61/99/125
f 172/100/126 61/99/127 63/101/128
f 171/102/129 63/101/130 64/103/131
f 170/104/132 64/103/133 72/105/134
f 169/106/135 72/105/134 65/107/136
f 168/108/137 65/109/136 66/110/138
f 167/111/139 66/110/140 67/112/141
f 166/113/142 67/112/143 69/114/144
f 70/115/145 166/113/146 69/114/147
f 71/116/148 165/117/149 70/115/150
f 75/72/151 164/118/152 71/116/153
f 32/119/154 71/116/153 27/120/154
f 27/120/154 70/115/150 25/121/154
f 68/122/154 70/115/155 69/114/156
f 19/123/154 69/114/144 67/112/143
f 14/124/154 67/112/141 66/110/140
f 6/125/154 66/110/138 65/109/136
f 62/126/154 64/103/131 63/101/130
f 60/127/154 63/101/128 61/99/127
f 58/128/154 61/99/125 59/97/124
f 9/129/154 57/94/157 7/130/158
f 40/131/154 57/92/117 56/90/115
f 37/132/154 56/90/115 55/87/114
f 53/133/154 55/87/159 54/85/160
f 22/134/154 52/81/161 17/135/154
f 17/135/154 51/79/103 12/136/154
f 12/136/154 50/78/100 10/3/162
f 48/1/163 50/78/164 49/77/165
f 46/137/154 49/77/94 47/75/92
f 44/138/154 47/75/92 45/73/91
f 40/131/166 8/139/167 7/140/158
f 39/141/168 4/142/169 6/143/170
f 46/137/171 38/144/172 48/1/1
f 37/132/173 36/145/174 40/131/175
f 32/119/176 31/146/177 28/147/178
f 53/133/179 30/148/180 37/132/181
f 62/126/182 29/149/183 35/150/184
f 44/138/185 28/147/178 33/151/186
f 27/120/187 26/152/188 31/146/177
f 25/121/189 18/153/190 26/152/188
f 22/134/191 21/154/192 24/155/193
f 60/127/194 20/156/195 23/157/196
f 19/123/197 18/153/198 68/122/199
f 17/135/200 16/158/201 21/154/192
f 58/128/202 15/159/203 20/156/195
f 14/124/204 13/160/205 19/123/206
f 12/136/207 11/2/208 16/158/201
f 9/129/209 8/161/210 15/159/203
f 6/125/170 5/162/211 14/124/204
f 3/5/5 2/31/212 154/163/213
f 119/37/214 117/38/215 152/164/216
f 48/1/217 38/144/218 11/2/208
f 112/48/219 110/47/220 157/165/221
f 103/53/110 149/166/222 150/167/223
f 95/57/224 94/59/225 156/168/226
f 123/35/227 121/36/228 155/169/229
f 141/170/230 113/45/231 145/171/232
f 154/163/233 2/31/35 125/34/34
f 108/51/234 104/7/235 153/9/236
f 99/54/237 97/56/238 143/172/239
f 92/4/240 1/32/241 3/5/242
f 152/173/243 117/41/43 114/40/45
f 110/47/244 140/174/245 151/175/246
f 150/167/247 149/166/248 101/55/62
f 94/59/249 93/61/250 148/176/251
f 121/36/228 119/37/252 147/177/253
f 146/178/254 145/171/232 112/48/255
f 104/7/256 103/53/257 144/8/258
f 143/172/259 97/56/64 95/57/65
f 125/34/260 123/35/261 142/179/262
f 114/40/263 113/45/264 141/170/265
f 140/174/266 108/180/234 139/181/267
f 101/55/268 99/54/269 138/182/270
f 93/61/250 92/4/271 137/6/272
f 88/10/75 116/183/44 118/11/273
f 135/13/274 90/64/275 96/14/276
f 136/12/277 118/11/42 120/16/278
f 132/18/279 135/13/274 98/15/280
f 134/17/281 120/16/40 122/20/282
f 133/24/24 132/18/279 100/19/283
f 131/21/284 122/20/38 124/22/285
f 130/23/286 124/22/287 126/33/288
f 129/26/289 105/25/290 106/28/291
f 127/184/27 107/185/29 109/49/85
f 91/30/292 126/33/293 2/31/46
f 126/33/293 124/22/294 125/34/295
f 124/22/294 122/20/296 123/35/297
f 122/20/298 120/16/299 121/36/228
f 120/16/300 118/11/301 119/37/302
f 118/11/303 116/183/46 117/38/304
f 116/39/46 86/43/46 114/40/305
f 115/42/306 113/45/307 114/40/308
f 80/44/46 111/46/46 112/48/309
f 111/46/46 77/50/46 110/47/310
f 109/49/311 107/185/312 108/180/234
f 107/29/312 106/28/313 104/7/256
f 105/25/314 103/53/315 104/7/53
f 102/52/316 100/19/317 101/55/318
f 100/19/317 98/15/319 99/54/320
f 98/15/319 96/14/321 97/56/322
f 96/14/323 89/58/46 95/57/324
f 89/58/46 84/60/46 94/59/325
f 84/60/46 81/62/46 93/61/250
f 81/62/46 79/63/46 92/4/326
f 79/63/46 91/30/292 1/32/327
f 90/64/275 87/66/328 89/58/329
f 85/68/330 81/62/331 84/60/332
f 82/67/333 79/63/334 81/62/70
f 78/186/48 76/70/335 77/50/336
f 51/79/337 181/82/338 182/80/339
f 54/85/340 178/88/341 179/86/342
f 172/100/343 173/98/344 61/99/345
f 170/104/346 171/102/347 64/103/348
f 71/116/349 164/118/350 165/117/351
f 27/120/154 71/116/352 70/115/353
f 19/123/154 68/122/354 69/114/355
f 14/124/154 19/123/154 67/112/356
f 6/125/154 14/124/154 66/110/357
f 39/141/154 6/143/154 65/107/358
f 62/126/359 35/150/154 64/103/360
f 40/131/154 7/140/361 57/92/157
f 37/132/154 40/131/154 56/90/362
f 53/133/363 37/132/154 55/87/364
f 17/135/154 52/81/365 51/79/366
f 12/136/154 51/79/367 50/78/368
f 48/1/369 10/3/370 50/78/371
f 46/137/372 48/1/373 49/77/374
f 40/131/158 36/145/375 8/139/210
f 39/141/376 34/187/377 4/142/378
f 37/132/379 30/148/380 36/145/375
f 35/150/381 29/149/382 34/187/377
f 32/119/383 27/120/384 31/146/385
f 27/120/384 25/121/386 26/152/387
f 22/134/388 17/135/389 21/154/390
f 19/123/199 13/160/391 18/153/190
f 17/135/392 12/136/393 16/158/394
f 14/124/395 5/162/396 13/160/391
f 12/136/393 10/3/370 11/2/397
f 9/129/398 7/130/361 8/161/399
f 6/125/400 4/188/378 5/162/396
f 3/5/401 1/32/32 2/31/31
f 152/173/402 170/104/346 169/106/243
f 169/106/243 170/104/346 72/105/403
f 119/37/404 152/164/402 147/177/405
f 168/108/406 147/177/405 152/164/402
f 168/108/406 152/164/402 169/189/243
f 168/108/406 169/189/243 65/109/407
f 155/169/408 147/177/405 168/108/406
f 155/169/408 168/108/406 167/111/409
f 167/111/409 168/108/406 66/110/410
f 121/36/411 147/177/405 155/169/408
f 103/53/412 150/167/413 144/8/8
f 144/8/8 150/167/413 178/88/341
f 123/35/414 155/169/408 142/179/415
f 142/179/415 155/169/408 167/111/409
f 142/179/415 167/111/409 166/113/416
f 166/113/416 167/111/409 67/112/417
f 165/117/351 142/179/415 166/113/416
f 70/115/418 165/117/351 166/113/416
f 141/170/419 145/171/420 146/178/421
f 171/102/347 141/170/419 146/178/421
f 171/102/347 146/178/421 172/100/343
f 171/102/347 172/100/343 63/101/420
f 108/51/422 153/9/9 139/190/423
f 139/190/423 153/9/9 177/89/424
f 139/190/423 177/89/424 176/91/425
f 176/91/425 177/89/424 56/90/426
f 99/54/427 143/172/428 138/182/429
f 138/182/429 143/172/428 181/82/338
f 138/182/429 181/82/338 180/84/430
f 52/81/427 180/84/430 181/82/338
f 179/86/342 138/182/429 180/84/430
f 74/83/431 179/86/342 180/84/430
f 110/47/432 151/175/433 157/165/434
f 157/165/434 151/175/433 175/93/435
f 175/93/435 151/175/433 139/181/423
f 140/174/436 139/181/423 151/175/433
f 157/165/434 175/93/435 174/96/437
f 174/96/437 175/93/435 73/95/438
f 173/98/344 157/165/434 174/96/437
f 173/98/344 174/96/437 59/97/439
f 175/93/435 139/181/423 176/191/425
f 175/93/435 176/191/425 57/94/440
f 94/59/441 148/176/442 156/168/443
f 156/168/443 148/176/442 184/74/444
f 148/176/442 185/71/445 184/74/444
f 148/176/442 137/6/6 185/71/445
f 93/61/446 137/6/6 148/176/442
f 156/168/443 184/74/444 183/76/447
f 183/76/447 184/74/444 47/75/448
f 182/80/339 156/168/443 183/76/447
f 50/78/449 182/80/339 183/76/447
f 184/74/444 185/71/445 45/73/450
f 133/24/316 100/19/451 102/52/316
f 133/24/316 102/52/316 105/25/452
f 130/23/23 126/33/453 163/192/454
f 128/69/82 163/192/454 126/33/453
f 129/26/26 106/28/455 161/193/456
f 127/27/457 161/193/456 106/28/455
f 128/69/458 126/33/459 91/30/460
f 128/69/458 91/30/460 79/63/461
f 127/184/457 109/49/462 160/194/463
f 76/70/335 160/194/463 109/49/462
f 80/44/464 112/48/255 145/171/232
f 80/44/464 145/171/232 113/45/231
f 109/49/85 108/180/465 140/174/466
f 109/49/85 140/174/466 110/47/467
f 102/52/468 101/55/62 149/166/248
f 102/52/468 149/166/248 103/53/469
f 83/195/470 86/43/76 158/196/76
f 88/65/10 158/196/76 86/43/76
f 85/68/81 84/60/471 162/197/472
f 87/66/328 162/197/472 84/60/471
f 83/195/473 80/44/464 115/42/474
f 83/195/473 115/42/474 86/43/76
f 78/186/48 80/44/475 159/198/476
f 83/195/470 159/198/476 80/44/475
f 78/186/477 77/50/478 111/46/479
f 78/186/477 111/46/479 80/44/480
f 39/141/154 65/107/136 72/105/134
f 39/141/154 72/105/134 64/103/133
f 39/141/481 64/103/360 35/150/482
f 35/150/482 34/187/483 39/141/481
f 9/129/154 59/97/122 73/95/120
f 9/129/154 73/95/120 57/94/119
f 22/134/154 54/85/160 74/83/484
f 22/134/154 74/83/484 52/81/365
f 32/119/154 45/73/89 75/72/88
f 32/119/154 75/72/88 71/116/485
f 46/137/486 33/151/186 41/199/487
f 46/137/486 41/199/487 38/144/218
f 53/133/488 24/155/193 42/200/489
f 53/133/488 42/200/489 30/148/380
f 62/126/490 23/157/196 43/201/490
f 62/126/490 43/201/490 29/149/382
f 130/202/23 163/203/454 128/204/82
f 130/202/23 128/204/82 135/205/274
f 128/204/82 85/206/81 135/205/274
f 128/204/82 82/207/79 85/206/81
f 88/208/10 130/202/23 135/205/274
f 78/209/48 88/208/10 135/205/274
f 160/210/463 78/209/48 135/205/274
f 161/211/456 160/210/463 135/205/274
f 135/205/274 133/212/24 161/211/456
f 135/205/274 132/213/279 133/212/24
f 88/208/10 136/214/12 130/202/23
f 136/214/12 134/215/17 130/202/23
f 134/215/17 131/216/21 130/202/23
f 133/212/24 129/217/26 161/211/456
f 161/211/456 127/218/457 160/210/463
f 160/210/463 76/219/335 78/209/48
f 158/220/76 88/208/10 78/209/48
f 83/221/470 158/220/76 78/209/48
f 78/209/48 159/222/476 83/221/470
f 90/223/275 135/205/274 85/206/81
f 87/224/328 90/223/275 85/206/81
f 85/206/81 162/225/472 87/224/328
f 68/122/354 25/121/491 70/115/492
f 25/121/491 68/122/354 18/153/493
f 60/127/494 62/126/359 63/101/495
f 62/126/359 60/127/494 23/157/496
f 58/128/497 60/127/498 61/99/499
f 60/127/498 58/128/497 20/156/500
f 9/129/398 58/128/501 59/97/502
f 58/128/501 9/129/398 15/159/503
f 22/134/504 53/133/363 54/85/505
f 53/133/363 22/134/504 24/155/506
f 44/138/507 46/137/372 47/75/508
f 46/137/372 44/138/507 33/151/509
f 32/119/383 44/138/510 45/73/511
f 44/138/510 32/119/383 28/147/512
f 33/226/186 28/227/178 31/228/177
f 33/226/186 31/228/177 18/229/190
f 31/228/177 26/230/188 18/229/190
f 33/226/186 18/229/190 34/231/377
f 4/232/378 34/231/377 18/229/190
f 5/233/396 4/232/378 18/229/190
f 18/229/190 13/234/391 5/233/396
f 34/231/377 20/235/195 33/226/186
f 34/231/377 43/236/490 20/235/195
f 34/231/377 29/237/382 43/236/490
f 20/235/195 30/238/380 33/226/186
f 36/239/375 30/238/380 20/235/195
f 8/240/210 36/239/375 20/235/195
f 20/235/195 15/241/203 8/240/210
f 30/238/380 16/242/201 33/226/186
f 30/238/380 24/243/193 16/242/201
f 30/238/380 42/244/489 24/243/193
f 41/245/487 33/226/186 16/242/201
f 38/246/218 41/245/487 16/242/201
f 16/242/201 11/247/208 38/246/218
f 24/243/193 21/248/192 16/242/201
f 43/236/490 23/249/196 20/235/195
f 186/250/513 154/163/213 125/34/514
f 186/250/513 125/34/514 142/179/415
f 186/250/513 142/179/415 165/117/351
f 186/250/513 165/117/351 164/118/350
f 186/250/513 164/118/350 154/163/213
f 187/251/515 179/86/342 178/88/341
f 187/251/515 178/88/341 150/167/413
f 187/251/515 150/167/413 101/55/516
f 187/251/515 101/55/516 138/182/429
f 187/251/515 138/182/429 179/86/342
f 188/252/517 182/80/339 181/82/338
f 188/252/517 181/82/338 143/172/428
f 188/252/517 143/172/428 95/57/518
f 188/252/517 95/57/518 156/168/443
f 188/252/517 156/168/443 182/80/339
f 189/253/519 152/173/402 114/40/520
f 189/253/519 114/40/520 141/170/419
f 189/253/519 141/170/419 171/102/347
f 189/253/519 171/102/347 170/104/346
f 189/253/519 170/104/346 152/173/402
f 190/254/5 3/5/5 154/163/213
f 190/254/5 154/163/213 164/118/350
f 190/254/5 164/118/350 75/72/5
f 190/254/5 75/72/5 185/71/445
f 190/254/5 185/71/445 137/6/6
f 190/254/5 137/6/6 3/5/5
f 191/255/521 173/98/344 172/100/343
f 191/255/521 172/100/343 146/178/421
f 191/255/521 146/178/421 112/48/522
f 191/255/521 112/48/522 157/165/434
f 191/255/521 157/165/434 173/98/344
f 192/256/523 178/88/341 55/87/524
f 192/256/523 55/87/524 177/89/424
f 192/256/523 177/89/424 153/9/9
f 192/256/523 153/9/9 144/8/8
f 192/256/523 144/8/8 178/88/341
