{
  "accessors": [
    {
      "bufferView": 2,
      "componentType": 5126,
      "count": 950,
      "max": [
        57.616085052490234,
        184.83099365234375,
        57.616085052490234
      ],
      "min": [
        -57.616085052490234,
        0.1998661607503891,
        -57.616085052490234
      ],
      "type": "VEC3"
    },
    {
      "bufferView": 2,
      "byteOffset": 11400,
      "componentType": 5126,
      "count": 950,
      "max": [
        1.0,
        1.0,
        1.0
      ],
      "min": [
        -1.0,
        -1.0,
        -1.0
      ],
      "type": "VEC3"
    },
    {
      "bufferView": 3,
      "componentType": 5126,
      "count": 950,
      "max": [
        1.0,
        0.9904825091362,
        1.0,
        1.0
      ],
      "min": [
        -1.0,
        -0.9825701117515564,
        -1.0,
        1.0
      ],
      "type": "VEC4"
    },
    {
      "bufferView": 1,
      "componentType": 5126,
      "count": 950,
      "max": [
        0.9984974265098572,
        0.9880390763282776
      ],
      "min": [
        0.001494696130976081,
        0.0012932579265907407
      ],
      "type": "VEC2"
    },
    {
      "bufferView": 1,
      "byteOffset": 7600,
      "componentType": 5126,
      "count": 950,
      "max": [
        0.9984974265098572,
        0.9880390763282776
      ],
      "min": [
        0.001494696130976081,
        0.0012932579265907407
      ],
      "type": "VEC2"
    },
    {
      "bufferView": 1,
      "byteOffset": 15200,
      "componentType": 5126,
      "count": 950,
      "max": [
        0.9984974265098572,
        0.9880390763282776
      ],
      "min": [
        0.001494696130976081,
        0.0012932579265907407
      ],
      "type": "VEC2"
    },
    {
      "bufferView": 0,
      "componentType": 5125,
      "count": 3468,
      "type": "SCALAR"
    }
  ],
  "asset": {
    "extras": {
      "author": "Emil Gilmutdinov (https://sketchfab.com/Emil_Gilmutdinov)",
      "license": "CC-BY-4.0 (http://creativecommons.org/licenses/by/4.0/)",
      "source": "https://sketchfab.com/3d-models/fuel-barrel-55f313a9dfee4946b0a0dcb59704c2cb",
      "title": "Fuel Barrel"
    },
    "generator": "Sketchfab-16.56.0",
    "version": "2.0"
  },
  "bufferViews": [
    {
      "buffer": 0,
      "byteLength": 13872,
      "name": "floatBufferViews",
      "target": 34963
    },
    {
      "buffer": 0,
      "byteLength": 22800,
      "byteOffset": 13872,
      "byteStride": 8,
      "name": "floatBufferViews",
      "target": 34962
    },
    {
      "buffer": 0,
      "byteLength": 22800,
      "byteOffset": 36672,
      "byteStride": 12,
      "name": "floatBufferViews",
      "target": 34962
    },
    {
      "buffer": 0,
      "byteLength": 15200,
      "byteOffset": 59472,
      "byteStride": 16,
      "name": "floatBufferViews",
      "target": 34962
    }
  ],
  "buffers": [
    {
      "byteLength": 74672,
      "uri": "scene.bin"
    }
  ],
  "images": [
    {
      "uri": "textures/FuelBarrel_baseColor.png"
    },
    {
      "uri": "textures/FuelBarrel_metallicRoughness.png"
    },
    {
      "uri": "textures/FuelBarrel_normal.png"
    }
  ],
  "materials": [
    {
      "doubleSided": true,
      "name": "FuelBarrel",
      "normalTexture": {
        "index": 2
      },
      "pbrMetallicRoughness": {
        "baseColorTexture": {
          "index": 0
        },
        "metallicRoughnessTexture": {
          "index": 1
        }
      }
    }
  ],
  "meshes": [
    {
      "name": "FuelBarrel_Low_FuelBarrel_0",
      "primitives": [
        {
          "attributes": {
            "NORMAL": 1,
            "POSITION": 0,
            "TANGENT": 2,
            "TEXCOORD_0": 3,
            "TEXCOORD_1": 4,
            "TEXCOORD_2": 5
          },
          "indices": 6,
          "material": 0,
          "mode": 4
        }
      ]
    }
  ],
  "nodes": [
    {
      "children": [
        1
      ],
      "matrix": [
        1.0,
        0.0,
        0.0,
        0.0,
        0.0,
        2.220446049250313e-16,
        -1.0,
        0.0,
        0.0,
        1.0,
        2.220446049250313e-16,
        0.0,
        0.0,
        0.0,
        0.0,
        1.0
      ],
      "name": "Sketchfab_model"
    },
    {
      "children": [
        2
      ],
      "matrix": [
        0.009999999776482582,
        0.0,
        0.0,
        0.0,
        0.0,
        0.0,
        0.009999999776482582,
        0.0,
        0.0,
        -0.009999999776482582,
        0.0,
        0.0,
        0.0,
        0.0,
        0.0,
        1.0
      ],
      "name": "bcf131c358584ed08a170e53c9fa7275.fbx"
    },
    {
      "children": [
        3
      ],
      "name": "RootNode"
    },
    {
      "children": [
        4
      ],
      "name": "FuelBarrel_Low"
    },
    {
      "mesh": 0,
      "name": "FuelBarrel_Low_FuelBarrel_0"
    }
  ],
  "samplers": [
    {
      "magFilter": 9729,
      "minFilter": 9987,
      "wrapS": 10497,
      "wrapT": 10497
    }
  ],
  "scene": 0,
  "scenes": [
    {
      "name": "Sketchfab_Scene",
      "nodes": [
        0
      ]
    }
  ],
  "textures": [
    {
      "sampler": 0,
      "source": 0
    },
    {
      "sampler": 0,
      "source": 1
    },
    {
      "sampler": 0,
      "source": 2
    }
  ]
}
