# Blender 4.4.3
# www.blender.org
o Mesh_1244
v 0.238239 0.205174 0.047982
v 0.228636 0.279110 0.045972
v 0.224705 0.316419 -0.041394
v 0.243416 0.209979 -0.050319
v 0.234126 0.108908 -0.036183
v 0.180606 0.019443 -0.021307
v 0.176143 0.037239 0.076886
v 0.226080 0.123057 0.058705
v 0.238972 0.135959 -0.328182
v 0.234001 0.171400 -0.393653
v 0.183691 0.068189 -0.402535
v 0.190994 0.037363 -0.339007
v 0.079975 0.498142 -0.332488
v 0.000484 0.495659 -0.331257
v 0.000484 0.500798 -0.429565
v 0.076950 0.500797 -0.429367
v 0.000484 0.443182 -0.044805
v 0.083636 0.443391 -0.046029
v 0.079988 0.420259 0.048385
v 0.000484 0.420050 0.048400
v 0.224769 0.082275 0.132440
v 0.225163 0.148263 0.131422
v 0.148012 0.377248 0.132856
v 0.157286 0.389220 0.048602
v 0.203859 0.331230 0.047244
v 0.193692 0.326058 0.127969
v 0.093757 -0.041548 -0.015805
v 0.194530 0.012389 -0.139242
v 0.104717 -0.050818 -0.140024
v 0.078836 -0.027999 0.102416
v 0.000484 -0.065626 -0.018740
v 0.000484 -0.051417 0.100633
v 0.142576 0.369999 0.208035
v 0.182443 0.320429 0.203401
v 0.173085 0.304397 0.282417
v 0.134977 0.353606 0.286761
v 0.075815 0.398825 0.210257
v 0.000484 0.398599 0.209789
v 0.000484 0.405872 0.128851
v 0.077092 0.405325 0.130946
v 0.170408 0.271408 0.360812
v 0.129380 0.323436 0.375890
v 0.074603 0.357937 0.390604
v 0.000484 0.369274 0.390388
v 0.000484 0.389112 0.299581
v 0.073565 0.386760 0.296418
v 0.137306 0.273169 0.428404
v 0.155478 0.224280 0.414794
v 0.233694 0.160890 0.209374
v 0.231630 0.098098 0.208707
v 0.210982 0.086719 0.284834
v 0.214258 0.143230 0.302620
v 0.161612 0.074205 0.357712
v 0.180609 0.099112 0.337832
v 0.178096 0.037966 0.331307
v 0.169138 0.024685 0.343968
v 0.000484 -0.052945 0.141010
v 0.059384 -0.038485 0.144897
v 0.053372 -0.049458 0.219979
v 0.000484 -0.055377 0.205278
v 0.000484 -0.071216 0.278219
v 0.052002 -0.065389 0.283324
v 0.068267 -0.069112 0.330785
v 0.121685 -0.024103 0.344676
v 0.107626 -0.023941 0.302583
v 0.157537 0.456383 -0.512404
v 0.207756 0.398031 -0.502941
v 0.219642 0.381191 -0.426136
v 0.159504 0.462305 -0.431146
v 0.094174 0.471907 -0.593106
v 0.177793 0.420444 -0.568048
v 0.082372 0.496312 -0.518283
v 0.170879 0.400457 -0.634405
v 0.096823 0.439276 -0.639155
v 0.150712 0.374754 -0.681854
v 0.086804 0.414360 -0.665005
v 0.063133 0.409916 -0.680086
v 0.108116 0.361298 -0.702575
v 0.000484 0.450411 -0.636076
v 0.000484 0.485047 -0.588627
v 0.000484 0.430632 -0.657248
v 0.000484 0.428343 -0.672288
v 0.239628 0.314540 -0.480622
v 0.243073 0.278409 -0.408846
v 0.243757 0.214223 -0.452117
v 0.217849 0.102095 -0.443061
v 0.102229 -0.035554 -0.359977
v 0.086808 -0.011674 -0.474465
v 0.000484 -0.061213 -0.369563
v 0.000484 -0.034719 -0.493368
v 0.062555 0.329386 0.461977
v 0.000484 0.345537 0.474058
v 0.000484 0.421943 -0.683670
v 0.037233 0.404998 -0.688044
v 0.061447 0.361328 -0.705600
v 0.000484 0.501587 -0.516414
v 0.169122 0.455188 -0.337251
v 0.228753 0.359154 -0.337979
v 0.228295 0.341412 -0.251897
v 0.174114 0.442683 -0.247110
v 0.169784 0.407555 -0.049603
v 0.102339 0.031558 -0.490340
v 0.166858 0.053894 -0.433362
v 0.201934 0.097449 -0.684867
v 0.211439 0.174713 -0.689653
v 0.149091 0.192013 -0.743789
v 0.143544 0.108239 -0.735370
v 0.077021 0.213687 -0.763883
v 0.072358 0.126804 -0.752382
v 0.199833 0.023643 -0.537318
v 0.163307 0.002320 -0.484113
v 0.179820 0.036673 -0.455442
v 0.223673 0.075070 -0.507637
v 0.138105 0.046794 -0.719331
v 0.201469 0.039593 -0.685046
v 0.060530 0.062060 -0.732292
v 0.177009 -0.044860 -0.578492
v 0.176565 -0.070285 -0.595815
v 0.148670 -0.073967 -0.548047
v 0.148244 -0.048695 -0.533449
v 0.101158 -0.063376 -0.565070
v 0.103065 -0.036097 -0.555745
v 0.077339 -0.054657 -0.632688
v 0.074353 -0.017309 -0.632313
v 0.113370 -0.055447 -0.692739
v 0.116989 -0.026449 -0.690037
v 0.157182 -0.062773 -0.682310
v 0.170536 -0.035820 -0.677282
v 0.134689 0.005753 -0.703001
v 0.187591 -0.002602 -0.681211
v 0.074470 0.011864 -0.688354
v 0.187304 -0.014284 -0.558012
v 0.153513 -0.024434 -0.510915
v 0.101291 -0.014675 -0.540004
v 0.058556 -0.011211 -0.601349
v 0.021730 0.225719 -0.737013
v 0.017626 0.152068 -0.737191
v 0.155628 0.117315 0.476821
v 0.138851 0.070275 0.518028
v 0.119754 0.093459 0.542278
v 0.142345 0.143205 0.503655
v 0.152533 0.030594 0.402523
v 0.097508 -0.047348 0.372372
v 0.096876 -0.060479 0.416592
v 0.148012 -0.005808 0.446245
v 0.161779 0.121355 0.379891
v 0.161497 0.088016 0.417436
v 0.157060 0.131543 0.437933
v 0.155709 0.170042 0.397208
v 0.117066 0.120607 0.565379
v 0.122863 0.152935 0.540946
v 0.088389 -0.083016 0.464762
v 0.125647 -0.044447 0.495997
v 0.120578 0.032199 0.560925
v 0.099058 0.052297 0.591338
v 0.000484 -0.080049 0.329570
v 0.000484 -0.080757 0.369000
v 0.000484 -0.080920 0.410226
v 0.000484 -0.089218 0.454425
v 0.107084 0.090084 0.574176
v 0.094065 0.072915 0.596653
v 0.080338 0.085828 0.619588
v 0.080126 0.093357 0.631696
v 0.087267 0.105778 0.618766
v 0.085716 0.096538 0.612213
v 0.081241 0.014535 0.617864
v 0.056568 0.026098 0.644836
v 0.065099 0.058826 0.638790
v 0.096816 0.101051 0.590964
v 0.093748 0.102688 0.602150
v 0.097078 0.107762 0.601685
v 0.106721 0.105854 0.581867
v 0.067104 -0.020545 0.641828
v 0.051213 -0.003756 0.662252
v 0.064947 -0.050948 0.655994
v 0.051429 -0.032699 0.678480
v 0.085613 0.150269 0.635787
v 0.059826 0.125745 0.643719
v 0.052778 0.168206 0.650839
v 0.036575 0.121314 0.650743
v 0.000484 0.123402 0.655352
v 0.000484 0.182324 0.649730
v 0.000484 0.242960 0.627635
v 0.066909 0.231555 0.627140
v 0.173018 -0.096897 -0.619217
v 0.167439 -0.133598 -0.651905
v 0.147615 -0.143991 -0.604917
v 0.149472 -0.105241 -0.573111
v 0.102407 -0.097477 -0.583306
v 0.106206 -0.138387 -0.611232
v 0.080578 -0.088205 -0.642965
v 0.079727 -0.133294 -0.660714
v 0.104066 -0.131297 -0.711883
v 0.106298 -0.085738 -0.702494
v 0.110180 -0.187122 -0.703252
v 0.143523 -0.186397 -0.692158
v 0.158523 -0.130534 -0.701653
v 0.160617 -0.191142 -0.659857
v 0.144733 -0.199818 -0.623186
v 0.148296 -0.104475 0.257880
v 0.171376 -0.094131 0.202829
v 0.161281 -0.137467 0.189222
v 0.140478 -0.140993 0.234646
v 0.099735 -0.103432 0.259498
v 0.099423 -0.138928 0.236025
v 0.072502 -0.135859 0.202512
v 0.068622 -0.098393 0.217245
v 0.076314 -0.133650 0.153178
v 0.074769 -0.094727 0.158388
v 0.219826 0.027180 0.131789
v 0.159051 -0.001096 0.093989
v 0.145159 -0.027034 0.100489
v 0.155223 -0.170881 0.181977
v 0.156751 -0.136312 0.142088
v 0.149976 -0.170424 0.146114
v 0.142621 -0.203301 0.153550
v 0.147813 -0.202775 0.178347
v 0.137618 -0.174355 0.222756
v 0.097794 -0.173092 0.222311
v 0.077022 -0.170106 0.190302
v 0.080791 -0.168379 0.150157
v 0.118630 -0.168932 0.129899
v 0.119551 -0.133450 0.126153
v 0.117133 -0.203393 0.138673
v 0.135553 -0.208998 0.213517
v 0.094701 0.000150 0.589299
v 0.080330 -0.021385 0.610139
v 0.073670 -0.037207 0.625036
v 0.068515 -0.093465 0.526041
v 0.102143 -0.059501 0.540522
v 0.025923 -0.046695 0.720877
v 0.000484 -0.042306 0.727126
v 0.000484 -0.017921 0.704954
v 0.028370 -0.021879 0.699944
v 0.044028 -0.095598 0.646314
v 0.046871 -0.103989 0.631598
v 0.038217 -0.117672 0.651739
v 0.036666 -0.108621 0.671804
v 0.011533 -0.095320 0.726249
v 0.016392 -0.092366 0.740717
v 0.027693 -0.093483 0.735956
v 0.027058 -0.097460 0.723833
v 0.017498 -0.106012 0.712019
v 0.029702 -0.104836 0.712029
v 0.000484 -0.097182 0.500520
v 0.000484 -0.115338 0.545428
v 0.059991 -0.089691 0.565516
v 0.034966 -0.108513 0.587964
v 0.000484 -0.122780 0.581560
v 0.024369 -0.117988 0.613331
v 0.038024 -0.109421 0.619903
v 0.056587 -0.092157 0.594044
v 0.096785 0.192108 0.621553
v 0.119917 0.170863 0.583721
v 0.101781 0.127491 0.609415
v 0.054265 -0.076555 0.686066
v 0.044103 -0.058919 0.706189
v 0.000484 0.000407 -0.556300
v 0.025987 0.030201 -0.610685
v 0.000484 0.032050 -0.612989
v 0.000484 0.241444 -0.721242
v 0.000484 0.177730 -0.710526
v 0.004391 0.169539 -0.717127
v 0.002039 0.117309 -0.682871
v 0.000484 0.123839 -0.680406
v 0.077526 0.075470 0.629429
v 0.065472 0.087978 0.642781
v 0.037070 0.082949 0.655868
v 0.000484 0.085601 0.660607
v 0.057974 0.016361 -0.556060
v 0.048612 0.003341 -0.594648
v 0.133546 0.187703 0.519748
v 0.058937 -0.092319 0.670582
v 0.053004 -0.104933 0.659685
v 0.051662 -0.109607 0.687833
v 0.021206 0.406803 -0.697860
v 0.000484 0.419804 -0.693750
v 0.024181 0.367546 -0.708222
v 0.234254 0.090572 -0.608229
v 0.224358 0.032651 -0.614504
v 0.183284 -0.067380 -0.649622
v 0.167179 -0.096094 -0.667305
v 0.210443 -0.010511 -0.624519
v 0.195802 -0.044247 -0.635060
v 0.174697 0.013144 0.326166
v 0.146974 -0.060055 0.282259
v 0.182970 -0.058321 0.238634
v 0.099572 -0.061953 0.276611
v 0.065651 -0.064389 0.227082
v 0.068719 -0.058811 0.154632
v 0.168874 -0.091743 0.144240
v 0.124309 -0.092135 0.122461
v 0.246625 0.171720 -0.606613
v 0.245725 0.156468 -0.512735
v 0.243792 0.245107 -0.329811
v 0.230653 0.213383 0.127273
v 0.217685 0.201128 0.291257
v 0.184569 0.154290 0.345495
v 0.185355 0.212648 0.355733
v 0.200958 0.253010 0.287038
v 0.196752 0.320870 -0.689673
v 0.219876 0.340519 -0.623106
v 0.233141 0.341188 -0.550583
v 0.252439 0.252559 -0.523103
v 0.216100 0.256623 -0.687665
v 0.152512 0.291173 -0.737220
v 0.082155 0.101257 0.602889
v 0.088547 0.096240 0.596277
v 0.077880 0.091361 0.601355
v 0.089633 0.101557 0.595975
v 0.082958 0.104300 0.600271
v 0.081454 0.100360 0.607787
v 0.078734 0.093345 0.612364
v 0.080142 0.089308 0.610626
v 0.083309 -0.062950 0.570533
v 0.054827 -0.074008 0.615578
v 0.067915 -0.059188 0.595368
v 0.072929 -0.072821 0.587023
v 0.065560 -0.085430 0.607083
v 0.017836 -0.117517 0.678405
v 0.021551 -0.128695 0.663174
v 0.000484 -0.055661 0.741114
v 0.023656 -0.059653 0.735926
v 0.025876 -0.063806 0.747151
v 0.000484 -0.061350 0.752161
v 0.037855 -0.116812 0.686246
v 0.046468 -0.116996 0.695908
v 0.044009 -0.101528 0.722516
v 0.039323 -0.085290 0.739494
v 0.045572 -0.076786 0.735128
v 0.054112 -0.097522 0.717777
v 0.081996 0.069530 0.620903
v 0.083760 0.081036 0.616002
v 0.032748 0.060429 0.659610
v 0.000484 0.062018 0.663929
v 0.186848 -0.015748 0.263158
v 0.207626 -0.015143 0.195986
v 0.184586 -0.060883 0.180935
v 0.132090 -0.056493 0.110561
v 0.183899 -0.059379 0.129184
v 0.204859 -0.020134 0.130412
v 0.091187 -0.195632 -0.669975
v 0.106305 -0.191671 -0.625302
v 0.153866 -0.090736 -0.701638
v 0.246762 0.262879 -0.608251
v 0.073581 0.302839 -0.744993
v 0.027175 0.308001 -0.722206
v 0.000484 0.309895 -0.715136
v 0.020051 -0.124259 0.638555
v 0.032780 -0.119163 0.637448
v 0.054587 -0.089840 0.708759
v 0.042617 -0.071600 0.725393
v 0.069304 -0.071225 0.642490
v 0.064566 -0.082045 0.626904
v 0.077640 -0.051997 0.620226
v 0.070984 -0.062703 0.604263
v 0.100825 -0.034466 0.555240
v 0.085886 -0.049246 0.584504
v 0.129806 0.009364 0.539614
v 0.130194 -0.015382 0.520119
v 0.099113 -0.017142 0.568722
v 0.150894 0.045636 0.499303
v 0.153644 0.017483 0.479984
v 0.162681 0.085817 0.456437
v 0.162668 0.047834 0.440918
v 0.119813 0.225796 0.475359
v 0.142278 0.174797 0.458374
v 0.099292 0.270555 0.491706
v 0.103923 0.310484 0.434040
v 0.222507 0.038016 0.204608
v 0.223571 0.218895 0.206198
v 0.206660 0.271132 0.203715
v 0.218973 0.273358 0.125208
v 0.019323 -0.122862 0.690273
v 0.100090 0.007257 -0.522664
v 0.105916 0.028334 -0.504148
v 0.028788 0.021928 -0.652091
v 0.005644 0.096190 -0.707694
v 0.063536 0.301851 0.523703
v 0.000484 0.318245 0.539018
v 0.000484 0.287226 0.588029
v 0.064477 0.262139 0.578792
v 0.246296 0.215109 -0.155056
v 0.242026 0.106499 -0.146266
v 0.200914 0.016967 -0.249731
v 0.247045 0.114364 -0.245917
v 0.083839 0.487489 -0.240481
v 0.000484 0.488998 -0.238349
v 0.000484 0.470335 -0.143898
v 0.085288 0.468728 -0.145787
v 0.000484 -0.080800 -0.143831
v 0.107338 -0.047668 -0.255610
v 0.000484 -0.080045 -0.260242
v 0.174272 0.427637 -0.152159
v 0.229569 0.331070 -0.158243
v 0.249148 0.224069 -0.247262
v 0.081778 -0.042056 0.608885
v 0.096718 0.094943 0.590137
v 0.091065 0.082621 0.604303
v 0.076991 0.114938 0.633363
v 0.000484 -0.093318 0.742484
v 0.000484 -0.073609 0.754187
v 0.023067 -0.074919 0.751249
v 0.000484 -0.104150 0.728089
v 0.018720 -0.117245 0.702093
v 0.000484 -0.117498 0.703169
v 0.000484 -0.110802 0.716018
v 0.036789 -0.114254 0.702659
v 0.000484 -0.124088 0.692136
v 0.000484 -0.131037 0.663110
v 0.000484 -0.119563 0.680107
v 0.030503 0.008374 0.680721
v 0.032087 0.037056 0.666336
v 0.000484 -0.127274 0.638299
v 0.000484 -0.124960 0.611508
v 0.200233 0.032386 0.275983
v 0.134437 0.181514 0.556295
v 0.000484 0.357629 -0.716457
v 0.086787 -0.034947 0.593321
v 0.084793 -0.050362 0.599552
v 0.129186 0.266727 0.676856
v 0.111375 0.251422 0.687999
v 0.098608 0.251586 0.655401
v 0.118974 0.257134 0.644215
v 0.150503 0.269111 0.713631
v 0.138911 0.259067 0.717601
v 0.154254 0.271795 0.665160
v 0.149050 0.255259 0.621704
v 0.083748 0.238092 0.655205
v 0.086431 0.222790 0.662890
v 0.081214 0.210197 0.630025
v 0.103205 0.229613 0.685666
v 0.126052 0.243301 0.704902
v 0.174621 0.223819 0.620035
v 0.161562 0.191127 0.582649
v 0.115318 0.228561 0.591010
v 0.128147 0.236828 0.641585
v 0.102698 0.215417 0.639411
v 0.144159 0.254541 0.686862
v 0.162899 0.256597 0.662872
v 0.158222 0.258922 0.719092
v 0.151571 0.254720 0.726571
v 0.167443 0.260661 0.734342
v 0.165563 0.259547 0.706907
v 0.115589 0.261880 0.595011
v 0.079056 0.258713 0.619453
v 0.091675 0.253968 0.536072
v 0.146414 0.241828 0.568378
v 0.117245 0.224778 0.500920
v 0.162588 0.270434 0.708638
v 0.167655 0.205233 0.568845
v 0.182648 0.234018 0.615521
v 0.173931 0.262129 0.659148
v 0.166916 0.264311 0.703974
v 0.153855 -0.020465 0.309710
v 0.062485 -0.056781 0.602122
v 0.072182 -0.051406 0.593763
v 0.082186 -0.203215 0.150502
v 0.083005 -0.203045 0.182518
v 0.098432 -0.205308 0.212771
v 0.000484 0.040492 0.671368
v 0.000484 0.013285 0.686436
v 0.138982 -0.240019 -0.689767
v 0.112532 -0.241188 -0.698336
v 0.092766 -0.242355 -0.681461
v 0.094688 -0.239279 -0.656777
v 0.112305 -0.318014 -0.674126
v 0.141341 -0.318246 -0.673541
v 0.140403 -0.302572 -0.675711
v 0.112509 -0.301540 -0.678350
v 0.091460 -0.330812 -0.653572
v 0.113047 -0.327475 -0.671496
v 0.090700 -0.318449 -0.659709
v 0.156168 -0.315718 -0.614178
v 0.163149 -0.317394 -0.652964
v 0.164907 -0.334640 -0.646551
v 0.157462 -0.335258 -0.602268
v 0.131366 -0.318483 -0.613536
v 0.131095 -0.336030 -0.615205
v 0.091440 -0.282182 -0.647510
v 0.090687 -0.300329 -0.636431
v 0.092802 -0.300855 -0.664251
v 0.091261 -0.284463 -0.675125
v 0.109815 -0.317807 -0.604146
v 0.116991 -0.336082 -0.593198
v 0.092633 -0.333336 -0.618744
v 0.090529 -0.318578 -0.624601
v 0.158709 -0.301873 -0.657959
v 0.138646 -0.285292 -0.685023
v 0.112304 -0.281687 -0.694788
v 0.150687 -0.298952 -0.625163
v 0.144387 -0.284158 -0.634659
v 0.152597 -0.285745 -0.660768
v 0.126114 -0.282859 -0.625528
v 0.128631 -0.298279 -0.618996
v 0.106222 -0.282147 -0.627063
v 0.108513 -0.298169 -0.617889
v 0.147679 -0.242856 -0.634690
v 0.153481 -0.239575 -0.662706
v 0.129331 -0.240243 -0.625783
v 0.120140 -0.272978 -0.704988
v 0.133420 -0.274401 -0.700609
v 0.089902 -0.273705 -0.691486
v 0.102002 -0.272291 -0.702675
v 0.107638 -0.237956 -0.631508
v 0.141968 -0.332391 -0.672074
v 0.124200 -0.314177 -0.698583
v 0.122440 -0.314180 -0.699313
v 0.122119 -0.314270 -0.697957
v 0.123938 -0.314235 -0.697164
v 0.097944 -0.311643 -0.697657
v 0.096168 -0.311644 -0.695823
v 0.096942 -0.312048 -0.694587
v 0.098800 -0.312031 -0.696415
v 0.118607 -0.301141 -0.691206
v 0.128325 -0.301616 -0.688142
v 0.120307 -0.300472 -0.699592
v 0.128674 -0.300712 -0.696271
v 0.095918 -0.301916 -0.681988
v 0.104852 -0.301693 -0.688881
v 0.093679 -0.300116 -0.689442
v 0.100484 -0.299900 -0.696545
v 0.116913 -0.331283 -0.658176
v 0.125559 -0.337315 -0.634676
v 0.158147 -0.338980 -0.642578
v 0.138096 -0.334898 -0.669062
v 0.096080 -0.333431 -0.652686
v 0.098565 -0.337580 -0.620377
v 0.129642 -0.340286 -0.620072
v 0.153994 -0.341283 -0.606810
v 0.119413 -0.341587 -0.596420
v 0.113676 -0.329931 -0.669051
v 0.120836 -0.311435 -0.695750
v 0.124997 -0.311266 -0.693936
v 0.121538 -0.311371 -0.699450
v 0.125573 -0.311329 -0.697779
v 0.097058 -0.309921 -0.690540
v 0.100943 -0.309904 -0.694514
v 0.095544 -0.309115 -0.693894
v 0.099040 -0.309079 -0.697708
v 0.137482 -0.240605 0.146940
v 0.109152 -0.241813 0.137522
v 0.084661 -0.241195 0.154084
v 0.086813 -0.237850 0.180386
v 0.108792 -0.315172 0.159490
v 0.141813 -0.315399 0.162443
v 0.139885 -0.300087 0.161332
v 0.108509 -0.299857 0.153302
v 0.085190 -0.328373 0.175266
v 0.110186 -0.324248 0.162167
v 0.084821 -0.315520 0.173430
v 0.149615 -0.311425 0.223726
v 0.162787 -0.313263 0.184919
v 0.162319 -0.330612 0.193057
v 0.149394 -0.329651 0.232299
v 0.127653 -0.311151 0.219308
v 0.129039 -0.328203 0.219202
v 0.082732 -0.274141 0.186702
v 0.084351 -0.297978 0.196879
v 0.087787 -0.299308 0.170482
v 0.084426 -0.282662 0.158466
v 0.105791 -0.310964 0.229440
v 0.111929 -0.332456 0.237360
v 0.085374 -0.331225 0.207238
v 0.082797 -0.316410 0.204018
v 0.157055 -0.297807 0.181096
v 0.137716 -0.281718 0.151304
v 0.108407 -0.277582 0.142609
v 0.147802 -0.292544 0.212192
v 0.143784 -0.271263 0.204245
v 0.153065 -0.274877 0.176044
v 0.122494 -0.270098 0.215638
v 0.124666 -0.293208 0.215096
v 0.096543 -0.270200 0.208781
v 0.102580 -0.292925 0.218757
v 0.142169 -0.238839 0.204789
v 0.144407 -0.238024 0.175957
v 0.121029 -0.238262 0.215465
v 0.118375 -0.270548 0.131275
v 0.132595 -0.271435 0.135645
v 0.083649 -0.271612 0.142518
v 0.097407 -0.270441 0.133586
v 0.097000 -0.236843 0.206417
v 0.141326 -0.328621 0.165620
v 0.127492 -0.312119 0.139615
v 0.125569 -0.312095 0.138478
v 0.125066 -0.312122 0.139852
v 0.127022 -0.312254 0.140903
v 0.091768 -0.308939 0.137983
v 0.089597 -0.308933 0.139506
v 0.090336 -0.309372 0.140739
v 0.092579 -0.309359 0.139221
v 0.119111 -0.298412 0.142595
v 0.128609 -0.299480 0.148343
v 0.121792 -0.297429 0.135657
v 0.130616 -0.297922 0.141385
v 0.091399 -0.299548 0.151610
v 0.099421 -0.298526 0.145445
v 0.088257 -0.296985 0.144537
v 0.095553 -0.296593 0.138766
v 0.113864 -0.327291 0.173272
v 0.123435 -0.331860 0.200188
v 0.151486 -0.333736 0.196938
v 0.136716 -0.331097 0.167966
v 0.090239 -0.330578 0.175342
v 0.092370 -0.334922 0.204624
v 0.129155 -0.332622 0.215710
v 0.146118 -0.334127 0.227627
v 0.112865 -0.336590 0.231318
v 0.110785 -0.326365 0.163574
v 0.123079 -0.309296 0.141176
v 0.127467 -0.309347 0.143925
v 0.124410 -0.309017 0.138076
v 0.128802 -0.309173 0.140682
v 0.090845 -0.307315 0.144628
v 0.095105 -0.307247 0.141362
v 0.089082 -0.306436 0.141383
v 0.093172 -0.306408 0.138195
v 0.070266 -0.000285 -0.511515
v -0.014342 0.297785 -0.815455
v -0.018596 0.303771 -0.784649
v -0.004288 0.313043 -0.785104
v -0.003353 0.319787 -0.800142
v 0.013901 0.405290 -0.728048
v -0.001136 0.397637 -0.737968
v -0.001053 0.426040 -0.708918
v 0.014100 0.420508 -0.714955
v 0.009348 0.462409 -0.729833
v 0.001455 0.462993 -0.702390
v -0.010588 0.473473 -0.698839
v -0.003143 0.471691 -0.736391
v -0.005047 0.451445 -0.718521
v -0.013891 0.452155 -0.707505
v -0.002544 0.454628 -0.706876
v 0.006100 0.453684 -0.722515
v -0.012750 0.337121 -0.766183
v -0.026553 0.335009 -0.756832
v -0.030819 0.373930 -0.720729
v -0.022094 0.377506 -0.725327
v -0.027179 0.341370 -0.785997
v -0.014757 0.343051 -0.775803
v -0.022718 0.380729 -0.733066
v -0.031120 0.380740 -0.736788
v 0.013029 0.437842 -0.742611
v -0.001361 0.438124 -0.754193
v -0.001628 0.438935 -0.725161
v 0.008960 0.439010 -0.731365
v -0.012584 0.328324 -0.805245
v -0.021101 0.319700 -0.815912
v -0.036998 0.311327 -0.797767
v -0.034728 0.306875 -0.785473
v -0.016808 0.403108 -0.726361
v -0.023905 0.367085 -0.708297
v -0.020846 0.406315 -0.697727
v -0.015934 0.416832 -0.712213
v -0.023935 0.463776 -0.703192
v -0.015504 0.461198 -0.727809
v -0.013635 0.453996 -0.720078
v -0.022979 0.454265 -0.706253
v -0.039546 0.331510 -0.766237
v -0.039723 0.374770 -0.724247
v -0.039765 0.378538 -0.732290
v -0.039786 0.338335 -0.776339
v -0.014818 0.435912 -0.740447
v -0.011819 0.436371 -0.727042
v -0.034348 0.323079 -0.803936
v -0.027574 0.415064 -0.690735
v -0.017568 0.418251 -0.696829
v -0.019656 0.420444 -0.706879
v -0.028925 0.419814 -0.710669
v -0.036871 0.415589 -0.695545
v -0.036967 0.417810 -0.704871
v -0.007342 0.445726 -0.690586
v -0.019477 0.447742 -0.682874
v -0.021452 0.442434 -0.704268
v -0.011310 0.444361 -0.700504
v -0.030769 0.445777 -0.690817
v -0.029888 0.442885 -0.700083
v -0.237271 0.205174 0.047982
v -0.242448 0.209979 -0.050319
v -0.223737 0.316419 -0.041394
v -0.227667 0.279110 0.045972
v -0.233158 0.108908 -0.036183
v -0.225112 0.123057 0.058705
v -0.175175 0.037239 0.076886
v -0.179638 0.019443 -0.021307
v -0.238004 0.135959 -0.328182
v -0.190026 0.037363 -0.339007
v -0.182723 0.068189 -0.402535
v -0.233033 0.171400 -0.393653
v -0.079006 0.498142 -0.332488
v -0.075982 0.500797 -0.429367
v -0.079020 0.420259 0.048385
v -0.082668 0.443391 -0.046029
v -0.224194 0.148263 0.131422
v -0.223801 0.082275 0.132440
v -0.147044 0.377248 0.132856
v -0.192724 0.326058 0.127969
v -0.202890 0.331230 0.047244
v -0.156317 0.389220 0.048602
v -0.092789 -0.041548 -0.015805
v -0.103749 -0.050818 -0.140024
v -0.193562 0.012389 -0.139242
v -0.077868 -0.027999 0.102416
v -0.141608 0.369999 0.208035
v -0.134009 0.353606 0.286761
v -0.172117 0.304397 0.282417
v -0.181475 0.320429 0.203401
v -0.074847 0.398825 0.210257
v -0.076124 0.405325 0.130946
v -0.128412 0.323436 0.375890
v -0.169440 0.271408 0.360812
v -0.073635 0.357937 0.390604
v -0.072596 0.386760 0.296418
v -0.136338 0.273169 0.428404
v -0.154510 0.224280 0.414794
v -0.232725 0.160890 0.209374
v -0.213289 0.143230 0.302620
v -0.210013 0.086719 0.284834
v -0.230662 0.098098 0.208707
v -0.168169 0.024685 0.343968
v -0.160644 0.074205 0.357712
v -0.058416 -0.038485 0.144897
v -0.052404 -0.049458 0.219979
v -0.051034 -0.065389 0.283324
v -0.106658 -0.023941 0.302583
v -0.120717 -0.024103 0.344676
v -0.067298 -0.069112 0.330785
v -0.156569 0.456383 -0.512404
v -0.158536 0.462305 -0.431146
v -0.218674 0.381191 -0.426136
v -0.206788 0.398031 -0.502941
v -0.093206 0.471907 -0.593106
v -0.081404 0.496312 -0.518283
v -0.176824 0.420444 -0.568048
v -0.169911 0.400457 -0.634405
v -0.095855 0.439276 -0.639155
v -0.149744 0.374754 -0.681854
v -0.107148 0.361298 -0.702575
v -0.062165 0.409916 -0.680086
v -0.085836 0.414360 -0.665005
v -0.238660 0.314540 -0.480622
v -0.242105 0.278409 -0.408846
v -0.216881 0.102095 -0.443061
v -0.242789 0.214223 -0.452117
v -0.101261 -0.035554 -0.359977
v -0.085840 -0.011674 -0.474465
v -0.061587 0.329386 0.461977
v -0.036264 0.404998 -0.688044
v -0.060479 0.361328 -0.705600
v -0.168154 0.455188 -0.337251
v -0.173146 0.442683 -0.247110
v -0.227327 0.341412 -0.251897
v -0.227785 0.359154 -0.337979
v -0.168816 0.407555 -0.049603
v -0.101371 0.031558 -0.490340
v -0.165890 0.053894 -0.433362
v -0.200965 0.097449 -0.684867
v -0.142576 0.108239 -0.735370
v -0.148123 0.192013 -0.743789
v -0.210471 0.174713 -0.689653
v -0.071390 0.126804 -0.752382
v -0.076053 0.213687 -0.763883
v -0.198864 0.023643 -0.537318
v -0.222704 0.075070 -0.507637
v -0.178852 0.036673 -0.455442
v -0.162339 0.002320 -0.484113
v -0.137137 0.046794 -0.719332
v -0.200501 0.039593 -0.685046
v -0.059562 0.062060 -0.732292
v -0.176041 -0.044860 -0.578492
v -0.147275 -0.048695 -0.533449
v -0.147702 -0.073967 -0.548047
v -0.175597 -0.070285 -0.595815
v -0.102097 -0.036097 -0.555745
v -0.100190 -0.063376 -0.565070
v -0.073384 -0.017309 -0.632313
v -0.076371 -0.054657 -0.632688
v -0.116021 -0.026449 -0.690037
v -0.112402 -0.055447 -0.692740
v -0.169568 -0.035820 -0.677282
v -0.156214 -0.062773 -0.682310
v -0.133720 0.005753 -0.703001
v -0.186623 -0.002602 -0.681211
v -0.073502 0.011864 -0.688354
v -0.186336 -0.014284 -0.558012
v -0.152545 -0.024434 -0.510915
v -0.100323 -0.014675 -0.540004
v -0.057588 -0.011211 -0.601349
v -0.016658 0.152068 -0.737191
v -0.020761 0.225719 -0.737013
v -0.154660 0.117315 0.476821
v -0.141377 0.143205 0.503655
v -0.118786 0.093459 0.542278
v -0.137882 0.070275 0.518028
v -0.151565 0.030594 0.402523
v -0.096540 -0.047348 0.372372
v -0.147043 -0.005808 0.446245
v -0.095908 -0.060479 0.416592
v -0.160811 0.121355 0.379891
v -0.154741 0.170042 0.397208
v -0.156092 0.131543 0.437933
v -0.160529 0.088016 0.417436
v -0.116097 0.120607 0.565379
v -0.121895 0.152935 0.540946
v -0.087420 -0.083016 0.464762
v -0.124679 -0.044447 0.495997
v -0.119609 0.032199 0.560925
v -0.098090 0.052297 0.591338
v -0.106115 0.090084 0.574176
v -0.093097 0.072915 0.596653
v -0.079370 0.085828 0.619588
v -0.084748 0.096538 0.612213
v -0.086299 0.105778 0.618766
v -0.079158 0.093357 0.631696
v -0.064131 0.058826 0.638790
v -0.055599 0.026098 0.644836
v -0.080273 0.014535 0.617864
v -0.095848 0.101051 0.590964
v -0.105753 0.105854 0.581867
v -0.096110 0.107762 0.601685
v -0.092780 0.102688 0.602150
v -0.066136 -0.020545 0.641828
v -0.050245 -0.003756 0.662252
v -0.050460 -0.032699 0.678480
v -0.063979 -0.050948 0.655994
v -0.058858 0.125745 0.643719
v -0.084645 0.150269 0.635787
v -0.051809 0.168206 0.650839
v -0.035607 0.121314 0.650743
v -0.065941 0.231555 0.627140
v -0.172050 -0.096897 -0.619217
v -0.148504 -0.105241 -0.573111
v -0.146647 -0.143991 -0.604917
v -0.166470 -0.133598 -0.651905
v -0.101439 -0.097477 -0.583306
v -0.105238 -0.138387 -0.611232
v -0.079610 -0.088205 -0.642965
v -0.078758 -0.133294 -0.660714
v -0.103098 -0.131297 -0.711884
v -0.105330 -0.085738 -0.702494
v -0.109212 -0.187122 -0.703252
v -0.157555 -0.130534 -0.701653
v -0.142555 -0.186397 -0.692158
v -0.159649 -0.191142 -0.659857
v -0.143765 -0.199818 -0.623186
v -0.147327 -0.104475 0.257880
v -0.139510 -0.140993 0.234646
v -0.160313 -0.137467 0.189222
v -0.170408 -0.094131 0.202829
v -0.098767 -0.103432 0.259498
v -0.098455 -0.138928 0.236025
v -0.071534 -0.135859 0.202512
v -0.067654 -0.098393 0.217245
v -0.075345 -0.133650 0.153178
v -0.073801 -0.094727 0.158388
v -0.218857 0.027180 0.131789
v -0.158083 -0.001096 0.093989
v -0.144190 -0.027034 0.100489
v -0.154254 -0.170881 0.181977
v -0.149008 -0.170424 0.146114
v -0.155783 -0.136312 0.142088
v -0.141652 -0.203301 0.153550
v -0.146845 -0.202775 0.178347
v -0.136650 -0.174355 0.222756
v -0.096826 -0.173092 0.222311
v -0.076054 -0.170106 0.190302
v -0.079822 -0.168379 0.150157
v -0.118583 -0.133450 0.126153
v -0.117662 -0.168932 0.129899
v -0.116165 -0.203393 0.138673
v -0.134585 -0.208998 0.213517
v -0.093732 0.000150 0.589299
v -0.079362 -0.021385 0.610139
v -0.072702 -0.037207 0.625036
v -0.067547 -0.093465 0.526041
v -0.101175 -0.059501 0.540522
v -0.024955 -0.046695 0.720877
v -0.027402 -0.021879 0.699944
v -0.043059 -0.095598 0.646314
v -0.035698 -0.108621 0.671804
v -0.037249 -0.117672 0.651739
v -0.045903 -0.103989 0.631598
v -0.010565 -0.095320 0.726249
v -0.026090 -0.097460 0.723833
v -0.026724 -0.093483 0.735956
v -0.015424 -0.092366 0.740717
v -0.016530 -0.106012 0.712019
v -0.028734 -0.104836 0.712029
v -0.059023 -0.089691 0.565516
v -0.033998 -0.108513 0.587964
v -0.023401 -0.117988 0.613331
v -0.055618 -0.092157 0.594044
v -0.037055 -0.109421 0.619903
v -0.100813 0.127491 0.609415
v -0.118949 0.170863 0.583721
v -0.095817 0.192108 0.621553
v -0.053297 -0.076555 0.686066
v -0.043135 -0.058919 0.706189
v -0.025018 0.030201 -0.610685
v -0.003423 0.169539 -0.717127
v -0.001071 0.117309 -0.682871
v -0.076558 0.075470 0.629429
v -0.064504 0.087978 0.642781
v -0.036102 0.082949 0.655868
v -0.047644 0.003341 -0.594648
v -0.057006 0.016361 -0.556060
v -0.132578 0.187703 0.519748
v -0.052036 -0.104933 0.659685
v -0.057969 -0.092319 0.670582
v -0.050694 -0.109607 0.687833
v -0.233286 0.090572 -0.608229
v -0.223390 0.032651 -0.614504
v -0.182316 -0.067380 -0.649623
v -0.166211 -0.096094 -0.667305
v -0.209475 -0.010511 -0.624519
v -0.194834 -0.044247 -0.635060
v -0.173729 0.013144 0.326166
v -0.199264 0.032386 0.275983
v -0.182002 -0.058321 0.238634
v -0.146006 -0.060055 0.282259
v -0.098604 -0.061953 0.276611
v -0.064683 -0.064389 0.227082
v -0.067751 -0.058811 0.154632
v -0.167906 -0.091743 0.144240
v -0.123341 -0.092135 0.122461
v -0.245656 0.171720 -0.606613
v -0.244756 0.156467 -0.512735
v -0.242824 0.245107 -0.329811
v -0.229685 0.213383 0.127273
v -0.216717 0.201128 0.291257
v -0.199990 0.253010 0.287038
v -0.184387 0.212648 0.355733
v -0.183600 0.154290 0.345495
v -0.195784 0.320870 -0.689673
v -0.218907 0.340519 -0.623106
v -0.251470 0.252559 -0.523103
v -0.232173 0.341188 -0.550583
v -0.215132 0.256623 -0.687665
v -0.151543 0.291173 -0.737220
v -0.087579 0.096240 0.596277
v -0.081187 0.101257 0.602889
v -0.076912 0.091361 0.601355
v -0.088664 0.101557 0.595975
v -0.081990 0.104300 0.600271
v -0.080486 0.100360 0.607787
v -0.077765 0.093345 0.612364
v -0.079174 0.089308 0.610626
v -0.082341 -0.062950 0.570533
v -0.053859 -0.074008 0.615578
v -0.064591 -0.085430 0.607083
v -0.071960 -0.072821 0.587023
v -0.066947 -0.059188 0.595368
v -0.016868 -0.117517 0.678405
v -0.020583 -0.128695 0.663174
v -0.024908 -0.063806 0.747151
v -0.022688 -0.059653 0.735926
v -0.045500 -0.116996 0.695908
v -0.036886 -0.116812 0.686246
v -0.043041 -0.101528 0.722516
v -0.053144 -0.097522 0.717777
v -0.044604 -0.076786 0.735128
v -0.038355 -0.085290 0.739494
v -0.081028 0.069530 0.620903
v -0.082792 0.081036 0.616002
v -0.031780 0.060429 0.659610
v -0.183617 -0.060883 0.180935
v -0.206658 -0.015143 0.195986
v -0.185880 -0.015748 0.263158
v -0.203890 -0.020134 0.130412
v -0.182930 -0.059379 0.129184
v -0.131122 -0.056493 0.110561
v -0.090218 -0.195632 -0.669975
v -0.105336 -0.191671 -0.625302
v -0.152898 -0.090736 -0.701638
v -0.245794 0.262879 -0.608251
v -0.072613 0.302839 -0.744993
v -0.026207 0.308001 -0.722206
v -0.031812 -0.119163 0.637448
v -0.019083 -0.124259 0.638555
v -0.041649 -0.071600 0.725393
v -0.053618 -0.089840 0.708759
v -0.063598 -0.082045 0.626904
v -0.068336 -0.071225 0.642490
v -0.076672 -0.051997 0.620226
v -0.070016 -0.062703 0.604263
v -0.099857 -0.034466 0.555240
v -0.084918 -0.049246 0.584504
v -0.128838 0.009364 0.539614
v -0.098145 -0.017142 0.568722
v -0.129226 -0.015382 0.520119
v -0.149926 0.045636 0.499303
v -0.152676 0.017483 0.479984
v -0.161713 0.085817 0.456437
v -0.161700 0.047834 0.440918
v -0.141310 0.174797 0.458374
v -0.118845 0.225796 0.475359
v -0.102954 0.310484 0.434040
v -0.098324 0.270555 0.491706
v -0.221539 0.038016 0.204608
v -0.222602 0.218895 0.206198
v -0.218004 0.273358 0.125208
v -0.205692 0.271132 0.203715
v -0.018355 -0.122862 0.690273
v -0.099122 0.007257 -0.522664
v -0.104948 0.028334 -0.504148
v -0.027820 0.021928 -0.652091
v -0.004675 0.096190 -0.707694
v -0.062568 0.301851 0.523703
v -0.063509 0.262139 0.578792
v -0.245328 0.215109 -0.155056
v -0.241058 0.106499 -0.146266
v -0.246077 0.114364 -0.245917
v -0.199946 0.016967 -0.249731
v -0.082871 0.487489 -0.240481
v -0.084320 0.468728 -0.145787
v -0.106370 -0.047668 -0.255610
v -0.173303 0.427637 -0.152159
v -0.228601 0.331070 -0.158243
v -0.248180 0.224069 -0.247262
v -0.080810 -0.042056 0.608885
v -0.095750 0.094943 0.590137
v -0.090097 0.082621 0.604303
v -0.076022 0.114938 0.633363
v -0.022099 -0.074919 0.751249
v -0.017752 -0.117245 0.702093
v -0.035820 -0.114254 0.702659
v -0.029535 0.008374 0.680721
v -0.031118 0.037056 0.666336
v -0.133469 0.181514 0.556295
v -0.085819 -0.034947 0.593321
v -0.083825 -0.050362 0.599552
v -0.128218 0.266727 0.676856
v -0.118006 0.257134 0.644215
v -0.097639 0.251586 0.655401
v -0.110407 0.251422 0.687999
v -0.137943 0.259067 0.717601
v -0.149535 0.269111 0.713631
v -0.153286 0.271795 0.665160
v -0.148082 0.255259 0.621704
v -0.080246 0.210198 0.630025
v -0.085462 0.222790 0.662890
v -0.082779 0.238092 0.655205
v -0.102237 0.229613 0.685666
v -0.125084 0.243301 0.704902
v -0.173653 0.223819 0.620035
v -0.127179 0.236828 0.641585
v -0.114350 0.228561 0.591010
v -0.160594 0.191127 0.582649
v -0.101730 0.215418 0.639411
v -0.143191 0.254541 0.686862
v -0.161930 0.256597 0.662872
v -0.150603 0.254720 0.726571
v -0.157254 0.258922 0.719093
v -0.166474 0.260661 0.734342
v -0.164595 0.259547 0.706907
v -0.114620 0.261880 0.595011
v -0.090707 0.253968 0.536072
v -0.078088 0.258713 0.619453
v -0.145446 0.241828 0.568378
v -0.116277 0.224778 0.500920
v -0.161619 0.270434 0.708638
v -0.166687 0.205233 0.568845
v -0.181679 0.234018 0.615521
v -0.172962 0.262129 0.659148
v -0.165948 0.264311 0.703974
v -0.152887 -0.020465 0.309710
v -0.061517 -0.056781 0.602122
v -0.071214 -0.051406 0.593763
v -0.081218 -0.203215 0.150502
v -0.082037 -0.203045 0.182518
v -0.097464 -0.205308 0.212771
v -0.138014 -0.240019 -0.689768
v -0.111564 -0.241188 -0.698336
v -0.091798 -0.242355 -0.681461
v -0.093720 -0.239279 -0.656778
v -0.111337 -0.318014 -0.674126
v -0.111541 -0.301541 -0.678350
v -0.139434 -0.302572 -0.675711
v -0.140373 -0.318246 -0.673541
v -0.090492 -0.330812 -0.653572
v -0.089732 -0.318449 -0.659709
v -0.112078 -0.327475 -0.671496
v -0.155200 -0.315718 -0.614178
v -0.156493 -0.335258 -0.602268
v -0.163939 -0.334640 -0.646551
v -0.162181 -0.317394 -0.652964
v -0.130398 -0.318483 -0.613536
v -0.130127 -0.336030 -0.615205
v -0.090471 -0.282182 -0.647510
v -0.090293 -0.284463 -0.675125
v -0.091834 -0.300855 -0.664251
v -0.089719 -0.300329 -0.636431
v -0.108847 -0.317807 -0.604146
v -0.089561 -0.318578 -0.624601
v -0.091665 -0.333336 -0.618744
v -0.116023 -0.336082 -0.593198
v -0.157740 -0.301873 -0.657959
v -0.137677 -0.285292 -0.685023
v -0.111336 -0.281687 -0.694788
v -0.151628 -0.285745 -0.660768
v -0.143419 -0.284158 -0.634659
v -0.149719 -0.298952 -0.625163
v -0.125146 -0.282859 -0.625528
v -0.127663 -0.298279 -0.618996
v -0.107544 -0.298170 -0.617889
v -0.105253 -0.282147 -0.627063
v -0.146711 -0.242856 -0.634690
v -0.152513 -0.239575 -0.662706
v -0.128363 -0.240243 -0.625783
v -0.132451 -0.274401 -0.700609
v -0.119171 -0.272978 -0.704988
v -0.088934 -0.273705 -0.691486
v -0.101034 -0.272291 -0.702675
v -0.106670 -0.237956 -0.631508
v -0.141000 -0.332391 -0.672074
v -0.123232 -0.314177 -0.698583
v -0.122970 -0.314235 -0.697164
v -0.121150 -0.314270 -0.697957
v -0.121472 -0.314180 -0.699313
v -0.096976 -0.311643 -0.697657
v -0.097832 -0.312031 -0.696415
v -0.095974 -0.312048 -0.694587
v -0.095200 -0.311644 -0.695823
v -0.117639 -0.301141 -0.691206
v -0.127356 -0.301616 -0.688142
v -0.119339 -0.300472 -0.699592
v -0.127706 -0.300712 -0.696271
v -0.094950 -0.301916 -0.681988
v -0.103884 -0.301693 -0.688881
v -0.092710 -0.300117 -0.689442
v -0.099516 -0.299900 -0.696545
v -0.115945 -0.331283 -0.658176
v -0.137128 -0.334898 -0.669062
v -0.157179 -0.338980 -0.642578
v -0.124591 -0.337315 -0.634676
v -0.095111 -0.333431 -0.652686
v -0.097596 -0.337580 -0.620377
v -0.153026 -0.341283 -0.606810
v -0.128674 -0.340286 -0.620072
v -0.118445 -0.341587 -0.596420
v -0.112708 -0.329931 -0.669050
v -0.119867 -0.311435 -0.695750
v -0.124029 -0.311266 -0.693936
v -0.120570 -0.311371 -0.699450
v -0.124605 -0.311329 -0.697779
v -0.096089 -0.309921 -0.690540
v -0.099975 -0.309904 -0.694514
v -0.094576 -0.309115 -0.693894
v -0.098072 -0.309079 -0.697708
v -0.136513 -0.240605 0.146940
v -0.108184 -0.241813 0.137522
v -0.083692 -0.241195 0.154084
v -0.085845 -0.237850 0.180386
v -0.107824 -0.315172 0.159490
v -0.107540 -0.299857 0.153302
v -0.138916 -0.300087 0.161332
v -0.140845 -0.315399 0.162443
v -0.084221 -0.328373 0.175266
v -0.083853 -0.315520 0.173430
v -0.109218 -0.324248 0.162167
v -0.148647 -0.311425 0.223726
v -0.148426 -0.329651 0.232299
v -0.161351 -0.330612 0.193057
v -0.161819 -0.313263 0.184919
v -0.126684 -0.311151 0.219308
v -0.128071 -0.328203 0.219202
v -0.081764 -0.274141 0.186702
v -0.083458 -0.282662 0.158466
v -0.086819 -0.299308 0.170482
v -0.083383 -0.297978 0.196879
v -0.104823 -0.310964 0.229440
v -0.081828 -0.316410 0.204018
v -0.084406 -0.331225 0.207238
v -0.110960 -0.332456 0.237360
v -0.156087 -0.297807 0.181096
v -0.136748 -0.281718 0.151304
v -0.107439 -0.277582 0.142609
v -0.152096 -0.274877 0.176044
v -0.142816 -0.271263 0.204245
v -0.146834 -0.292544 0.212192
v -0.121526 -0.270098 0.215638
v -0.123697 -0.293208 0.215096
v -0.101612 -0.292925 0.218757
v -0.095575 -0.270200 0.208781
v -0.141201 -0.238839 0.204789
v -0.143439 -0.238024 0.175957
v -0.120061 -0.238262 0.215465
v -0.131626 -0.271435 0.135645
v -0.117407 -0.270548 0.131275
v -0.082681 -0.271612 0.142518
v -0.096439 -0.270441 0.133586
v -0.096032 -0.236843 0.206417
v -0.140358 -0.328621 0.165620
v -0.126524 -0.312119 0.139615
v -0.126054 -0.312254 0.140903
v -0.124098 -0.312122 0.139852
v -0.124601 -0.312095 0.138478
v -0.090799 -0.308939 0.137983
v -0.091611 -0.309359 0.139221
v -0.089368 -0.309372 0.140739
v -0.088629 -0.308933 0.139506
v -0.118143 -0.298412 0.142595
v -0.127641 -0.299480 0.148343
v -0.120824 -0.297429 0.135657
v -0.129648 -0.297922 0.141385
v -0.090430 -0.299548 0.151610
v -0.098453 -0.298526 0.145445
v -0.087289 -0.296985 0.144537
v -0.094585 -0.296593 0.138766
v -0.112896 -0.327291 0.173272
v -0.135748 -0.331097 0.167966
v -0.150517 -0.333736 0.196938
v -0.122466 -0.331860 0.200188
v -0.089271 -0.330578 0.175342
v -0.091402 -0.334922 0.204624
v -0.145150 -0.334127 0.227627
v -0.128186 -0.332622 0.215710
v -0.111896 -0.336590 0.231318
v -0.109817 -0.326365 0.163573
v -0.122111 -0.309296 0.141176
v -0.126498 -0.309347 0.143925
v -0.123441 -0.309017 0.138076
v -0.127834 -0.309173 0.140682
v -0.089877 -0.307315 0.144628
v -0.094136 -0.307247 0.141362
v -0.088114 -0.306436 0.141383
v -0.092204 -0.306408 0.138195
v -0.069298 -0.000285 -0.511515
vt 0.213795 0.563597
vt 0.267782 0.558354
vt 0.264309 0.675290
vt 0.217332 0.647033
vt 0.260471 0.451437
vt 0.205647 0.470478
vt 0.196440 0.356085
vt 0.254533 0.341450
vt 0.430217 0.464134
vt 0.438962 0.353520
vt 0.486705 0.373995
vt 0.470078 0.496984
vt 0.405201 0.905765
vt 0.451306 0.911110
vt 0.446562 0.982575
vt 0.401933 0.982575
vt 0.258290 0.982650
vt 0.213370 0.982685
vt 0.216719 0.890666
vt 0.264315 0.890775
vt 0.165051 0.511750
vt 0.158229 0.440864
vt 0.175266 0.804175
vt 0.176257 0.724728
vt 0.218217 0.712194
vt 0.218501 0.795797
vt 0.257069 0.226846
vt 0.323043 0.232267
vt 0.321295 0.342808
vt 0.195496 0.211240
vt 0.204383 0.119988
vt 0.263187 0.120171
vt 0.137300 0.811725
vt 0.096135 0.817182
vt 0.094436 0.745872
vt 0.137066 0.738470
vt 0.136579 0.895365
vt 0.175708 0.892765
vt 0.175409 0.982713
vt 0.135646 0.982740
vt 0.046680 0.815233
vt 0.049588 0.735926
vt 0.043252 0.893291
vt 0.093248 0.897767
vt 0.091255 0.982776
vt 0.046300 0.982822
vt 0.013449 0.842975
vt 0.011986 0.779243
vt 0.012455 0.712872
vt 0.045317 0.667301
vt 0.122183 0.550166
vt 0.068307 0.567790
vt 0.067103 0.502812
vt 0.113726 0.483888
vt 0.035864 0.539029
vt 0.017549 0.522793
vt 0.028315 0.473928
vt 0.017748 0.466059
vt 0.025453 0.447378
vt 0.178790 0.185041
vt 0.184742 0.119951
vt 0.140304 0.171039
vt 0.107619 0.174296
vt 0.107307 0.119285
vt 0.153487 0.119452
vt 0.732628 0.927593
vt 0.748866 0.844878
vt 0.769718 0.832924
vt 0.759732 0.915519
vt 0.498142 0.829035
vt 0.458657 0.823376
vt 0.464394 0.722545
vt 0.500999 0.753630
vt 0.532068 0.894670
vt 0.493585 0.908875
vt 0.528889 0.801042
vt 0.562925 0.810723
vt 0.560062 0.889136
vt 0.591289 0.826551
vt 0.608977 0.868601
vt 0.587672 0.921589
vt 0.578756 0.896541
vt 0.552795 0.982658
vt 0.518307 0.982603
vt 0.576174 0.982704
vt 0.567659 0.982688
vt 0.465459 0.612436
vt 0.499823 0.660195
vt 0.420404 0.693869
vt 0.531476 0.706450
vt 0.516525 0.429407
vt 0.500505 0.550548
vt 0.440815 0.233078
vt 0.501809 0.217946
vt 0.441177 0.120189
vt 0.502746 0.119969
vt 0.005324 0.982872
vt 0.002992 0.906753
vt 0.594507 0.949221
vt 0.583004 0.982719
vt 0.617321 0.922312
vt 0.485620 0.982592
vt 0.413460 0.807838
vt 0.369488 0.797690
vt 0.375687 0.680062
vt 0.269509 0.789202
vt 0.520723 0.253565
vt 0.506343 0.347885
vt 0.674032 0.594058
vt 0.710374 0.695536
vt 0.674993 0.745466
vt 0.646419 0.652158
vt 0.729146 0.809677
vt 0.687524 0.842632
vt 0.741663 0.355963
vt 0.771553 0.361220
vt 0.759772 0.424837
vt 0.737762 0.416388
vt 0.720706 0.159299
vt 0.748944 0.138562
vt 0.754022 0.203309
vt 0.728720 0.220227
vt 0.716436 0.090016
vt 0.746644 0.074059
vt 0.688372 0.331748
vt 0.702246 0.342158
vt 0.691147 0.383720
vt 0.673131 0.368971
vt 0.704150 0.395228
vt 0.720174 0.350577
vt 0.693629 0.442327
vt 0.682668 0.427388
vt 0.666909 0.500507
vt 0.658206 0.470357
vt 0.652377 0.133338
vt 0.661655 0.116002
vt 0.681348 0.177449
vt 0.668017 0.192721
vt 0.690655 0.234225
vt 0.675849 0.237938
vt 0.700905 0.175707
vt 0.708361 0.228584
vt 0.689534 0.120246
vt 0.719639 0.406153
vt 0.703940 0.453906
vt 0.680047 0.504574
vt 0.728949 0.908203
vt 0.691578 0.927029
vt 0.855439 0.648501
vt 0.875862 0.624944
vt 0.893573 0.691466
vt 0.874012 0.710142
vt 0.778987 0.709046
vt 0.803430 0.753089
vt 0.763255 0.752870
vt 0.783920 0.872715
vt 0.825305 0.791581
vt 0.806487 0.881069
vt 0.796974 0.640717
vt 0.817439 0.576073
vt 0.835634 0.625937
vt 0.816513 0.679225
vt 0.908786 0.666568
vt 0.899297 0.625997
vt 0.831390 0.899642
vt 0.849940 0.838673
vt 0.918960 0.747285
vt 0.895154 0.761050
vt 0.911978 0.703304
vt 0.774992 0.998115
vt 0.755408 0.998109
vt 0.795548 0.998123
vt 0.818782 0.998133
vt 0.925053 0.728169
vt 0.942067 0.716808
vt 0.936826 0.705886
vt 0.940877 0.695681
vt 0.948318 0.710771
vt 0.953527 0.751126
vt 0.955007 0.787314
vt 0.931547 0.794097
vt 0.931041 0.694655
vt 0.927809 0.698999
vt 0.923949 0.695227
vt 0.930135 0.689380
vt 0.917687 0.686624
vt 0.934282 0.668798
vt 0.940827 0.837498
vt 0.959263 0.823058
vt 0.960922 0.858543
vt 0.943061 0.872927
vt 0.963728 0.681029
vt 0.951761 0.688938
vt 0.951517 0.650151
vt 0.970625 0.636851
vt 0.977012 0.688298
vt 0.997528 0.622861
vt 0.997524 0.687239
vt 0.997505 0.550911
vt 0.963590 0.566550
vt 0.649517 0.298180
vt 0.665653 0.275873
vt 0.672208 0.320020
vt 0.648177 0.348728
vt 0.666839 0.410100
vt 0.644181 0.386685
vt 0.647124 0.448196
vt 0.630730 0.425908
vt 0.636772 0.207397
vt 0.626478 0.161112
vt 0.642644 0.145279
vt 0.654365 0.200031
vt 0.615600 0.217212
vt 0.645439 0.252450
vt 0.620122 0.251493
vt 0.620629 0.289002
vt 0.617183 0.326620
vt 0.873025 0.118399
vt 0.891310 0.145969
vt 0.882729 0.195146
vt 0.860454 0.173754
vt 0.888534 0.082784
vt 0.903308 0.110518
vt 0.920969 0.085483
vt 0.911254 0.057781
vt 0.884022 0.334353
vt 0.892041 0.381096
vt 0.879014 0.406087
vt 0.866536 0.350751
vt 0.788459 0.212847
vt 0.804299 0.281619
vt 0.781916 0.275877
vt 0.761699 0.204088
vt 0.818342 0.289328
vt 0.839379 0.373338
vt 0.820855 0.359668
vt 0.900466 0.208800
vt 0.896938 0.244961
vt 0.878117 0.243038
vt 0.915388 0.246661
vt 0.917784 0.218940
vt 0.907854 0.166111
vt 0.917320 0.131338
vt 0.930287 0.104157
vt 0.899878 0.322392
vt 0.904955 0.361544
vt 0.878302 0.284487
vt 0.896624 0.280179
vt 0.914907 0.278921
vt 0.926026 0.182568
vt 0.910939 0.804528
vt 0.927296 0.852368
vt 0.920780 0.833308
vt 0.862468 0.920914
vt 0.872876 0.865176
vt 0.983736 0.884141
vt 0.980423 0.849578
vt 0.997531 0.836716
vt 0.997550 0.869140
vt 0.916609 0.941796
vt 0.926121 0.936868
vt 0.926043 0.959425
vt 0.917722 0.963827
vt 0.938386 0.956758
vt 0.936124 0.936092
vt 0.975196 0.982106
vt 0.971769 0.965224
vt 0.978614 0.958008
vt 0.986419 0.969591
vt 0.962935 0.978862
vt 0.963240 0.965981
vt 0.843561 0.998139
vt 0.881748 0.923006
vt 0.867224 0.998146
vt 0.891433 0.956412
vt 0.885291 0.998151
vt 0.903865 0.970715
vt 0.896351 0.925602
vt 0.908914 0.952860
vt 0.923089 0.615893
vt 0.946257 0.601407
vt 0.954691 0.909104
vt 0.969752 0.895968
vt 0.632597 0.002322
vt 0.661257 0.033476
vt 0.666724 0.002334
vt 0.682605 0.982986
vt 0.718771 0.961573
vt 0.702947 0.983066
vt 0.713413 0.003246
vt 0.712654 0.002404
vt 0.946526 0.730357
vt 0.957664 0.720454
vt 0.997516 0.727217
vt 0.975235 0.729895
vt 0.631610 0.052485
vt 0.648424 0.064534
vt 0.893562 0.582272
vt 0.858514 0.575186
vt 0.943628 0.922301
vt 0.949385 0.945415
vt 0.597020 0.969101
vt 0.588148 0.982725
vt 0.623375 0.970199
vt 0.763626 0.272972
vt 0.736734 0.283595
vt 0.683292 0.279434
vt 0.697033 0.284207
vt 0.714929 0.285155
vt 0.844154 0.130442
vt 0.856014 0.079305
vt 0.875002 0.049392
vt 0.903434 0.029309
vt 0.867869 0.429652
vt 0.849792 0.365379
vt 0.853757 0.234849
vt 0.856653 0.289149
vt 0.600280 0.582200
vt 0.550912 0.516976
vt 0.562169 0.428189
vt 0.624255 0.510892
vt 0.423815 0.575947
vt 0.171052 0.586515
vt 0.041180 0.600567
vt 0.081753 0.623902
vt 0.088111 0.681610
vt 0.602925 0.763996
vt 0.566982 0.738278
vt 0.534519 0.611898
vt 0.576699 0.660702
vt 0.617912 0.708642
vt 0.635105 0.798230
vt 0.927145 0.704902
vt 0.931845 0.705095
vt 0.932847 0.710858
vt 0.930950 0.703770
vt 0.933135 0.709389
vt 0.937770 0.711026
vt 0.936868 0.715138
vt 0.888629 0.880786
vt 0.913324 0.905167
vt 0.904339 0.913872
vt 0.895199 0.896897
vt 0.903209 0.885203
vt 0.940117 0.979487
vt 0.929841 0.979116
vt 0.997561 0.891262
vt 0.997561 0.905239
vt 0.987828 0.920990
vt 0.986835 0.906158
vt 0.952459 0.953406
vt 0.946960 0.959078
vt 0.967430 0.949104
vt 0.964959 0.939834
vt 0.976939 0.929287
vt 0.978524 0.940384
vt 0.940530 0.735869
vt 0.938518 0.724063
vt 0.976824 0.753689
vt 0.997511 0.751059
vt 0.011713 0.643975
vt 0.013981 0.582240
vt 0.840396 0.187990
vt 0.816410 0.161334
vt 0.826104 0.095021
vt 0.812235 0.224627
vt 0.833477 0.237674
vt 0.836326 0.292057
vt 0.605702 0.183665
vt 0.610318 0.395865
vt 0.618055 0.362888
vt 0.660733 0.241538
vt 0.647233 0.883909
vt 0.651823 0.942610
vt 0.663658 0.982891
vt 0.922466 0.903489
vt 0.916697 0.977948
vt 0.975353 0.918189
vt 0.962488 0.930565
vt 0.932026 0.891928
vt 0.921654 0.867105
vt 0.912180 0.880134
vt 0.885611 0.840077
vt 0.899483 0.863574
vt 0.879064 0.781467
vt 0.896255 0.821630
vt 0.865663 0.807134
vt 0.858832 0.733787
vt 0.845180 0.763442
vt 0.838688 0.683025
vt 0.825974 0.727278
vt 0.886491 0.516871
vt 0.899178 0.530500
vt 0.869101 0.449372
vt 0.901328 0.400164
vt 0.915672 0.472807
vt 0.760540 0.125701
vt 0.789988 0.141609
vt 0.129177 0.613810
vt 0.175349 0.656830
vt 0.133962 0.675639
vt 0.946894 0.979483
vt 0.911063 0.594597
vt 0.715407 0.466219
vt 0.728040 0.471841
vt 0.527289 0.348770
vt 0.527430 0.249403
vt 0.676902 0.065698
vt 0.648249 0.087778
vt 0.715228 0.030045
vt 0.743765 0.021311
vt 0.742481 0.001905
vt 0.953156 0.456241
vt 0.944821 0.387308
vt 0.997290 0.389430
vt 0.997381 0.441656
vt 0.961505 0.520614
vt 0.997452 0.490699
vt 0.325964 0.556259
vt 0.323277 0.447183
vt 0.380750 0.450174
vt 0.383868 0.346668
vt 0.361080 0.899809
vt 0.354938 0.982589
vt 0.314539 0.894266
vt 0.307442 0.982614
vt 0.326303 0.120325
vt 0.384928 0.234463
vt 0.385626 0.120329
vt 0.322010 0.792084
vt 0.326349 0.676380
vt 0.377823 0.558489
vt 0.916177 0.855113
vt 0.922383 0.703215
vt 0.929797 0.721540
vt 0.988820 0.935823
vt 0.997560 0.919216
vt 0.997256 0.998206
vt 0.969127 0.998144
vt 0.960624 0.998150
vt 0.951737 0.998153
vt 0.953670 0.979478
vt 0.955534 0.961398
vt 0.945360 0.998155
vt 0.927737 0.998160
vt 0.938984 0.998156
vt 0.977866 0.812285
vt 0.976545 0.779015
vt 0.914080 0.998158
vt 0.900275 0.998154
vt 0.802305 0.072516
vt 0.775760 0.052982
vt 0.650166 0.982827
vt 0.907595 0.846541
vt 0.909513 0.861944
vt 0.096913 0.396589
vt 0.093391 0.355916
vt 0.106178 0.353190
vt 0.108220 0.393754
vt 0.100599 0.445550
vt 0.105647 0.440255
vt 0.110894 0.419065
vt 0.083813 0.403087
vt 0.072702 0.353676
vt 0.073357 0.409165
vt 0.121520 0.309015
vt 0.132242 0.315166
vt 0.123493 0.349393
vt 0.114233 0.342410
vt 0.119664 0.380792
vt 0.051845 0.366987
vt 0.043352 0.419762
vt 0.017277 0.381648
vt 0.030320 0.329768
vt 0.138521 0.351330
vt 0.148542 0.324517
vt 0.167199 0.363245
vt 0.142996 0.390392
vt 0.121957 0.431186
vt 0.070979 0.417944
vt 0.071635 0.452061
vt 0.093719 0.467638
vt 0.092000 0.451756
vt 0.103341 0.475422
vt 0.093670 0.479009
vt 0.104077 0.306604
vt 0.080063 0.305375
vt 0.099496 0.257442
vt 0.071605 0.233678
vt 0.055106 0.300792
vt 0.039524 0.219459
vt 0.003742 0.322540
vt 0.015353 0.305521
vt 0.174344 0.304353
vt 0.095741 0.448186
vt 0.054150 0.365207
vt 0.035826 0.317092
vt 0.017406 0.257820
vt 0.092286 0.447949
vt 0.841054 0.509196
vt 0.932000 0.512818
vt 0.818948 0.024327
vt 0.838071 0.043824
vt 0.702368 0.511025
vt 0.684227 0.518830
vt 0.907508 0.885924
vt 0.905183 0.873612
vt 0.956712 0.580381
vt 0.916215 0.316854
vt 0.918509 0.348673
vt 0.939431 0.117469
vt 0.931210 0.146523
vt 0.857575 0.021394
vt 0.135156 0.173240
vt 0.103507 0.243980
vt 0.858785 0.433821
vt 0.729833 0.998097
vt 0.756383 0.758183
vt 0.997510 0.772755
vt 0.997517 0.802106
vt 0.596515 0.246246
vt 0.593504 0.220033
vt 0.591153 0.196189
vt 0.592818 0.394245
vt 0.593603 0.372764
vt 0.559428 0.213040
vt 0.566434 0.215191
vt 0.567946 0.241772
vt 0.560641 0.239399
vt 0.551640 0.187382
vt 0.557995 0.188904
vt 0.555135 0.212600
vt 0.560141 0.265561
vt 0.563741 0.296100
vt 0.553058 0.296741
vt 0.552995 0.266208
vt 0.541911 0.295108
vt 0.552777 0.317939
vt 0.544047 0.318252
vt 0.574336 0.362088
vt 0.576849 0.387451
vt 0.570903 0.384802
vt 0.565650 0.361024
vt 0.541858 0.339082
vt 0.552177 0.338639
vt 0.549658 0.364696
vt 0.546742 0.367391
vt 0.556514 0.362027
vt 0.567151 0.265136
vt 0.577433 0.237867
vt 0.575266 0.221237
vt 0.566202 0.191812
vt 0.575104 0.198153
vt 0.575252 0.265462
vt 0.573967 0.294494
vt 0.573560 0.316877
vt 0.564102 0.317413
vt 0.564124 0.390241
vt 0.563816 0.336701
vt 0.573224 0.337711
vt 0.594853 0.306092
vt 0.596967 0.278935
vt 0.595108 0.326217
vt 0.579351 0.234079
vt 0.580810 0.226269
vt 0.578512 0.194597
vt 0.579547 0.208694
vt 0.595056 0.347672
vt 0.557974 0.391581
vt 0.555540 0.393269
vt 0.539461 0.339588
vt 0.553873 0.238148
vt 0.749423 0.612093
vt 0.750131 0.612480
vt 0.749253 0.615086
vt 0.748610 0.613543
vt 0.576072 0.218635
vt 0.793191 0.520892
vt 0.793815 0.518879
vt 0.795208 0.521992
vt 0.794493 0.522655
vt 0.574704 0.177709
vt 0.761679 0.603278
vt 0.756272 0.590951
vt 0.760002 0.560876
vt 0.777265 0.590895
vt 0.742862 0.594567
vt 0.737445 0.602830
vt 0.729108 0.574366
vt 0.734674 0.552341
vt 0.749906 0.589881
vt 0.745724 0.547221
vt 0.802731 0.540788
vt 0.807024 0.525586
vt 0.824861 0.533277
vt 0.808805 0.568275
vt 0.796838 0.542631
vt 0.795054 0.585385
vt 0.788904 0.539044
vt 0.781824 0.583189
vt 0.782880 0.530857
vt 0.774946 0.561847
vt 0.728878 0.688101
vt 0.717252 0.690666
vt 0.712450 0.659382
vt 0.728698 0.662988
vt 0.739351 0.689503
vt 0.743441 0.658769
vt 0.720233 0.627783
vt 0.729221 0.647910
vt 0.737908 0.629631
vt 0.728604 0.699190
vt 0.539360 0.292992
vt 0.549956 0.266390
vt 0.541492 0.318043
vt 0.553543 0.212356
vt 0.549862 0.190865
vt 0.551251 0.235622
vt 0.753534 0.614124
vt 0.752441 0.607457
vt 0.747067 0.610255
vt 0.745078 0.614211
vt 0.749795 0.607486
vt 0.797868 0.526169
vt 0.798184 0.517506
vt 0.795219 0.527015
vt 0.791843 0.524295
vt 0.789834 0.520500
vt 0.934120 0.258345
vt 0.934316 0.287865
vt 0.934596 0.317391
vt 0.934180 0.344461
vt 0.970645 0.301458
vt 0.962006 0.299449
vt 0.963859 0.266263
vt 0.970638 0.269315
vt 0.978694 0.328204
vt 0.972313 0.328671
vt 0.976280 0.300876
vt 0.975197 0.242746
vt 0.971058 0.207976
vt 0.982727 0.207823
vt 0.984232 0.243803
vt 0.992577 0.210915
vt 0.982632 0.187454
vt 0.991908 0.189339
vt 0.952551 0.350647
vt 0.954674 0.323405
vt 0.964059 0.327538
vt 0.965982 0.355060
vt 0.995429 0.167178
vt 0.984301 0.164770
vt 0.990451 0.130053
vt 0.994774 0.131130
vt 0.982782 0.130643
vt 0.967486 0.240310
vt 0.954114 0.264612
vt 0.950944 0.296613
vt 0.955686 0.236362
vt 0.958260 0.206524
vt 0.960243 0.182134
vt 0.972449 0.184986
vt 0.975758 0.358511
vt 0.974142 0.133328
vt 0.974177 0.162627
vt 0.962426 0.155808
vt 0.964284 0.130028
vt 0.940828 0.199613
vt 0.936350 0.227993
vt 0.943589 0.176604
vt 0.949278 0.272005
vt 0.948999 0.280624
vt 0.950134 0.310536
vt 0.949213 0.298510
vt 0.946213 0.152391
vt 0.950365 0.126437
vt 0.983563 0.358278
vt 0.976493 0.270879
vt 0.700476 0.540529
vt 0.699414 0.539586
vt 0.701187 0.537393
vt 0.702128 0.539361
vt 0.949420 0.289403
vt 0.779041 0.670127
vt 0.779374 0.672608
vt 0.777221 0.674107
vt 0.777430 0.671972
vt 0.687114 0.550480
vt 0.694353 0.560997
vt 0.691272 0.592405
vt 0.670170 0.566489
vt 0.708180 0.561409
vt 0.712738 0.553910
vt 0.725432 0.581696
vt 0.716775 0.601954
vt 0.699856 0.563885
vt 0.705047 0.606307
vt 0.766758 0.671561
vt 0.767210 0.686404
vt 0.752026 0.702218
vt 0.754133 0.659201
vt 0.769438 0.661131
vt 0.757325 0.631398
vt 0.774922 0.652625
vt 0.766920 0.616703
vt 0.780477 0.650877
vt 0.778475 0.619009
vt 0.741961 0.779389
vt 0.730456 0.777606
vt 0.727694 0.746198
vt 0.741258 0.751175
vt 0.753384 0.783627
vt 0.756478 0.755405
vt 0.734543 0.719057
vt 0.740759 0.735005
vt 0.750659 0.724712
vt 0.742063 0.789331
vt 0.994709 0.212134
vt 0.988993 0.247579
vt 0.994866 0.190103
vt 0.997693 0.166881
vt 0.980733 0.325164
vt 0.987045 0.353258
vt 0.978523 0.300168
vt 0.977972 0.273474
vt 0.694945 0.539185
vt 0.697530 0.545207
vt 0.703835 0.543855
vt 0.705967 0.540560
vt 0.699997 0.545519
vt 0.773952 0.674203
vt 0.775067 0.681631
vt 0.775487 0.670000
vt 0.778482 0.665769
vt 0.781008 0.663536
vt 0.697944 0.536789
vt 0.703187 0.538090
vt 0.777726 0.678383
vt 0.780113 0.669145
vt 0.521556 0.198749
vt 0.545909 0.180293
vt 0.536719 0.119762
vt 0.743678 0.002497
vt 0.395696 0.052377
vt 0.412973 0.030345
vt 0.417980 0.041709
vt 0.415492 0.056663
vt 0.596973 0.065305
vt 0.625788 0.060897
vt 0.626649 0.102610
vt 0.598030 0.093115
vt 0.582093 0.020944
vt 0.589698 0.005267
vt 0.603255 0.026986
vt 0.589085 0.040614
vt 0.558571 0.053986
vt 0.556609 0.073075
vt 0.539966 0.058450
vt 0.542443 0.040299
vt 0.540542 0.014464
vt 0.553103 0.015322
vt 0.554416 0.025281
vt 0.542710 0.029104
vt 0.557285 0.040594
vt 0.438302 0.038404
vt 0.476851 0.040896
vt 0.476284 0.056023
vt 0.442473 0.057667
vt 0.431095 0.004800
vt 0.474851 0.016828
vt 0.475942 0.029189
vt 0.436313 0.023777
vt 0.573976 0.084386
vt 0.574634 0.062384
vt 0.571509 0.047829
vt 0.568507 0.031193
vt 0.413632 0.018333
vt 0.403450 0.012586
vt 0.401429 0.094706
vt 0.412845 0.090849
vt 0.429024 0.108670
vt 0.409237 0.106853
vt 0.417420 0.071339
vt 0.412894 0.078697
vt 0.593374 0.118704
vt 0.619663 0.140632
vt 0.571762 0.146585
vt 0.582662 0.135882
vt 0.593139 0.154740
vt 0.576580 0.164330
vt 0.552780 0.091741
vt 0.536992 0.077619
vt 0.536111 0.089047
vt 0.550102 0.102463
vt 0.537689 0.101635
vt 0.436905 0.075815
vt 0.475000 0.070094
vt 0.434282 0.090380
vt 0.473611 0.082862
vt 0.473053 0.096783
vt 0.570855 0.103972
vt 0.565981 0.116244
vt 0.561004 0.126166
vt 0.510056 0.041383
vt 0.507647 0.057897
vt 0.508161 0.014703
vt 0.509886 0.027037
vt 0.506117 0.072145
vt 0.505769 0.084901
vt 0.506328 0.098130
vt 0.549844 0.114939
vt 0.526022 0.057045
vt 0.529178 0.039585
vt 0.530029 0.025728
vt 0.528019 0.012179
vt 0.524175 0.074380
vt 0.524268 0.086160
vt 0.525804 0.097982
vt 0.104379 0.455923
vt 0.108582 0.460459
vt 0.815668 0.003508
vt 0.093669 0.479008
vt -0.002400 0.355772
vt 0.135156 0.173240
vt 0.807124 0.014100
vt 0.041180 0.600567
s 1
f 1/1 4/2 3/3 2/4
f 5/5 8/6 7/7 6/8
f 9/9 12/10 11/11 10/12
f 13/13 16/14 15/15 14/16
f 17/17 20/18 19/19 18/20
f 7/7 8/6 22/21 21/22
f 23/23 26/24 25/25 24/26
f 27/27 29/28 28/29 6/8
f 30/30 32/31 31/32 27/27
f 33/33 36/34 35/35 34/36
f 37/37 40/38 39/39 38/40
f 36/34 42/41 41/42 35/35
f 43/43 46/44 45/45 44/46
f 42/41 369/47 47/48 41/42
f 48/49 299/50 41/42 47/48
f 49/51 52/52 51/53 50/54
f 54/55 53/56 55/57 51/53
f 56/58 285/59 55/57 53/56
f 32/31 30/30 58/60 57/61
f 59/62 62/63 61/64 60/65
f 62/66 65/67 64/68 63/69
f 66/70 69/71 68/72 67/73
f 70/74 72/75 66/70 71/76
f 73/77 74/78 70/74 71/76
f 75/79 78/80 77/81 76/82
f 79/83 80/84 70/74 74/78
f 76/82 77/81 82/85 81/86
f 84/87 83/88 68/72 98/89
f 67/73 68/72 83/88 303/90
f 11/11 86/91 85/92 10/12
f 87/93 88/94 11/11 12/10
f 89/95 90/96 88/94 87/93
f 44/46 92/97 91/98 43/43
f 77/81 94/99 93/100 82/85
f 77/81 78/80 95/101 94/99
f 15/15 16/14 72/75 96/102
f 97/103 100/104 99/105 98/89
f 25/25 3/3 101/106 24/26
f 40/38 19/19 20/18 39/39
f 102/107 103/108 11/11 88/94
f 104/109 107/110 106/111 105/112
f 107/110 109/113 108/114 106/111
f 110/115 113/116 112/117 111/118
f 114/119 107/120 104/121 115/122
f 114/119 116/123 109/124 107/120
f 118/125 117/126 119/127 188/128
f 120/129 119/127 117/126 132/130
f 120/129 122/131 121/132 119/127
f 122/131 124/133 123/134 121/132
f 123/135 124/136 126/137 125/138
f 126/137 128/139 127/140 125/138
f 129/141 130/142 128/139 126/137
f 131/143 129/141 126/137
f 133/144 120/129 132/130
f 134/145 122/131 120/129 133/144
f 134/145 135/146 124/133 122/131
f 109/113 137/147 136/148 108/114
f 138/149 141/150 140/151 139/152
f 53/153 142/154 64/68 56/155
f 143/156 63/69 64/68 142/154
f 142/154 145/157 144/158 143/156
f 146/159 149/160 148/161 147/162
f 150/163 140/151 141/150 151/164
f 152/165 144/158 145/157 153/166
f 155/167 154/168 140/151 160/169
f 139/152 140/151 154/168
f 63/69 143/156 157/170 156/171
f 144/158 158/172 157/170 143/156
f 144/158 152/165 159/173 158/172
f 161/174 155/167 160/169
f 162/175 165/176 164/177 163/178
f 155/167 168/179 167/180 166/181
f 170/182 310/183 169/184 171/185
f 172/186 255/187 171/185 169/184
f 160/169 140/151 150/163 172/186
f 173/188 166/181 167/180 174/189
f 176/190 175/191 173/188 174/189
f 178/192 400/193 177/194 179/195
f 180/196 179/195 182/197 181/198
f 183/199 182/197 179/195 184/200
f 186/201 282/202 185/203 187/204
f 188/128 187/204 185/203 118/125
f 189/205 190/206 187/204 188/128
f 191/207 192/208 190/206 189/205
f 193/209 192/210 191/211 194/212
f 195/213 193/209 197/214 196/215
f 198/216 186/201 187/204 199/217
f 200/218 203/219 202/220 201/221
f 204/222 205/223 203/219 200/218
f 206/224 205/223 204/222 207/225
f 208/226 206/227 207/228 209/229
f 210/230 211/231 7/232 21/233
f 211/231 212/234 58/235 30/236
f 213/237 215/238 214/239 202/220
f 216/240 215/238 213/237 217/241
f 218/242 213/237 202/220 203/219
f 203/219 205/223 219/243 218/242
f 205/223 206/224 220/244 219/243
f 206/227 208/226 221/245 220/246
f 208/226 223/247 222/248 221/245
f 222/248 223/247 214/239 215/238
f 224/249 222/248 215/238 216/240
f 217/241 213/237 218/242 225/250
f 226/251 154/168 155/167 166/181
f 173/188 228/252 227/253 166/181
f 226/251 166/181 227/253
f 173/188 175/191 228/252
f 229/254 152/165 153/166 230/255
f 231/256 234/257 233/258 232/259
f 236/260 235/261 237/262 350/263
f 238/264 237/262 235/261 274/265
f 239/266 242/267 241/268 240/269
f 243/270 244/271 242/267 239/266
f 245/272 159/173 152/165 229/254
f 229/254 247/273 246/274 245/272
f 248/275 249/276 246/274 247/273
f 250/277 248/275 252/278 251/279
f 177/194 255/187 254/280 253/281
f 256/282 175/191 176/190 257/283
f 258/284 900/285 260/286 259/285
f 261/287 136/148 263/288 262/289
f 259/285 260/286 264/290
f 265/291 264/290 260/286 902/290
f 266/292 162/175 163/178 267/293
f 181/198 269/294 268/295 180/196
f 270/296 258/284 259/285 271/297
f 272/298 151/164 141/150 367/299
f 274/265 273/300 275/301 238/264
f 276/302 277/303 93/100 94/99
f 276/302 94/99 95/101 278/304
f 279/305 113/116 110/115 280/306
f 282/202 281/307 185/203
f 118/125 185/203 281/307 284/308
f 284/308 283/309 117/126 118/125
f 132/130 117/126 283/309
f 200/218 201/221 287/310 286/311
f 288/312 204/222 200/218 286/311
f 207/225 204/222 288/312 289/313
f 209/229 207/228 289/314 290/315
f 214/239 291/316 201/221 202/220
f 223/247 292/317 291/316 214/239
f 209/229 292/317 223/247 208/226
f 293/318 294/319 113/320 279/321
f 294/319 85/92 86/91 113/320
f 136/148 137/147 263/288
f 84/87 295/322 10/12 85/92
f 9/9 10/12 295/322
f 22/21 8/6 1/1 296/323
f 298/324 52/52 297/325 299/50
f 300/326 299/50 297/325
f 301/327 75/79 73/77 302/328
f 303/90 83/88 304/329 345/330
f 85/92 304/329 83/88 84/87
f 301/327 305/331 306/332
f 308/333 307/334 309/335
f 310/183 311/336 307/334 308/333
f 312/337 313/338 307/334 311/336
f 314/339 309/335 307/334 313/338
f 247/273 229/254 230/255 315/340
f 316/341 319/342 318/343 317/344
f 320/345 321/346 237/262 238/264
f 322/347 325/348 324/349 323/350
f 238/264 275/301 327/351 326/352
f 328/353 331/354 330/355 329/356
f 332/357 168/179 155/167 161/174
f 266/292 332/357 333/358 162/175
f 334/359 268/295 269/294 335/360
f 298/324 299/50 149/361 146/362
f 287/310 338/363 337/364 336/365
f 212/234 341/366 340/367 339/368
f 58/235 212/234 339/368 290/315
f 195/213 342/369 192/210 193/209
f 192/208 342/370 343/371 190/206
f 343/371 199/217 187/204 190/206
f 186/201 198/216 196/215 197/214
f 193/209 194/212 344/372 197/214
f 304/329 85/92 294/319
f 293/318 345/330 304/329 294/319
f 305/331 105/112 106/111 306/332
f 346/373 306/332 106/111 108/114
f 347/374 346/373 108/114 136/148
f 348/375 347/374 136/148 261/287
f 323/350 231/256 232/259 322/347
f 235/261 236/260 316/341 354/376
f 319/342 316/341 236/260
f 250/277 251/279 350/263 349/377
f 256/282 257/283 352/378 351/379
f 273/300 274/265 353/380
f 354/376 353/380 274/265 235/261
f 355/381 353/380 354/376 356/382
f 357/383 358/384 315/340 230/255
f 359/385 361/386 357/383 360/387
f 362/388 359/385 360/387 363/389
f 364/390 362/388 363/389 365/391
f 366/392 449/393 272/298 367/299
f 366/392 47/394 369/395 368/396
f 367/299 141/150 138/149 148/161
f 210/230 21/233 50/397 370/398
f 371/399 296/323 373/400 372/401
f 320/345 238/264 326/352 374/402
f 255/187 172/186 150/163 254/280
f 151/164 417/403 254/280 150/163
f 375/404 111/118 112/117 376/405
f 112/406 103/108 102/107 376/407
f 377/408 124/136 135/409 271/297
f 378/410 137/411 109/124 116/123
f 378/410 264/290 137/411
f 263/412 137/411 264/290 265/291
f 379/413 91/414 92/415 380/416
f 183/199 184/200 382/417 381/418
f 383/419 4/2 5/5 384/420
f 384/420 5/5 6/8 28/29
f 12/10 9/9 386/421 385/422
f 387/423 13/13 14/16 388/424
f 18/20 390/425 389/426 17/17
f 30/30 27/27 6/8 7/7
f 27/27 31/32 391/427 29/28
f 392/428 87/93 12/10 385/422
f 89/95 87/93 392/428 393/429
f 97/103 98/89 68/72 69/71
f 394/430 101/106 3/3 395/431
f 295/322 98/89 99/105 396/432
f 321/346 349/377 350/263 237/262
f 251/279 236/260 350/263
f 319/342 236/260 251/279 252/278
f 315/340 358/384 317/344 318/343
f 256/282 273/300 353/380 175/191
f 275/301 273/300 256/282 351/379
f 351/379 331/354 327/351 275/301
f 252/278 248/275 247/273 318/343
f 228/252 355/381 397/433
f 398/434 308/333 309/335 399/435
f 169/184 310/183 308/333 398/434
f 311/336 310/183 170/182
f 165/176 312/337 311/336 170/182
f 162/175 313/338 312/337 165/176
f 333/358 314/339 313/338 162/175
f 399/435 309/335 314/339 333/358
f 267/293 163/178 400/193 178/192
f 268/295 334/359 168/179 267/293
f 240/269 403/436 402/437 401/438
f 239/266 240/269 401/438 404/439
f 243/270 407/440 406/441 405/442
f 244/271 243/270 405/442 408/443
f 242/267 244/271 408/443 328/353
f 241/268 242/267 328/353 329/356
f 243/270 239/266 404/439 407/440
f 405/442 406/441 409/444 374/402
f 410/445 321/346 320/345 411/446
f 240/269 241/268 329/356 403/436
f 329/356 330/355 324/349 403/436
f 231/256 323/350 352/378 257/283
f 234/257 231/256 257/283 176/190
f 412/447 234/257 176/190 174/189
f 413/448 412/447 174/189 167/180
f 334/359 413/448 167/180 168/179
f 414/449 349/377 321/346 410/445
f 250/277 349/377 414/449 415/450
f 248/275 250/277 415/450 249/276
f 149/361 299/50 48/49
f 369/47 42/41 43/43 91/98
f 46/44 43/43 42/41 36/34
f 37/37 46/44 36/34 33/33
f 19/19 40/38 23/23 24/26
f 18/20 19/19 24/26 101/106
f 390/425 18/20 101/106 394/430
f 13/13 387/423 100/104 97/103
f 16/14 13/13 97/103 69/71
f 66/70 72/75 16/14 69/71
f 165/176 170/182 171/185 164/177
f 23/23 33/33 34/36 26/24
f 46/44 37/37 38/40 45/45
f 49/51 50/54 21/22 22/21
f 416/451 370/398 50/397 51/452
f 371/399 372/401 300/326 297/325
f 40/38 37/37 33/33 23/23
f 338/363 201/221 291/316 340/367
f 74/78 73/77 75/79 76/82
f 81/86 79/83 74/78 76/82
f 104/121 279/305 280/306 115/122
f 344/372 127/140 282/202
f 281/307 282/202 127/140 128/139
f 283/309 284/308 128/139 130/142
f 293/318 279/321 104/109 105/112
f 302/328 73/77 71/76 303/90
f 345/330 293/318 105/112 305/331
f 197/214 344/372 282/202 186/201
f 272/298 417/403 151/164
f 247/273 315/340 318/343
f 4/2 1/1 8/6 5/5
f 147/162 364/390 365/391 142/154
f 295/322 84/87 98/89
f 296/323 1/1 2/4 373/400
f 305/331 301/327 302/328 345/330
f 71/76 66/70 67/73 303/90
f 301/327 306/332 78/80 75/79
f 306/332 346/373 95/101 78/80
f 347/374 348/375 418/453 278/304
f 346/373 347/374 278/304 95/101
f 53/56 54/55 298/324 146/362
f 360/387 357/383 230/255 153/166
f 363/389 360/387 153/166 145/157
f 145/157 142/154 365/391 363/389
f 296/323 371/399 49/51 22/21
f 4/2 383/419 395/431 3/3
f 295/322 396/432 386/421 9/9
f 49/51 371/399 297/325 52/52
f 142/154 53/153 146/159 147/162
f 302/328 303/90 345/330
f 358/384 357/383 361/386 419/454
f 355/381 356/382 420/455 397/433
f 80/84 96/102 72/75 70/74
f 421/456 424/457 423/458 422/459
f 425/460 421/456 426/461
f 422/459 433/462 426/461 421/456
f 421/456 427/463 424/457
f 428/464 424/457 427/463 453/465
f 184/466 431/467 430/468 429/469
f 422/459 423/458 429/469 432/470
f 430/468 432/470 429/469
f 432/470 433/462 422/459
f 434/471 437/472 436/473 435/474
f 438/475 253/476 436/477 437/478
f 439/479 433/462 432/470 437/478
f 440/480 439/481 437/472 434/471
f 441/482 444/483 443/484 442/485
f 440/480 444/483 441/482 439/481
f 446/486 445/487 382/488 184/466
f 447/489 382/488 445/487 448/490
f 449/491 447/489 448/490
f 254/492 417/493 435/474 436/473
f 254/494 436/477 253/476
f 427/463 421/456 425/460 450/495
f 424/457 428/464 445/487
f 448/490 445/487 428/464 452/496
f 445/487 446/486 423/458 424/457
f 368/396 369/395 91/414 379/413
f 451/497 435/474 417/493 272/498
f 452/496 434/471 435/474 451/497
f 452/496 453/465 440/480 434/471
f 453/465 454/499 444/483 440/480
f 454/499 450/495 443/484 444/483
f 452/496 428/464 453/465
f 451/497 448/490 452/496
f 449/491 448/490 451/497 272/498
f 364/390 147/162 148/161 138/149
f 366/392 367/299 48/500 47/394
f 366/392 368/396 447/501 449/393
f 48/500 367/299 148/161 149/160
f 379/413 380/416 381/418 382/417
f 447/501 368/396 379/413 382/417
f 212/234 211/231 210/230 341/366
f 416/451 285/502 455/503 336/365
f 341/366 210/230 370/398 337/364
f 370/398 416/451 336/365 337/364
f 119/127 121/132 189/205 188/128
f 121/132 123/134 191/207 189/205
f 123/135 125/138 194/212 191/211
f 125/138 127/140 344/372 194/212
f 284/308 281/307 128/139
f 378/410 116/123 131/143 377/408
f 129/141 114/119 115/122 130/142
f 131/143 116/123 114/119 129/141
f 111/118 133/144 132/130 110/115
f 375/404 134/145 133/144 111/118
f 375/404 270/504 271/505 134/145
f 135/146 134/145 271/505
f 280/306 283/309 130/142 115/122
f 110/115 132/130 283/309 280/306
f 317/344 456/506 316/341
f 456/506 317/344 457/507 356/382
f 420/455 356/382 457/507 358/384
f 356/382 354/376 316/341 456/506
f 358/384 457/507 317/344
f 419/454 397/433 420/455 358/384
f 161/174 160/169 398/434 399/435
f 398/434 160/169 172/186 169/184
f 333/358 332/357 161/174 399/435
f 266/292 267/293 168/179 332/357
f 255/187 177/194 400/193 164/177
f 400/193 163/178 164/177
f 171/185 255/187 164/177
f 179/195 177/194 253/281 431/508
f 438/475 430/468 431/467 253/476
f 432/470 430/468 438/475 437/478
f 268/295 267/293 178/192 180/196
f 2/4 3/3 25/25
f 397/433 419/454 227/253 228/252
f 2/4 25/25 26/24 373/400
f 372/401 34/36 35/35 300/326
f 361/386 226/251 227/253 419/454
f 359/385 154/168 226/251 361/386
f 362/388 139/152 154/168 359/385
f 364/390 138/149 139/152 362/388
f 373/400 26/24 34/36 372/401
f 355/381 228/252 175/191 353/380
f 35/35 41/42 299/50 300/326
f 224/249 458/509 221/245 222/248
f 458/509 459/510 220/246 221/245
f 459/511 460/512 219/243 220/244
f 219/243 460/512 225/250 218/242
f 286/311 287/310 336/365 455/503
f 65/513 288/312 286/311 455/503
f 59/62 289/514 65/515 62/63
f 288/312 65/513 289/313
f 290/315 289/314 59/516 58/235
f 201/221 338/363 287/310
f 292/317 339/368 340/367 291/316
f 290/315 339/368 292/317 209/229
f 340/367 341/366 337/364 338/363
f 395/431 99/105 100/104 394/430
f 28/29 385/422 386/421 384/420
f 390/425 387/423 388/424 389/426
f 29/28 392/428 385/422 28/29
f 392/428 29/28 391/427 393/429
f 396/432 383/419 384/420 386/421
f 394/430 100/104 387/423 390/425
f 99/105 395/431 383/419 396/432
f 62/66 63/69 156/171 61/517
f 378/410 377/408 259/285 264/290
f 271/297 259/285 377/408
f 131/143 126/137 124/136 377/408
f 376/405 270/504 375/404
f 86/91 103/108 112/406 113/320
f 86/91 11/11 103/108
f 319/342 252/278 318/343
f 56/155 64/68 65/67 285/518
f 455/503 285/502 65/513
f 180/196 178/192 179/195
f 335/360 461/519 413/448 334/359
f 413/448 461/519 462/520 412/447
f 412/447 462/520 233/258 234/257
f 463/521 464/522 195/213 196/215
f 464/522 465/523 342/369 195/213
f 465/524 466/525 342/370
f 467/526 470/527 469/528 468/529
f 471/530 473/531 467/526 472/532
f 475/533 491/534 474/535 476/536
f 477/537 476/536 474/535
f 478/538 479/539 477/537 474/535
f 480/540 483/541 482/542 481/543
f 485/544 484/545 486/546 528/547
f 487/548 486/546 484/545
f 475/533 468/529 469/528 488/549
f 489/550 469/528 470/527 490/551
f 470/527 482/552 483/553 490/551
f 488/549 493/554 492/555 491/534
f 494/556 495/557 491/534 492/555
f 487/548 481/543 482/542 473/558
f 481/543 497/559 496/560 480/540
f 493/554 488/549 469/528 489/550
f 498/561 492/555 493/554 499/562
f 494/556 492/555 498/561 500/563
f 499/562 493/554 489/550 463/521
f 464/522 463/521 502/564 501/565
f 503/566 465/523 464/522 504/567
f 480/540 466/525 465/524 483/541
f 199/217 498/561 499/562 198/216
f 505/568 343/371 342/370 466/525
f 198/216 499/562 463/521 196/215
f 495/557 478/538 474/535 491/534
f 487/548 484/545 497/559 481/543
f 486/546 487/548 471/569 527/570
f 473/558 471/569 487/548
f 505/568 466/525 480/540 496/560
f 484/545 485/544 478/538
f 479/539 478/538 485/544 531/571
f 497/559 495/557 494/556 496/560
f 496/560 494/556 500/563 505/568
f 484/545 478/538 495/557 497/559
f 199/217 343/371 505/568 500/563
f 498/561 199/217 500/563
f 467/526 473/531 482/552 470/527
f 488/549 491/534 475/533
f 475/533 476/536 506/572 468/529
f 467/526 468/529 506/572 472/532
f 489/550 502/564 463/521
f 507/573 510/574 509/575 508/576
f 464/522 501/565 490/577 504/567
f 511/578 514/579 513/580 512/581
f 465/523 503/566 483/582
f 515/583 516/584 489/585 490/586
f 517/587 515/588 490/589 501/590
f 518/591 517/587 501/590 502/592
f 516/584 518/591 502/592 489/585
f 519/593 520/594 490/595 483/596
f 521/597 519/593 483/596 503/598
f 522/599 521/597 503/598 504/600
f 520/601 522/599 504/600 490/602
f 523/603 526/604 525/605 524/606
f 527/607 523/603 524/606 528/608
f 524/606 525/605 530/609 529/610
f 531/611 528/608 524/606 529/610
f 523/603 527/607 532/612 526/604
f 530/613 525/614 476/536 477/537
f 529/615 530/613 477/537 479/539
f 529/615 479/539 531/571
f 531/571 485/544 528/547
f 528/547 486/546 527/570
f 532/616 527/617 471/530 472/532
f 526/618 532/616 472/532 506/572
f 525/614 526/618 506/572 476/536
f 533/619 534/620 516/584 515/583
f 535/621 533/622 515/588 517/587
f 536/623 535/621 517/587 518/591
f 534/620 536/623 518/591 516/584
f 537/624 538/625 520/594 519/593
f 539/626 537/624 519/593 521/597
f 540/627 539/626 521/597 522/599
f 538/628 540/627 522/599 520/601
f 509/575 510/574 534/620 533/619
f 508/576 509/575 533/622 535/621
f 507/573 508/576 535/621 536/623
f 510/574 507/573 536/623 534/620
f 513/580 514/579 538/625 537/624
f 512/581 513/580 537/624 539/626
f 511/578 512/581 539/626 540/627
f 514/579 511/578 540/627 538/628
f 541/629 542/630 224/249 216/240
f 542/630 543/631 458/509 224/249
f 543/631 544/632 459/510 458/509
f 545/633 548/634 547/635 546/636
f 549/637 551/638 545/633 550/639
f 553/640 569/641 552/642 554/643
f 555/644 554/643 552/642
f 556/645 557/646 555/644 552/642
f 558/647 561/648 560/649 559/650
f 563/651 562/652 564/653 606/654
f 565/655 564/653 562/652
f 553/640 546/636 547/635 566/656
f 567/657 547/635 548/634 568/658
f 548/634 560/649 561/648 568/658
f 566/656 571/659 570/660 569/641
f 572/661 573/662 569/641 570/660
f 565/663 559/650 560/649 551/638
f 559/664 575/665 574/666 558/667
f 571/659 566/656 547/635 567/657
f 576/668 570/660 571/659 577/669
f 572/661 570/660 576/668 578/670
f 577/669 571/659 567/657 541/629
f 542/630 541/629 580/671 579/672
f 581/673 543/631 542/630 582/674
f 558/647 544/632 543/631 561/648
f 225/250 576/668 577/669 217/241
f 583/675 460/512 459/511 544/676
f 217/241 577/669 541/629 216/240
f 573/662 556/645 552/642 569/641
f 565/655 562/652 575/665 559/664
f 565/663 551/638 549/637 564/677
f 583/675 544/676 558/667 574/666
f 563/651 557/646 556/645 562/652
f 575/665 573/662 572/661 574/666
f 574/666 572/661 578/670 583/675
f 562/652 556/645 573/662 575/665
f 225/250 460/512 583/675 578/670
f 576/668 225/250 578/670
f 545/633 551/638 560/649 548/634
f 566/656 569/641 553/640
f 553/640 554/643 584/678 546/636
f 545/633 546/636 584/678 550/639
f 567/657 580/671 541/629
f 585/679 588/680 587/681 586/682
f 542/630 579/672 568/683 582/674
f 589/684 592/685 591/686 590/687
f 543/631 581/673 561/648
f 593/688 594/689 567/690 568/691
f 595/692 593/693 568/694 579/695
f 596/696 595/692 579/695 580/697
f 594/689 596/696 580/697 567/690
f 597/698 598/699 568/700 561/701
f 599/702 597/698 561/701 581/703
f 600/704 599/702 581/703 582/705
f 598/706 600/704 582/705 568/707
f 601/708 604/709 603/710 602/711
f 605/712 601/708 602/711 606/713
f 602/711 603/710 608/714 607/715
f 609/716 606/713 602/711 607/715
f 601/708 605/712 610/717 604/709
f 608/718 603/719 554/643 555/644
f 607/720 608/718 555/644 557/646
f 609/721 607/720 557/646 563/651
f 609/721 563/651 606/654
f 605/722 606/723 564/677 549/637
f 610/724 605/722 549/637 550/639
f 604/725 610/724 550/639 584/678
f 603/719 604/725 584/678 554/643
f 611/726 612/727 594/689 593/688
f 613/728 611/729 593/693 595/692
f 614/730 613/728 595/692 596/696
f 612/727 614/730 596/696 594/689
f 615/731 616/732 598/699 597/698
f 617/733 615/731 597/698 599/702
f 618/734 617/733 599/702 600/704
f 616/735 618/734 600/704 598/706
f 587/736 588/680 612/727 611/726
f 586/682 587/737 611/729 613/728
f 585/679 586/682 613/728 614/730
f 588/680 585/679 614/730 612/727
f 591/686 592/738 616/732 615/731
f 590/687 591/686 615/731 617/733
f 589/684 590/687 617/733 618/734
f 592/739 589/684 618/734 616/735
f 7/232 211/231 30/236
f 88/94 90/96 619/740 102/107
f 270/741 376/407 102/107 619/740
f 619/740 90/96 258/742 270/741
f 59/62 60/65 57/61 58/60
f 262/743 263/412 265/291 901/412
f 620/744 623/745 622/746 621/747
f 624/748 278/749 418/750 625/751
f 626/752 277/753 276/754 627/755
f 627/755 276/754 278/749 624/748
f 628/756 631/757 630/758 629/759
f 633/760 658/761 632/762 634/763
f 635/764 634/763 632/762
f 628/756 629/759 634/763 635/764
f 636/765 639/766 638/767 637/768
f 640/769 643/770 642/771 641/772
f 641/772 642/771 639/766 636/765
f 624/748 625/751 645/773 644/774
f 626/752 627/755 647/775 646/776
f 627/755 624/748 644/774 647/775
f 622/746 636/765 637/768 621/747
f 623/745 641/772 636/765 622/746
f 648/777 623/745 620/744 649/778
f 648/777 640/769 641/772 623/745
f 649/779 666/780 640/781 648/782
f 620/744 621/747 651/783 650/784
f 652/785 625/751 418/750 653/786
f 626/787 655/788 654/789 277/790
f 655/788 652/785 653/786 654/789
f 630/758 631/757 657/791 656/792
f 659/793 658/794 633/795
f 656/792 657/791 658/794 659/793
f 660/796 637/768 638/767 661/797
f 640/781 663/798 662/799 643/800
f 663/798 660/796 661/797 662/799
f 645/773 625/751 652/785 664/801
f 665/802 655/788 626/787 646/803
f 664/801 652/785 655/788 665/802
f 651/783 621/747 637/768 660/796
f 650/784 651/783 660/796 663/798
f 666/780 649/779 620/744 650/784
f 663/798 640/781 666/780 650/784
f 639/766 668/804 667/805 638/767
f 643/770 670/806 669/807 642/771
f 642/771 669/807 668/804 639/766
f 644/774 645/773 631/757 628/756
f 646/776 647/775 635/764 632/762
f 647/775 644/774 628/756 635/764
f 667/805 671/808 661/797 638/767
f 672/809 670/810 643/800 662/799
f 671/808 672/809 662/799 661/797
f 631/757 645/773 664/801 657/791
f 658/794 665/802 646/803 632/811
f 665/802 658/794 657/791 664/801
f 629/759 630/758 674/812 673/813
f 633/760 634/763 676/814 675/815
f 634/763 629/759 673/813 676/814
f 677/816 674/812 656/792 659/793
f 630/758 656/792 674/812
f 678/817 659/793 633/795 675/818
f 678/817 677/816 659/793
f 668/804 673/813 674/812 667/805
f 670/806 675/815 669/807
f 676/814 668/804 669/807 675/815
f 673/813 668/804 676/814
f 674/812 677/816 671/808 667/805
f 672/809 678/817 675/818 670/810
f 671/808 677/816 678/817 672/809
f 423/458 446/486 184/466 429/469
f 184/200 179/195 431/508
f 442/819 426/461 433/462
f 443/484 425/460 426/461 442/819
f 439/479 441/820 442/819 433/462
f 443/484 450/495 425/460
f 453/465 427/463 450/495 454/499
f 325/348 402/437 403/436 324/349
f 408/443 326/352 327/351
f 331/354 351/379 352/378 330/355
f 408/443 405/442 374/402 326/352
f 331/354 328/353 408/443 327/351
f 411/446 320/345 374/402 409/444
f 330/355 352/378 323/350 324/349
f 679/1 682/4 681/3 680/2
f 683/5 686/8 685/7 684/6
f 687/9 690/12 689/11 688/10
f 691/13 14/16 15/15 692/14
f 17/17 694/20 693/19 20/18
f 685/7 696/22 695/21 684/6
f 697/23 700/26 699/25 698/24
f 701/27 686/8 703/29 702/28
f 704/30 701/27 31/32 32/31
f 705/33 708/36 707/35 706/34
f 709/37 38/40 39/39 710/38
f 706/34 707/35 712/42 711/41
f 713/43 44/46 45/45 714/44
f 716/49 715/48 712/42 933/50
f 711/41 712/42 715/48 998/47
f 717/51 720/54 719/53 718/52
f 721/58 722/56 718/52 719/53
f 32/31 57/61 723/60 704/30
f 724/62 60/65 61/64 725/63
f 725/66 728/69 727/68 726/67
f 729/70 732/73 731/72 730/71
f 733/74 735/76 729/70 734/75
f 736/77 735/76 733/74 737/78
f 738/79 741/82 740/81 739/80
f 79/83 737/78 733/74 80/84
f 741/82 81/86 82/85 740/81
f 732/73 938/90 742/88 731/72
f 743/87 754/89 731/72 742/88
f 689/11 690/12 745/92 744/91
f 746/93 688/10 689/11 747/94
f 89/95 746/93 747/94 90/96
f 44/46 713/43 748/98 92/97
f 740/81 82/85 93/100 749/99
f 740/81 749/99 750/101 739/80
f 15/15 96/102 734/75 692/14
f 751/103 754/89 753/105 752/104
f 699/25 700/26 755/106 681/3
f 710/38 39/39 20/18 693/19
f 756/107 747/94 689/11 757/108
f 758/109 761/112 760/111 759/110
f 759/110 760/111 763/114 762/113
f 764/115 767/118 766/117 765/116
f 768/119 769/122 758/121 759/120
f 768/119 759/120 762/124 770/123
f 772/129 786/130 771/126 773/127
f 774/125 833/128 773/127 771/126
f 772/129 773/127 776/132 775/131
f 775/131 776/132 778/134 777/133
f 778/135 780/138 779/137 777/136
f 779/137 780/138 782/140 781/139
f 783/141 779/137 781/139 784/142
f 785/143 777/136 779/137 783/141
f 787/144 786/130 772/129
f 788/145 787/144 772/129 775/131
f 788/145 775/131 777/133 789/146
f 762/113 763/114 791/148 790/147
f 792/149 795/152 794/151 793/150
f 797/156 796/154 727/68 728/69
f 722/153 721/155 727/68 796/154
f 796/154 797/156 799/158 798/157
f 800/159 803/162 802/161 801/160
f 804/163 805/164 793/150 794/151
f 806/165 807/166 798/157 799/158
f 795/152 808/168 794/151
f 809/167 810/169 794/151 808/168
f 728/69 156/171 157/170 797/156
f 799/158 797/156 157/170 158/172
f 799/158 158/172 159/173 806/165
f 811/174 1022/434 810/169 809/167
f 812/175 815/178 814/177 813/176
f 809/167 818/181 817/180 816/179
f 820/186 819/184 821/185 895/187
f 822/182 821/185 819/184 944/183
f 810/169 820/186 804/163 794/151
f 823/188 824/189 817/180 818/181
f 825/190 824/189 823/188 826/191
f 827/192 830/196 829/195 828/194
f 830/196 181/198 182/197 829/195
f 183/199 831/200 829/195 182/197
f 832/203 835/201 834/204 833/128
f 836/205 833/128 834/204 837/206
f 838/207 836/205 837/206 839/208
f 840/209 841/212 838/211 839/210
f 842/213 844/215 843/214 840/209
f 845/216 846/217 834/204 835/201
f 847/218 850/221 849/220 848/219
f 851/222 847/218 848/219 852/223
f 853/224 854/225 851/222 852/223
f 855/226 856/229 854/228 853/227
f 857/230 696/233 685/232 858/231
f 858/231 704/236 723/235 859/234
f 860/237 849/220 862/239 861/238
f 863/240 864/241 860/237 861/238
f 865/242 848/219 849/220 860/237
f 848/219 865/242 866/243 852/223
f 852/223 866/243 867/244 853/224
f 853/227 867/246 868/245 855/226
f 855/226 868/245 870/248 869/247
f 870/248 861/238 862/239 869/247
f 871/249 863/240 861/238 870/248
f 864/241 872/250 865/242 860/237
f 873/251 818/181 809/167 808/168
f 873/251 874/253 818/181
f 823/188 818/181 874/253 875/252
f 826/191 823/188 875/252
f 876/254 877/255 807/166 806/165
f 878/256 232/259 233/258 879/257
f 881/264 909/265 880/261 882/262
f 883/260 979/263 882/262 880/261
f 884/266 887/269 886/268 885/267
f 888/270 884/266 885/267 889/271
f 245/272 876/254 806/165 159/173
f 876/254 245/272 246/274 890/273
f 891/275 890/273 246/274 249/276
f 892/277 894/279 893/278 891/275
f 828/194 897/281 896/280 895/187
f 898/282 899/283 825/190 826/191
f 261/287 262/289 901/288 791/148
f 900/285 902/290 260/286
f 812/175 903/292 815/178
f 904/293 815/178 903/292 816/179
f 181/198 830/196 905/295 269/294
f 907/296 906/297 900/285 258/284
f 805/164 1030/403 908/298 793/150
f 909/265 881/264 911/301 910/300
f 654/302 749/99 93/100 277/303
f 654/302 653/304 750/101 749/99
f 912/305 913/306 764/115 765/116
f 774/125 917/308 914/307 832/203
f 915/202 835/201 832/203 914/307
f 786/130 916/309 771/126
f 917/308 774/125 771/126 916/309
f 918/502 721/821 719/452 919/451
f 847/218 921/311 920/310 850/221
f 922/312 921/311 847/218 851/222
f 854/225 923/313 922/312 851/222
f 856/229 924/315 923/314 854/228
f 862/239 849/220 850/221 925/316
f 869/247 862/239 925/316 926/317
f 856/229 855/226 869/247 926/317
f 927/318 912/321 765/320 928/319
f 928/319 765/320 744/91 745/92
f 790/147 791/148 901/288
f 687/9 929/322 690/12
f 743/87 745/92 690/12 929/322
f 695/21 930/323 679/1 684/6
f 932/326 931/325 933/50
f 934/324 933/50 931/325 718/52
f 935/327 936/328 736/77 738/79
f 745/92 743/87 742/88 937/329
f 938/90 937/329 742/88
f 939/331 935/327 940/332
f 942/334 941/333 943/335 948/339
f 942/334 945/336 944/183 941/333
f 942/334 946/337 945/336
f 942/334 948/339 947/338 946/337
f 890/273 949/340 877/255 876/254
f 950/341 953/344 952/343 951/342
f 954/345 881/264 882/262 955/346
f 322/347 957/350 956/349 325/348
f 881/264 959/352 958/351 911/301
f 960/353 963/356 962/355 961/354
f 964/357 811/174 809/167 816/179
f 903/292 812/175 965/358 964/357
f 966/359 335/360 269/294 905/295
f 933/50 934/324 801/361 716/49
f 800/362 801/361 934/324
f 967/363 850/221 920/310 968/364
f 969/365 968/364 920/310
f 859/234 972/368 971/367 970/366
f 859/234 723/235 972/368
f 924/315 926/317 972/368 723/235
f 842/213 840/209 839/210 973/369
f 839/208 837/206 974/371 973/370
f 974/371 837/206 834/204 846/217
f 835/201 843/214 844/215 845/216
f 840/209 843/214 975/372 841/212
f 937/329 928/319 745/92
f 927/318 928/319 937/329 976/330
f 939/331 940/332 760/111 761/112
f 977/373 763/114 760/111 940/332
f 978/374 791/148 763/114 977/373
f 348/375 261/287 791/148 978/374
f 957/350 322/347 232/259 878/256
f 951/342 883/260 950/341
f 880/261 983/376 950/341 883/260
f 892/277 980/377 979/263 894/279
f 898/282 982/379 981/378 899/283
f 983/376 880/261 909/265 984/380
f 910/300 984/380 909/265
f 984/380 985/381 983/376
f 986/382 950/341 983/376 985/381
f 987/383 877/255 949/340 988/384
f 989/385 991/387 987/383 990/386
f 992/388 993/389 991/387 989/385
f 994/390 995/391 993/389 992/388
f 793/150 908/298 996/299
f 997/392 996/299 908/298 1061/393
f 997/392 999/396 998/395 715/394
f 996/299 802/161 792/149 793/150
f 857/230 1000/398 720/397 696/233
f 1001/399 1003/401 1002/400 930/323
f 954/345 1004/402 959/352 881/264
f 805/164 804/163 896/280 1030/403
f 895/187 896/280 804/163 820/186
f 1005/404 1006/405 766/117 767/118
f 766/406 1006/407 756/107 757/108
f 777/136 785/143 1007/408 789/409
f 1008/410 770/123 762/124 790/411
f 901/412 265/291 902/290 790/411
f 1008/410 790/411 902/290
f 1009/413 380/416 92/415 748/414
f 183/199 381/418 1010/417 831/200
f 1011/419 1012/420 683/5 680/2
f 1012/420 703/29 686/8 683/5
f 688/10 1014/422 1013/421 687/9
f 1015/423 388/424 14/16 691/13
f 694/20 17/17 389/426 1016/425
f 704/30 685/7 686/8 701/27
f 701/27 702/28 391/427 31/32
f 1017/428 1014/422 688/10 746/93
f 89/95 393/429 1017/428 746/93
f 751/103 730/71 731/72 754/89
f 1018/430 1019/431 681/3 755/106
f 929/322 1020/432 753/105 754/89
f 955/346 882/262 979/263 980/377
f 894/279 979/263 883/260
f 951/342 893/278 894/279 883/260
f 949/340 952/343 953/344 988/384
f 898/282 826/191 984/380 910/300
f 911/301 982/379 898/282 910/300
f 982/379 911/301 958/351 961/354
f 890/273 893/278 952/343 949/340
f 985/381 875/252 1021/433
f 1022/434 1023/435 943/335 941/333
f 819/184 1022/434 941/333 944/183
f 945/336 822/182 944/183
f 813/176 822/182 945/336 946/337
f 812/175 813/176 946/337 947/338
f 965/358 812/175 947/338 948/339
f 1023/435 965/358 948/339 943/335
f 904/293 827/192 1024/193 815/178
f 816/179 966/359 905/295 904/293
f 887/269 401/438 402/437 1025/436
f 884/266 404/439 401/438 887/269
f 888/270 1026/442 406/441 407/440
f 889/271 1027/443 1026/442 888/270
f 885/267 960/353 1027/443 889/271
f 886/268 963/356 960/353 885/267
f 888/270 407/440 404/439 884/266
f 1026/442 1004/402 409/444 406/441
f 410/445 411/446 954/345 955/346
f 887/269 1025/436 963/356 886/268
f 963/356 1025/436 956/349 962/355
f 878/256 899/283 981/378 957/350
f 879/257 825/190 899/283 878/256
f 1028/447 824/189 825/190 879/257
f 1029/448 817/180 824/189 1028/447
f 966/359 816/179 817/180 1029/448
f 414/449 410/445 955/346 980/377
f 892/277 415/450 414/449 980/377
f 891/275 249/276 415/450 892/277
f 713/43 711/41 998/47 748/98
f 714/44 706/34 711/41 713/43
f 709/37 705/33 706/34 714/44
f 693/19 700/26 697/23 710/38
f 694/20 755/106 700/26 693/19
f 1016/425 1018/430 755/106 694/20
f 691/13 751/103 752/104 1015/423
f 692/14 730/71 751/103 691/13
f 729/70 730/71 692/14 734/75
f 813/176 814/177 821/185 822/182
f 697/23 698/24 708/36 705/33
f 714/44 45/45 38/40 709/37
f 717/51 695/21 696/22 720/54
f 919/451 719/452 720/397 1000/398
f 1001/399 931/325 932/326 1003/401
f 710/38 697/23 705/33 709/37
f 967/363 971/367 925/316 850/221
f 737/78 741/82 738/79 736/77
f 81/86 741/82 737/78 79/83
f 758/121 769/122 913/306 912/305
f 782/140 975/372 915/202 914/307
f 916/309 784/142 781/139 917/308
f 927/318 761/112 758/109 912/321
f 936/328 938/90 735/76 736/77
f 976/330 939/331 761/112 927/318
f 915/202 975/372 843/214 835/201
f 680/2 683/5 684/6 679/1
f 803/162 796/154 995/391 994/390
f 929/322 754/89 743/87
f 930/323 1002/400 682/4 679/1
f 939/331 976/330 936/328 935/327
f 735/76 938/90 732/73 729/70
f 935/327 738/79 739/80 940/332
f 940/332 739/80 750/101 977/373
f 978/374 653/304 418/453 348/375
f 977/373 750/101 653/304 978/374
f 934/324 718/52 722/56 800/362
f 991/387 807/166 877/255 987/383
f 993/389 798/157 807/166 991/387
f 995/391 796/154 798/157 993/389
f 930/323 695/21 717/51 1001/399
f 680/2 681/3 1019/431 1011/419
f 929/322 687/9 1013/421 1020/432
f 717/51 718/52 931/325 1001/399
f 796/154 803/162 800/159 722/153
f 976/330 937/329 938/90 936/328
f 988/384 1031/454 990/386 987/383
f 985/381 1021/433 1032/455 986/382
f 80/84 733/74 734/75 96/102
f 1033/456 1036/459 1035/458 1034/457
f 1036/459 1033/456 1037/461 1045/462
f 1038/460 1037/461 1033/456
f 1039/463 1033/456 1034/457 1040/464
f 831/466 1043/469 1042/468 1041/467
f 1042/468 1043/469 1044/470
f 1036/459 1044/470 1043/469 1035/458
f 1045/462 1044/470 1036/459
f 1046/471 1049/474 1048/473 1047/472
f 1050/475 1047/478 1048/477 897/476
f 1051/479 1047/478 1044/470 1045/462
f 1052/480 1046/471 1047/472 1051/481
f 1054/482 1053/822 1055/484 1056/483
f 1052/480 1051/481 1054/482 1056/483
f 1058/489 1060/490 1057/487 1010/488
f 1059/486 831/466 1010/488 1057/487
f 1061/491 1060/490 1058/489
f 1030/493 896/492 1049/474 1063/497
f 1048/473 1049/474 896/492 897/823
f 1039/463 1062/495 1038/460 1033/456
f 1040/464 1034/457 1057/487 1060/490
f 1035/458 1059/486 1057/487 1034/457
f 999/396 1009/413 748/414 998/395
f 908/498 1030/493 1063/497
f 1064/496 1063/497 1049/474 1046/471
f 1064/496 1046/471 1052/480 1065/465
f 1065/465 1052/480 1056/483 1066/499
f 1066/499 1056/483 1055/484 1062/495
f 1040/464 1064/496 1065/465 1039/463
f 1060/490 1063/497 1064/496 1040/464
f 1061/491 908/498 1063/497 1060/490
f 994/390 792/149 802/161 803/162
f 997/392 715/394 716/500 996/299
f 997/392 1061/393 1058/501 999/396
f 716/500 801/160 802/161 996/299
f 1009/413 1010/417 381/418 380/416
f 1058/501 1010/417 1009/413 999/396
f 859/234 970/366 857/230 858/231
f 919/451 969/365 1067/503 918/502
f 970/366 968/364 1000/398 857/230
f 1000/398 968/364 969/365 919/451
f 832/203 833/128 774/125
f 773/127 833/128 836/205 776/132
f 776/132 836/205 838/207 778/134
f 778/135 838/211 841/212 780/138
f 780/138 841/212 975/372 782/140
f 914/307 917/308 781/139 782/140
f 1008/410 1007/408 785/143 770/123
f 783/141 784/142 769/122 768/119
f 785/143 783/141 768/119 770/123
f 767/118 764/115 786/130 787/144
f 1005/404 767/118 787/144 788/145
f 789/146 906/505 788/145
f 1005/404 788/145 906/505 907/504
f 913/306 769/122 784/142 916/309
f 764/115 913/306 916/309 786/130
f 1068/506 953/344 950/341 986/382
f 1032/455 1069/507 986/382
f 1068/506 986/382 1069/507 953/344
f 988/384 953/344 1069/507 1032/455
f 1031/454 988/384 1032/455 1021/433
f 1023/435 1022/434 811/174
f 1022/434 819/184 820/186 810/169
f 965/358 1023/435 811/174 964/357
f 903/292 964/357 816/179
f 1024/193 828/194 895/187 814/177
f 815/178 1024/193 814/177
f 895/187 821/185 814/177
f 828/194 1024/193 827/192
f 829/195 1041/508 897/281 828/194
f 1050/475 897/476 1041/467 1042/468
f 1050/475 1042/468 1044/470 1047/478
f 905/295 830/196 827/192 904/293
f 681/3 682/4 699/25
f 1021/433 875/252 874/253 1031/454
f 682/4 1002/400 698/24 699/25
f 1003/401 932/326 707/35 708/36
f 990/386 1031/454 874/253 873/251
f 989/385 990/386 873/251 808/168
f 992/388 989/385 808/168 795/152
f 994/390 992/388 795/152 792/149
f 1002/400 1003/401 708/36 698/24
f 985/381 984/380 826/191 875/252
f 707/35 932/326 933/50 712/42
f 871/249 870/248 868/245 1070/509
f 1070/509 868/245 867/246 1071/510
f 1071/511 867/244 866/243 1072/512
f 866/243 865/242 872/250 1072/512
f 921/311 1067/503 969/365 920/310
f 726/513 1067/503 921/311 922/312
f 922/312 923/313 726/513
f 724/62 725/63 726/515 923/824
f 924/315 723/235 724/516 923/314
f 926/317 925/316 971/367 972/368
f 856/229 926/317 924/315
f 971/367 967/363 968/364 970/366
f 1019/431 1018/430 752/104 753/105
f 703/29 1012/420 1013/421 1014/422
f 1016/425 389/426 388/424 1015/423
f 702/28 703/29 1014/422 1017/428
f 1017/428 393/429 391/427 702/28
f 1020/432 1013/421 1012/420 1011/419
f 1018/430 1016/425 1015/423 752/104
f 753/105 1020/432 1011/419 1019/431
f 725/66 61/517 156/171 728/69
f 1008/410 902/290 900/285 1007/408
f 906/297 789/409 1007/408 900/285
f 1006/405 1005/404 907/504
f 744/91 765/320 766/406 757/108
f 689/11 744/91 757/108
f 891/275 893/278 890/273
f 893/278 951/342 952/343
f 1067/503 726/513 918/502
f 721/155 918/518 726/67 727/68
f 335/360 966/359 1029/448 461/519
f 1029/448 1028/447 462/520 461/519
f 1028/447 879/257 233/258 462/520
f 1073/521 844/215 842/213 1074/522
f 1074/522 842/213 973/369 1075/523
f 1076/525 1075/524 973/370
f 1077/526 1080/529 1079/528 1078/527
f 1081/530 1083/532 1077/526 1082/531
f 1085/537 1084/535 1086/536 1139/613
f 1087/533 1086/536 1084/535 1103/534
f 1088/538 1084/535 1085/537 1089/539
f 1090/540 1093/543 1092/542 1091/541
f 1095/548 1106/559 1094/545 1096/546
f 1097/544 1138/547 1096/546 1094/545
f 1087/533 1098/549 1079/528 1080/529
f 1099/550 1100/551 1078/527 1079/528
f 1078/527 1100/551 1091/553 1092/552
f 1098/549 1103/534 1102/555 1101/554
f 1104/556 1102/555 1103/534 1105/557
f 1095/548 1082/558 1092/542 1093/543
f 1093/543 1090/540 1107/560 1106/559
f 1101/554 1099/550 1079/528 1098/549
f 1108/561 1109/562 1101/554 1102/555
f 1104/556 1110/563 1108/561 1102/555
f 1109/562 1073/521 1099/550 1101/554
f 1074/522 1112/565 1111/564 1073/521
f 1113/566 1114/567 1074/522 1075/523
f 1090/540 1091/541 1075/524 1076/525
f 846/217 845/216 1109/562 1108/561
f 1115/568 1076/525 973/370 974/371
f 845/216 844/215 1073/521 1109/562
f 1105/557 1103/534 1084/535 1088/538
f 1093/543 1106/559 1095/548
f 1082/558 1095/548 1081/569
f 1096/546 1137/570 1081/569 1095/548
f 1115/568 1107/560 1090/540 1076/525
f 1089/539 1141/571 1097/544 1088/538
f 1094/545 1088/538 1097/544
f 1106/559 1107/560 1104/556 1105/557
f 1107/560 1115/568 1110/563 1104/556
f 1094/545 1106/559 1105/557 1088/538
f 846/217 1110/563 1115/568 974/371
f 846/217 1108/561 1110/563
f 1077/526 1078/527 1092/552 1082/531
f 1098/549 1087/533 1103/534
f 1087/533 1080/529 1116/572 1086/536
f 1077/526 1083/532 1116/572 1080/529
f 1111/564 1099/550 1073/521
f 1117/573 1120/576 1119/575 1118/574
f 1074/522 1114/567 1100/577 1112/565
f 1121/578 1124/581 1123/580 1122/579
f 1113/566 1075/523 1091/582
f 1125/583 1100/586 1099/585 1126/584
f 1127/587 1112/590 1100/589 1125/588
f 1128/591 1111/592 1112/590 1127/587
f 1126/584 1099/585 1111/592 1128/591
f 1129/593 1091/596 1100/595 1130/594
f 1131/597 1113/598 1091/596 1129/593
f 1132/599 1114/600 1113/598 1131/597
f 1130/601 1100/602 1114/600 1132/599
f 1133/603 1136/606 1135/605 1134/604
f 1137/607 1138/608 1136/606 1133/603
f 1136/606 1140/610 1139/609 1135/605
f 1141/611 1140/610 1136/606 1138/608
f 1142/612 1137/607 1133/603 1134/604
f 1135/614 1139/613 1086/536
f 1140/615 1089/539 1085/537 1139/613
f 1140/615 1141/571 1089/539
f 1141/571 1138/547 1097/544
f 1138/547 1137/570 1096/546
f 1142/616 1083/532 1081/530 1137/617
f 1134/618 1116/572 1083/532 1142/616
f 1135/614 1086/536 1116/572 1134/618
f 1143/619 1125/583 1126/584 1144/620
f 1145/621 1127/587 1125/588 1143/622
f 1146/623 1128/591 1127/587 1145/621
f 1144/620 1126/584 1128/591 1146/623
f 1147/624 1129/593 1130/594 1148/625
f 1149/626 1131/597 1129/593 1147/624
f 1150/627 1132/599 1131/597 1149/626
f 1148/628 1130/601 1132/599 1150/627
f 1119/575 1143/619 1144/620 1118/574
f 1120/576 1145/621 1143/622 1119/575
f 1117/573 1146/623 1145/621 1120/576
f 1118/574 1144/620 1146/623 1117/573
f 1123/580 1147/624 1148/625 1122/579
f 1124/581 1149/626 1147/624 1123/580
f 1121/578 1150/627 1149/626 1124/581
f 1122/579 1148/628 1150/627 1121/578
f 1151/629 863/240 871/249 1152/630
f 1152/630 871/249 1070/509 1153/631
f 1153/631 1070/509 1071/510 1154/632
f 1155/633 1158/636 1157/635 1156/634
f 1159/637 1161/639 1155/633 1160/638
f 1163/644 1162/642 1164/643 1217/718
f 1165/640 1164/643 1162/642 1181/641
f 1166/645 1162/642 1163/644 1167/646
f 1168/647 1171/650 1170/649 1169/648
f 1173/655 1184/665 1172/652 1174/653
f 1175/651 1174/653 1172/652
f 1165/640 1176/656 1157/635 1158/636
f 1177/657 1178/658 1156/634 1157/635
f 1156/634 1178/658 1169/648 1170/649
f 1176/656 1181/641 1180/660 1179/659
f 1182/661 1180/660 1181/641 1183/662
f 1173/663 1160/638 1170/649 1171/650
f 1171/664 1168/667 1185/666 1184/665
f 1179/659 1177/657 1157/635 1176/656
f 1186/668 1187/669 1179/659 1180/660
f 1182/661 1188/670 1186/668 1180/660
f 1187/669 1151/629 1177/657 1179/659
f 1152/630 1190/672 1189/671 1151/629
f 1191/673 1192/674 1152/630 1153/631
f 1168/647 1169/648 1153/631 1154/632
f 872/250 864/241 1187/669 1186/668
f 1193/675 1154/676 1071/511 1072/512
f 864/241 863/240 1151/629 1187/669
f 1183/662 1181/641 1162/642 1166/645
f 1171/664 1184/665 1173/655
f 1173/663 1174/677 1159/637 1160/638
f 1193/675 1185/666 1168/667 1154/676
f 1175/651 1172/652 1166/645 1167/646
f 1184/665 1185/666 1182/661 1183/662
f 1185/666 1193/675 1188/670 1182/661
f 1172/652 1184/665 1183/662 1166/645
f 872/250 1188/670 1193/675 1072/512
f 872/250 1186/668 1188/670
f 1155/633 1156/634 1170/649 1160/638
f 1176/656 1165/640 1181/641
f 1165/640 1158/636 1194/678 1164/643
f 1155/633 1161/639 1194/678 1158/636
f 1189/671 1177/657 1151/629
f 1195/679 1198/682 1197/681 1196/680
f 1152/630 1192/674 1178/683 1190/672
f 1199/684 1202/687 1201/686 1200/685
f 1191/673 1153/631 1169/648
f 1203/688 1178/691 1177/690 1204/689
f 1205/692 1190/695 1178/694 1203/693
f 1206/696 1189/697 1190/695 1205/692
f 1204/689 1177/690 1189/697 1206/696
f 1207/698 1169/701 1178/700 1208/699
f 1209/702 1191/703 1169/701 1207/698
f 1210/704 1192/705 1191/703 1209/702
f 1208/706 1178/707 1192/705 1210/704
f 1211/708 1214/711 1213/710 1212/709
f 1215/712 1216/713 1214/711 1211/708
f 1214/711 1218/715 1217/714 1213/710
f 1219/716 1218/715 1214/711 1216/713
f 1220/717 1215/712 1211/708 1212/709
f 1213/719 1217/718 1164/643
f 1218/720 1167/646 1163/644 1217/718
f 1219/721 1175/651 1167/646 1218/720
f 1216/654 1174/653 1175/651 1219/721
f 1215/722 1159/637 1174/677 1216/723
f 1220/724 1161/639 1159/637 1215/722
f 1212/725 1194/678 1161/639 1220/724
f 1213/719 1164/643 1194/678 1212/725
f 1221/726 1203/688 1204/689 1222/727
f 1223/728 1205/692 1203/693 1221/729
f 1224/730 1206/696 1205/692 1223/728
f 1222/727 1204/689 1206/696 1224/730
f 1225/731 1207/698 1208/699 1226/732
f 1227/733 1209/702 1207/698 1225/731
f 1228/734 1210/704 1209/702 1227/733
f 1226/735 1208/706 1210/704 1228/734
f 1197/736 1221/726 1222/727 1196/680
f 1198/682 1223/728 1221/729 1197/737
f 1195/679 1224/730 1223/728 1198/682
f 1196/680 1222/727 1224/730 1195/679
f 1201/686 1225/731 1226/732 1200/738
f 1202/687 1227/733 1225/731 1201/686
f 1199/684 1228/734 1227/733 1202/687
f 1200/739 1226/735 1228/734 1199/684
f 858/231 685/232 704/236
f 1229/740 90/96 747/94 756/107
f 907/741 1229/740 756/107 1006/407
f 1229/740 907/741 258/742 90/96
f 724/62 723/60 57/61 60/65
f 831/466 1059/486 1035/458 1043/469
f 829/195 831/200 1041/508
f 1053/819 1045/462 1037/461
f 1055/484 1053/819 1037/461 1038/460
f 1051/479 1045/462 1053/819 1054/820
f 1062/495 1055/484 1038/460
f 1065/465 1066/499 1062/495 1039/463
f 325/348 956/349 1025/436 402/437
f 959/352 1027/443 958/351
f 961/354 962/355 981/378 982/379
f 1027/443 959/352 1004/402 1026/442
f 961/354 958/351 1027/443 960/353
f 411/446 409/444 1004/402 954/345
f 962/355 956/349 957/350 981/378
f 285/502 416/451 51/452 55/825
f 52/52 298/826 54/55 51/53
